<svg width="20" height="20" viewBox="0 0 20 20" fill="none" xmlns="http://www.w3.org/2000/svg">
<path d="M4 0.75H16C17.7949 0.75 19.25 2.20507 19.25 4V16C19.25 17.7949 17.7949 19.25 16 19.25H4C2.20507 19.25 0.75 17.7949 0.75 16V4C0.75 2.20507 2.20507 0.75 4 0.75Z" fill="#2F6BFF"/>
<path d="M4 0.75H16C17.7949 0.75 19.25 2.20507 19.25 4V16C19.25 17.7949 17.7949 19.25 16 19.25H4C2.20507 19.25 0.75 17.7949 0.75 16V4C0.75 2.20507 2.20507 0.75 4 0.75Z" stroke="#2F6BFF" stroke-width="1.5"/>
<path d="M15 7L8.32955 13L5 10" stroke="white" stroke-width="1.5" stroke-linecap="round" stroke-linejoin="round"/>
</svg>
