<svg width="48" height="48" viewBox="0 0 48 48" fill="none" xmlns="http://www.w3.org/2000/svg">
<circle cx="24" cy="24" r="24" fill="#F6F6F6"/>
<path fill-rule="evenodd" clip-rule="evenodd" d="M23.9579 12.0693H24.0414C25.0963 12.0693 25.9472 12.0693 26.6335 12.1315C27.3409 12.1956 27.959 12.3313 28.5205 12.6555C29.1856 13.0395 29.7378 13.5918 30.1218 14.2568C30.446 14.8183 30.5817 15.4364 30.6458 16.1438C30.708 16.8301 30.708 17.681 30.708 18.7359V22.7106C31.2843 22.8323 31.8058 23.0704 32.2268 23.5516C32.7466 24.1456 32.9162 24.887 32.9864 25.7037C32.988 25.7222 32.9896 25.7408 32.9912 25.7593C33.0323 26.2367 33.0712 26.6889 33.0459 27.0668C33.0169 27.4999 32.8995 27.9419 32.548 28.3248C32.1851 28.7203 31.7293 28.8676 31.2928 28.93C31.115 28.9554 30.9186 28.9693 30.708 28.9769V33.9443C30.708 34.4276 30.3162 34.8193 29.833 34.8193C29.3497 34.8193 28.958 34.4276 28.958 33.9443V28.986H19.0413V33.9443C19.0413 34.4276 18.6496 34.8193 18.1663 34.8193C17.6831 34.8193 17.2913 34.4276 17.2913 33.9443V28.9769C17.0807 28.9693 16.8842 28.9554 16.7065 28.93C16.27 28.8676 15.8142 28.7203 15.4512 28.3248C15.0998 27.9419 14.9823 27.4999 14.9533 27.0668C14.928 26.6889 14.967 26.2367 15.0081 25.7593C15.0097 25.7408 15.0113 25.7222 15.0129 25.7037C15.0831 24.887 15.2526 24.1456 15.7725 23.5516C16.1935 23.0704 16.7149 22.8323 17.2913 22.7106L17.2913 18.7359C17.2913 17.681 17.2913 16.8301 17.3535 16.1438C17.4176 15.4364 17.5533 14.8183 17.8774 14.2568C18.2614 13.5918 18.8137 13.0395 19.4788 12.6555C20.0403 12.3313 20.6584 12.1956 21.3658 12.1315C22.0521 12.0693 22.9029 12.0693 23.9579 12.0693ZM19.8505 22.5693C19.8078 22.5693 19.7653 22.5693 19.7231 22.5693H19.0413V18.7777C19.0413 17.6712 19.0421 16.8998 19.0963 16.3018C19.1495 15.7157 19.2482 15.3826 19.393 15.1318C19.6234 14.7328 19.9548 14.4014 20.3538 14.171C20.6045 14.0263 20.9377 13.9275 21.5237 13.8744C22.1218 13.8202 22.8931 13.8193 23.9996 13.8193C25.1061 13.8193 25.8775 13.8202 26.4755 13.8744C27.0616 13.9275 27.3948 14.0263 27.6455 14.171C28.0445 14.4014 28.3759 14.7328 28.6063 15.1318C28.751 15.3826 28.8498 15.7157 28.9029 16.3018C28.9571 16.8998 28.958 17.6712 28.958 18.7777V22.5693H28.2761C28.234 22.5693 28.1915 22.5693 28.1488 22.5693H19.8505ZM19.9163 24.3193C18.9257 24.3193 18.2831 24.3217 17.8089 24.3946C17.3732 24.4616 17.2059 24.5709 17.0895 24.7039C16.9422 24.8722 16.8167 25.1524 16.7565 25.8535C16.7089 26.4069 16.6842 26.7225 16.6994 26.9499C16.7062 27.051 16.7196 27.0988 16.7264 27.1178C16.7309 27.1301 16.7333 27.1337 16.7406 27.1415L16.742 27.143C16.742 27.143 16.7419 27.143 16.742 27.143L16.7455 27.1453C16.7476 27.1465 16.7513 27.1484 16.7569 27.1509C16.7813 27.1616 16.8378 27.181 16.954 27.1976C17.2083 27.2339 17.5654 27.236 18.1663 27.236H29.833C30.4339 27.236 30.7909 27.2339 31.0453 27.1976C31.1614 27.181 31.218 27.1616 31.2424 27.1509C31.248 27.1484 31.2517 27.1465 31.2537 27.1453L31.2568 27.1434C31.2569 27.1434 31.2569 27.1434 31.2568 27.1434L31.2587 27.1415C31.2659 27.1337 31.2684 27.1301 31.2728 27.1178C31.2797 27.0988 31.2931 27.051 31.2998 26.95C31.3151 26.7225 31.2904 26.4069 31.2428 25.8535C31.1825 25.1524 31.057 24.8722 30.9098 24.7039C30.7934 24.5709 30.6261 24.4616 30.1903 24.3946C29.7161 24.3217 29.0736 24.3193 28.083 24.3193H19.9163Z" fill="#004DD1"/>
</svg>
