<svg width="20" height="20" viewBox="0 0 20 20" fill="none" xmlns="http://www.w3.org/2000/svg">
<mask id="mask0_6017_25248" style="mask-type:alpha" maskUnits="userSpaceOnUse" x="0" y="0" width="20" height="20">
<rect width="20" height="20" fill="#D9D9D9"/>
</mask>
<g mask="url(#mask0_6017_25248)">
<path d="M9.9974 18.3337C8.84462 18.3337 7.76128 18.1149 6.7474 17.6774C5.73351 17.2399 4.85156 16.6462 4.10156 15.8962C3.35156 15.1462 2.75781 14.2642 2.32031 13.2503C1.88281 12.2364 1.66406 11.1531 1.66406 10.0003C1.66406 8.84755 1.88281 7.76421 2.32031 6.75033C2.75781 5.73644 3.35156 4.85449 4.10156 4.10449C4.85156 3.35449 5.73351 2.76074 6.7474 2.32324C7.76128 1.88574 8.84462 1.66699 9.9974 1.66699C11.1641 1.66699 12.2509 1.88574 13.2578 2.32324C14.2648 2.76074 15.1432 3.35449 15.8932 4.10449C16.6432 4.85449 17.237 5.73296 17.6745 6.73991C18.112 7.74685 18.3307 8.83366 18.3307 10.0003C18.3307 10.1392 18.3273 10.2746 18.3203 10.4066C18.3134 10.5385 18.303 10.667 18.2891 10.792C18.2613 11.0281 18.1606 11.2087 17.987 11.3337C17.8134 11.4587 17.6085 11.5003 17.3724 11.4587C17.1363 11.417 16.9488 11.2989 16.8099 11.1045C16.671 10.91 16.6155 10.6948 16.6432 10.4587C16.6432 10.3892 16.6467 10.3128 16.6536 10.2295C16.6606 10.1462 16.6641 10.0698 16.6641 10.0003C16.6641 9.06977 16.4939 8.20171 16.1536 7.39616C15.8134 6.5906 15.3377 5.88227 14.7266 5.27116C14.1155 4.66005 13.4071 4.18435 12.6016 3.84408C11.796 3.5038 10.928 3.33366 9.9974 3.33366C8.13629 3.33366 6.5599 3.97949 5.26823 5.27116C3.97656 6.56283 3.33073 8.13921 3.33073 10.0003C3.33073 11.8614 3.97656 13.4378 5.26823 14.7295C6.5599 16.0212 8.13629 16.667 9.9974 16.667C10.6224 16.667 11.2231 16.5871 11.7995 16.4274C12.3759 16.2677 12.921 16.0281 13.4349 15.7087C13.6293 15.5975 13.8411 15.5559 14.0703 15.5837C14.2995 15.6114 14.4766 15.7225 14.6016 15.917C14.7405 16.1114 14.7856 16.3232 14.737 16.5524C14.6884 16.7816 14.5668 16.9587 14.3724 17.0837C13.7196 17.4864 13.0286 17.7955 12.2995 18.0107C11.5703 18.226 10.803 18.3337 9.9974 18.3337ZM16.0391 15.0003C15.7474 15.0003 15.5009 14.8996 15.2995 14.6982C15.0981 14.4969 14.9974 14.2503 14.9974 13.9587C14.9974 13.667 15.0981 13.4205 15.2995 13.2191C15.5009 13.0177 15.7474 12.917 16.0391 12.917C16.3307 12.917 16.5773 13.0177 16.7786 13.2191C16.98 13.4205 17.0807 13.667 17.0807 13.9587C17.0807 14.2503 16.98 14.4969 16.7786 14.6982C16.5773 14.8996 16.3307 15.0003 16.0391 15.0003ZM10.8307 9.66699L13.3307 12.167C13.4835 12.3198 13.5599 12.5142 13.5599 12.7503C13.5599 12.9864 13.4835 13.1809 13.3307 13.3337C13.178 13.4864 12.9835 13.5628 12.7474 13.5628C12.5113 13.5628 12.3168 13.4864 12.1641 13.3337L9.41406 10.5837C9.33073 10.5003 9.26823 10.4066 9.22656 10.3024C9.1849 10.1982 9.16406 10.0906 9.16406 9.97949V6.66699C9.16406 6.43088 9.24392 6.23296 9.40365 6.07324C9.56337 5.91352 9.76129 5.83366 9.9974 5.83366C10.2335 5.83366 10.4314 5.91352 10.5911 6.07324C10.7509 6.23296 10.8307 6.43088 10.8307 6.66699V9.66699Z" fill="#667085"/>
</g>
</svg>
