<svg xmlns="http://www.w3.org/2000/svg" width="25" height="26" viewBox="0 0 25 26" fill="none">
  <path d="M24.9278 12.7996C21.5113 12.7581 18.7525 9.98268 18.7525 6.55641C15.3263 6.55641 12.5514 3.79811 12.5094 0.382095C11.1783 0.179947 9.81747 0.396744 8.61679 1.00807L5.2413 2.7278C4.02617 3.34705 3.03836 4.33521 2.41952 5.55055L0.705657 8.91383C0.0849809 10.1323 -0.134141 11.5159 0.0796807 12.8665L0.669524 16.5906C0.883134 17.9398 1.51828 19.1869 2.48398 20.1531L5.15829 22.8269C6.12094 23.7899 7.36376 24.4233 8.70859 24.6365L12.4542 25.2298C13.7975 25.4426 15.1739 25.2244 16.3863 24.6067L19.7618 22.8875C20.9768 22.2681 21.9646 21.28 22.5836 20.0647L24.2975 16.7014C24.9107 15.4983 25.128 14.134 24.9278 12.7996ZM8.59384 18.2771C7.73105 18.2771 7.03134 17.5774 7.03134 16.7146C7.03134 15.8518 7.73105 15.1521 8.59384 15.1521C9.45663 15.1521 10.1563 15.8518 10.1563 16.7146C10.1563 17.5774 9.45663 18.2771 8.59384 18.2771ZM10.1563 10.4646C9.29355 10.4646 8.59384 9.76491 8.59384 8.90211C8.59384 8.03932 9.29355 7.33961 10.1563 7.33961C11.0191 7.33961 11.7188 8.03932 11.7188 8.90211C11.7188 9.76491 11.0191 10.4646 10.1563 10.4646ZM17.9688 16.7146C17.106 16.7146 16.4063 16.0149 16.4063 15.1521C16.4063 14.2893 17.106 13.5896 17.9688 13.5896C18.8316 13.5896 19.5313 14.2893 19.5313 15.1521C19.5313 16.0149 18.8316 16.7146 17.9688 16.7146Z" fill="#464646"/>
</svg>