<svg width="14" height="14" viewBox="0 0 14 14" fill="none" xmlns="http://www.w3.org/2000/svg">
<path d="M6.9987 9.98763C6.88759 9.98763 6.78342 9.97027 6.6862 9.93555C6.58898 9.90082 6.4987 9.8418 6.41536 9.75846L3.41536 6.75846C3.2487 6.5918 3.16884 6.39735 3.17578 6.17513C3.18273 5.95291 3.26259 5.75846 3.41536 5.5918C3.58203 5.42513 3.77995 5.33832 4.00911 5.33138C4.23828 5.32444 4.4362 5.4043 4.60286 5.57096L6.16536 7.13346V1.17513C6.16536 0.939019 6.24523 0.741102 6.40495 0.58138C6.56467 0.421658 6.76259 0.341797 6.9987 0.341797C7.23481 0.341797 7.43273 0.421658 7.59245 0.58138C7.75217 0.741102 7.83203 0.939019 7.83203 1.17513V7.13346L9.39453 5.57096C9.5612 5.4043 9.75911 5.32444 9.98828 5.33138C10.2174 5.33832 10.4154 5.42513 10.582 5.5918C10.7348 5.75846 10.8147 5.95291 10.8216 6.17513C10.8286 6.39735 10.7487 6.5918 10.582 6.75846L7.58203 9.75846C7.4987 9.8418 7.40842 9.90082 7.3112 9.93555C7.21398 9.97027 7.10981 9.98763 6.9987 9.98763ZM1.9987 13.6751C1.54036 13.6751 1.148 13.5119 0.821615 13.1855C0.495226 12.8592 0.332031 12.4668 0.332031 12.0085V10.3418C0.332031 10.1057 0.411892 9.90777 0.571615 9.74805C0.731337 9.58832 0.929253 9.50846 1.16536 9.50846C1.40148 9.50846 1.59939 9.58832 1.75911 9.74805C1.91884 9.90777 1.9987 10.1057 1.9987 10.3418V12.0085H11.9987V10.3418C11.9987 10.1057 12.0786 9.90777 12.2383 9.74805C12.398 9.58832 12.5959 9.50846 12.832 9.50846C13.0681 9.50846 13.2661 9.58832 13.4258 9.74805C13.5855 9.90777 13.6654 10.1057 13.6654 10.3418V12.0085C13.6654 12.4668 13.5022 12.8592 13.1758 13.1855C12.8494 13.5119 12.457 13.6751 11.9987 13.6751H1.9987Z" fill="#004DD1"/>
</svg>
