<svg width="21" height="20" viewBox="0 0 21 20" fill="none" xmlns="http://www.w3.org/2000/svg">
<path d="M14.6641 2.5009C14.8829 2.28203 15.1428 2.10842 15.4287 1.98996C15.7147 1.87151 16.0212 1.81055 16.3307 1.81055C16.6403 1.81055 16.9468 1.87151 17.2327 1.98996C17.5187 2.10842 17.7785 2.28203 17.9974 2.5009C18.2163 2.71977 18.3899 2.97961 18.5083 3.26558C18.6268 3.55154 18.6878 3.85804 18.6878 4.16757C18.6878 4.4771 18.6268 4.7836 18.5083 5.06956C18.3899 5.35553 18.2163 5.61537 17.9974 5.83424L6.7474 17.0842L2.16406 18.3342L3.41406 13.7509L14.6641 2.5009Z" stroke="#475467" stroke-width="1.66667" stroke-linecap="round" stroke-linejoin="round"/>
</svg>
