<svg width="48" height="49" viewBox="0 0 48 49" fill="none" xmlns="http://www.w3.org/2000/svg">
<rect y="0.554688" width="47.9999" height="48.0004" rx="24" fill="#EBEBEB"/>
<path d="M18.7658 34.6099C20.9783 36.9263 24.5148 35.1874 21.6653 39.25C19.3866 42.5015 16.2215 38.934 15.26 36.5817C16.8998 36.2924 18.2509 35.1657 18.7658 34.6099Z" fill="#004DD1"/>
<path d="M16.8092 16.5361C15.17 21.8163 13.8038 23.7463 12.49 24.6276C11.1762 25.5089 5.71038 28.162 9.08194 33.1213C11.7792 37.0888 15.9954 35.2841 17.7634 33.8852C13.6438 31.2773 13.0102 28.0792 13.2635 26.5157C15.0801 31.2513 17.9011 32.3994 19.0773 33.0039C21.5036 31.883 22.3545 31.8215 26.7544 32.2904C34.3909 33.1042 29.9907 24.6695 27.2106 20.5802C24.6671 16.839 18.4484 11.2559 16.8092 16.5361ZM28.2223 29.4784C27.3928 30.0964 24.44 28.8391 21.7936 24.9465C19.1472 21.0538 18.4756 17.9426 19.5124 17.3246C20.5493 16.7066 23.296 18.3776 25.9412 22.2685C28.5863 26.1594 29.0518 28.8604 28.2223 29.4784Z" fill="#004DD1"/>
<path fill-rule="evenodd" clip-rule="evenodd" d="M37.4712 13.7231C37.9081 14.418 37.7153 15.3492 37.0407 15.8029L31.1188 19.7857C30.4442 20.2395 29.5431 20.0439 29.1062 19.349C28.6693 18.654 28.862 17.7228 29.5367 17.2691L35.4586 13.2863C36.1332 12.8326 37.0343 13.0281 37.4712 13.7231Z" fill="#004DD1"/>
<path fill-rule="evenodd" clip-rule="evenodd" d="M39.8985 23.1512C39.9113 23.9605 39.2613 24.6252 38.4467 24.6358L32.2611 24.7167C31.4466 24.7274 30.7759 24.0799 30.7631 23.2706C30.7503 22.4613 31.4003 21.7966 32.2149 21.786L38.4005 21.7051C39.2151 21.6944 39.8858 22.3419 39.8985 23.1512Z" fill="#004DD1"/>
<path fill-rule="evenodd" clip-rule="evenodd" d="M29.8197 8.67244C30.5288 8.98829 30.8573 9.84177 30.5534 10.5787L28.5522 15.4319C28.2483 16.1688 27.4271 16.5102 26.7181 16.1944C26.009 15.8785 25.6805 15.0251 25.9844 14.2881L27.9856 9.43497C28.2895 8.69799 29.1106 8.3566 29.8197 8.67244Z" fill="#004DD1"/>
</svg>
