<svg width="20" height="25" viewBox="0 0 20 25" fill="none" xmlns="http://www.w3.org/2000/svg">
<g clip-path="url(#clip0_6020_34328)">
<path d="M12.25 1.30996V6.06008C12.25 6.70414 12.25 7.02617 12.3726 7.27217C12.4805 7.48856 12.6526 7.66448 12.8643 7.77474C13.1049 7.90008 13.4199 7.90008 14.05 7.90008H18.6969M14.5 13.65H5.5M14.5 18.25H5.5M7.75 9.05H5.5M12.25 1H6.4C4.50982 1 3.56473 1 2.84278 1.37603C2.20774 1.70679 1.69143 2.23457 1.36785 2.88373C1 3.62173 1 4.58782 1 6.52V18.48C1 20.4122 1 21.3783 1.36785 22.1163C1.69143 22.7654 2.20774 23.2932 2.84278 23.624C3.56473 24 4.50982 24 6.4 24H13.6C15.4902 24 16.4353 24 17.1572 23.624C17.7923 23.2932 18.3086 22.7654 18.6321 22.1163C19 21.3783 19 20.4122 19 18.48V7.9L12.25 1Z" stroke="#475467" stroke-width="2" stroke-linecap="round" stroke-linejoin="round"/>
</g>
<defs>
<clipPath id="clip0_6020_34328">
<rect width="20" height="25" fill="white"/>
</clipPath>
</defs>
</svg>
