<svg width="20" height="21" viewBox="0 0 20 21" fill="none" xmlns="http://www.w3.org/2000/svg">
<mask id="mask0_6001_3094" style="mask-type:alpha" maskUnits="userSpaceOnUse" x="0" y="0" width="20" height="21">
<rect y="0.554688" width="20" height="20" fill="#D9D9D9"/>
</mask>
<g mask="url(#mask0_6001_3094)">
<path d="M10.0013 18.8874C8.84852 18.8874 7.76519 18.6686 6.7513 18.2311C5.73741 17.7936 4.85547 17.1999 4.10547 16.4499C3.35547 15.6999 2.76172 14.8179 2.32422 13.804C1.88672 12.7901 1.66797 11.7068 1.66797 10.554C1.66797 9.40126 1.88672 8.31793 2.32422 7.30404C2.76172 6.29015 3.35547 5.4082 4.10547 4.6582C4.85547 3.9082 5.73741 3.31445 6.7513 2.87695C7.76519 2.43945 8.84852 2.2207 10.0013 2.2207C11.168 2.2207 12.2548 2.43945 13.2617 2.87695C14.2687 3.31445 15.1471 3.9082 15.8971 4.6582C16.6471 5.4082 17.2409 6.28668 17.6784 7.29362C18.1159 8.30056 18.3346 9.38737 18.3346 10.554C18.3346 10.6929 18.3312 10.8283 18.3242 10.9603C18.3173 11.0922 18.3069 11.2207 18.293 11.3457C18.2652 11.5818 18.1645 11.7624 17.9909 11.8874C17.8173 12.0124 17.6124 12.054 17.3763 12.0124C17.1402 11.9707 16.9527 11.8526 16.8138 11.6582C16.6749 11.4638 16.6194 11.2485 16.6471 11.0124C16.6471 10.9429 16.6506 10.8665 16.6576 10.7832C16.6645 10.6999 16.668 10.6235 16.668 10.554C16.668 9.62348 16.4978 8.75543 16.1576 7.94987C15.8173 7.14431 15.3416 6.43598 14.7305 5.82487C14.1194 5.21376 13.411 4.73806 12.6055 4.39779C11.7999 4.05751 10.9319 3.88737 10.0013 3.88737C8.14019 3.88737 6.5638 4.5332 5.27214 5.82487C3.98047 7.11654 3.33464 8.69293 3.33464 10.554C3.33464 12.4151 3.98047 13.9915 5.27214 15.2832C6.5638 16.5749 8.14019 17.2207 10.0013 17.2207C10.6263 17.2207 11.227 17.1408 11.8034 16.9811C12.3798 16.8214 12.9249 16.5818 13.4388 16.2624C13.6332 16.1513 13.8451 16.1096 14.0742 16.1374C14.3034 16.1651 14.4805 16.2763 14.6055 16.4707C14.7444 16.6651 14.7895 16.877 14.7409 17.1061C14.6923 17.3353 14.5707 17.5124 14.3763 17.6374C13.7235 18.0401 13.0326 18.3492 12.3034 18.5645C11.5742 18.7797 10.8069 18.8874 10.0013 18.8874ZM16.043 15.554C15.7513 15.554 15.5048 15.4533 15.3034 15.252C15.102 15.0506 15.0013 14.804 15.0013 14.5124C15.0013 14.2207 15.102 13.9742 15.3034 13.7728C15.5048 13.5714 15.7513 13.4707 16.043 13.4707C16.3346 13.4707 16.5812 13.5714 16.7826 13.7728C16.9839 13.9742 17.0846 14.2207 17.0846 14.5124C17.0846 14.804 16.9839 15.0506 16.7826 15.252C16.5812 15.4533 16.3346 15.554 16.043 15.554ZM10.8346 10.2207L13.3346 12.7207C13.4874 12.8735 13.5638 13.0679 13.5638 13.304C13.5638 13.5401 13.4874 13.7346 13.3346 13.8874C13.1819 14.0401 12.9874 14.1165 12.7513 14.1165C12.5152 14.1165 12.3207 14.0401 12.168 13.8874L9.41797 11.1374C9.33464 11.054 9.27214 10.9603 9.23047 10.8561C9.1888 10.752 9.16797 10.6443 9.16797 10.5332V7.2207C9.16797 6.98459 9.24783 6.78668 9.40755 6.62695C9.56728 6.46723 9.76519 6.38737 10.0013 6.38737C10.2374 6.38737 10.4353 6.46723 10.5951 6.62695C10.7548 6.78668 10.8346 6.98459 10.8346 7.2207V10.2207Z" fill="#667085"/>
</g>
</svg>
