<svg width="22" height="22" viewBox="0 0 22 22" fill="none" xmlns="http://www.w3.org/2000/svg">
<g clip-path="url(#clip0_6017_25240)">
<path d="M16.4955 0.786133H5.49554C4.24523 0.786133 3.04613 1.28282 2.16203 2.16692C1.27793 3.05102 0.78125 4.25011 0.78125 5.50042V16.5004C0.78125 17.7507 1.27793 18.9498 2.16203 19.8339C3.04613 20.718 4.24523 21.2147 5.49554 21.2147H16.4955C17.7458 21.2147 18.9449 20.718 19.829 19.8339C20.7131 18.9498 21.2098 17.7507 21.2098 16.5004V5.50042C21.2098 4.25011 20.7131 3.05102 19.829 2.16692C18.9449 1.28282 17.7458 0.786133 16.4955 0.786133Z" stroke="#2A2A33" stroke-linecap="round" stroke-linejoin="round"/>
<path d="M8.17969 16.5225V11.9214M8.17969 11.9214V5.47852H13.1847C13.8098 5.47852 14.4094 5.72686 14.8514 6.16891C15.2935 6.61096 15.5418 7.21051 15.5418 7.83566V9.56423C15.5418 10.1894 15.2935 10.7889 14.8514 11.231C14.4094 11.673 13.8098 11.9214 13.1847 11.9214H8.17969Z" stroke="#2A2A33" stroke-width="2" stroke-linecap="round" stroke-linejoin="round"/>
</g>
<defs>
<clipPath id="clip0_6017_25240">
<rect width="22" height="22" fill="white"/>
</clipPath>
</defs>
</svg>
