<svg width="18" height="14" viewBox="0 0 18 14" fill="none" xmlns="http://www.w3.org/2000/svg">
<path d="M9 10.8887C10.0417 10.8887 10.9271 10.5241 11.6562 9.79492C12.3854 9.06575 12.75 8.18034 12.75 7.13867C12.75 6.097 12.3854 5.21159 11.6562 4.48242C10.9271 3.75326 10.0417 3.38867 9 3.38867C7.95833 3.38867 7.07292 3.75326 6.34375 4.48242C5.61458 5.21159 5.25 6.097 5.25 7.13867C5.25 8.18034 5.61458 9.06575 6.34375 9.79492C7.07292 10.5241 7.95833 10.8887 9 10.8887ZM9 9.38867C8.375 9.38867 7.84375 9.16992 7.40625 8.73242C6.96875 8.29492 6.75 7.76367 6.75 7.13867C6.75 6.51367 6.96875 5.98242 7.40625 5.54492C7.84375 5.10742 8.375 4.88867 9 4.88867C9.625 4.88867 10.1562 5.10742 10.5938 5.54492C11.0312 5.98242 11.25 6.51367 11.25 7.13867C11.25 7.76367 11.0312 8.29492 10.5938 8.73242C10.1562 9.16992 9.625 9.38867 9 9.38867ZM9 13.3887C7.13889 13.3887 5.44097 12.8887 3.90625 11.8887C2.37153 10.8887 1.15972 9.56923 0.270833 7.93034C0.201389 7.80534 0.149306 7.67687 0.114583 7.54492C0.0798611 7.41298 0.0625 7.27756 0.0625 7.13867C0.0625 6.99978 0.0798611 6.86437 0.114583 6.73242C0.149306 6.60048 0.201389 6.47201 0.270833 6.34701C1.15972 4.70812 2.37153 3.38867 3.90625 2.38867C5.44097 1.38867 7.13889 0.888672 9 0.888672C10.8611 0.888672 12.559 1.38867 14.0937 2.38867C15.6285 3.38867 16.8403 4.70812 17.7292 6.34701C17.7986 6.47201 17.8507 6.60048 17.8854 6.73242C17.9201 6.86437 17.9375 6.99978 17.9375 7.13867C17.9375 7.27756 17.9201 7.41298 17.8854 7.54492C17.8507 7.67687 17.7986 7.80534 17.7292 7.93034C16.8403 9.56923 15.6285 10.8887 14.0937 11.8887C12.559 12.8887 10.8611 13.3887 9 13.3887ZM9 11.722C10.5694 11.722 12.0104 11.3088 13.3229 10.4824C14.6354 9.65603 15.6389 8.54145 16.3333 7.13867C15.6389 5.73589 14.6354 4.62131 13.3229 3.79492C12.0104 2.96853 10.5694 2.55534 9 2.55534C7.43056 2.55534 5.98958 2.96853 4.67708 3.79492C3.36458 4.62131 2.36111 5.73589 1.66667 7.13867C2.36111 8.54145 3.36458 9.65603 4.67708 10.4824C5.98958 11.3088 7.43056 11.722 9 11.722Z" fill="#667085"/>
</svg>
