<svg width="20" height="21" viewBox="0 0 20 21" fill="none" xmlns="http://www.w3.org/2000/svg">
<mask id="mask0_6001_12298" style="mask-type:alpha" maskUnits="userSpaceOnUse" x="0" y="0" width="20" height="21">
<rect y="0.554688" width="20" height="20" fill="#D9D9D9"/>
</mask>
<g mask="url(#mask0_6001_12298)">
<path d="M4.16667 18.8874C3.70833 18.8874 3.31597 18.7242 2.98958 18.3978C2.66319 18.0714 2.5 17.679 2.5 17.2207V5.55404C2.5 5.0957 2.66319 4.70334 2.98958 4.37695C3.31597 4.05056 3.70833 3.88737 4.16667 3.88737H5V3.05404C5 2.81793 5.07986 2.62001 5.23958 2.46029C5.39931 2.30056 5.59722 2.2207 5.83333 2.2207C6.06944 2.2207 6.26736 2.30056 6.42708 2.46029C6.58681 2.62001 6.66667 2.81793 6.66667 3.05404V3.88737H13.3333V3.05404C13.3333 2.81793 13.4132 2.62001 13.5729 2.46029C13.7326 2.30056 13.9306 2.2207 14.1667 2.2207C14.4028 2.2207 14.6007 2.30056 14.7604 2.46029C14.9201 2.62001 15 2.81793 15 3.05404V3.88737H15.8333C16.2917 3.88737 16.684 4.05056 17.0104 4.37695C17.3368 4.70334 17.5 5.0957 17.5 5.55404V17.2207C17.5 17.679 17.3368 18.0714 17.0104 18.3978C16.684 18.7242 16.2917 18.8874 15.8333 18.8874H4.16667ZM4.16667 17.2207H15.8333V8.88737H4.16667V17.2207ZM4.16667 7.2207H15.8333V5.55404H4.16667V7.2207Z" fill="#667085"/>
</g>
</svg>
