<svg width="21" height="21" viewBox="0 0 21 21" fill="none" xmlns="http://www.w3.org/2000/svg">
<path fill-rule="evenodd" clip-rule="evenodd" d="M2.32189 5.99935C2.32189 4.50358 3.55114 3.29102 5.06749 3.29102H10.1363C10.4862 3.29102 10.7699 3.01119 10.7699 2.66602C10.7699 2.32084 10.4862 2.04102 10.1363 2.04102H5.06749C2.85128 2.04102 1.05469 3.81322 1.05469 5.99935V15.9993C1.05469 18.1855 2.85128 19.9577 5.06749 19.9577H15.2051C17.4213 19.9577 19.2179 18.1855 19.2179 15.9993V10.9993C19.2179 10.6542 18.9342 10.3743 18.5843 10.3743C18.2344 10.3743 17.9507 10.6542 17.9507 10.9993V15.9993C17.9507 17.4951 16.7215 18.7077 15.2051 18.7077H5.06749C3.55114 18.7077 2.32189 17.4951 2.32189 15.9993V5.99935ZM13.8695 3.23025C14.6322 2.47794 15.8687 2.47794 16.6314 3.23025L18.0123 4.59244C18.775 5.34476 18.775 6.5645 18.0123 7.31682L16.7879 8.52458C16.6918 8.47763 16.5907 8.42686 16.4858 8.37241C15.7801 8.0059 14.9426 7.49149 14.3175 6.87493C13.6925 6.25837 13.171 5.43222 12.7994 4.73604C12.7442 4.63259 12.6927 4.53283 12.6451 4.43801L13.8695 3.23025ZM13.4215 7.75881C14.1611 8.48841 15.1017 9.06263 15.8467 9.45303L11.0318 14.2025C10.733 14.4973 10.3454 14.6885 9.92708 14.7474L7.02712 15.1561C6.38268 15.2469 5.83031 14.702 5.92237 14.0663L6.33665 11.2057C6.39641 10.7931 6.59023 10.4107 6.88902 10.116L11.7039 5.36645C12.0997 6.1013 12.6818 7.0292 13.4215 7.75881Z" fill="#EC221F"/>
</svg>
