<svg width="28" height="32" viewBox="0 0 28 32" fill="none" xmlns="http://www.w3.org/2000/svg">
<path d="M10.0309 28.3574C10.9992 29.212 12.2711 29.7306 13.6641 29.7306C15.057 29.7306 16.3289 29.212 17.2972 28.3574M21.903 10.5065C21.903 8.32138 21.0349 6.22579 19.4898 4.6807C17.9448 3.1356 15.8492 2.26758 13.6641 2.26758C11.479 2.26758 9.38337 3.1356 7.83828 4.6807C6.29319 6.22579 5.42516 8.32138 5.42516 10.5065C5.42516 14.7498 4.35475 17.655 3.15901 19.5767C2.15038 21.1976 1.64606 22.0081 1.66455 22.2342C1.68503 22.4846 1.73806 22.58 1.9398 22.7297C2.122 22.8648 2.94332 22.8648 4.58597 22.8648H22.7422C24.3848 22.8648 25.2061 22.8648 25.3883 22.7297C25.5901 22.58 25.6431 22.4846 25.6636 22.2342C25.6821 22.0081 25.1777 21.1976 24.1691 19.5767C22.9734 17.655 21.903 14.7498 21.903 10.5065Z" stroke="#004DD1" stroke-width="3.33333" stroke-linecap="round" stroke-linejoin="round"/>
</svg>
