<svg width="20" height="20" viewBox="0 0 20 20" fill="none" xmlns="http://www.w3.org/2000/svg">
<path fill-rule="evenodd" clip-rule="evenodd" d="M8.42105 0C3.77023 0 0 3.77023 0 8.42105C0 13.0719 3.77023 16.8421 8.42105 16.8421C10.0474 16.8421 11.566 16.3811 12.8534 15.5826L16.7056 19.4348C17.4592 20.1884 18.6811 20.1884 19.4348 19.4348C20.1884 18.6811 20.1884 17.4592 19.4348 16.7056L15.5826 12.8534C16.3811 11.566 16.8421 10.0474 16.8421 8.42105C16.8421 3.77023 13.0719 0 8.42105 0ZM2.80702 8.42105C2.80702 5.32051 5.32051 2.80702 8.42105 2.80702C11.5216 2.80702 14.0351 5.32051 14.0351 8.42105C14.0351 11.5216 11.5216 14.0351 8.42105 14.0351C5.32051 14.0351 2.80702 11.5216 2.80702 8.42105Z" fill="#004DD1"/>
</svg>
