<svg width="22" height="22" viewBox="0 0 22 22" fill="none" xmlns="http://www.w3.org/2000/svg">
<path d="M21.2422 18.1496L17.3922 12.6496C17.3281 12.5642 17.2451 12.4949 17.1496 12.4472C17.0542 12.3995 16.9489 12.3746 16.8422 12.3746H8.93594V10.9996C9.68394 10.8874 10.3688 10.5162 10.8714 9.9509C11.3739 9.38558 11.6621 8.66188 11.6859 7.90588C11.6812 7.47001 11.5801 7.04058 11.3899 6.64835C11.1998 6.25613 10.9252 5.91081 10.5859 5.63713C10.8441 5.22062 10.9862 4.74272 10.9977 4.25285C11.0092 3.76298 10.8895 3.27894 10.6512 2.85081C10.4128 2.42268 10.0644 2.06601 9.64198 1.81771C9.21955 1.5694 8.73844 1.43848 8.24844 1.43848C7.75843 1.43848 7.27733 1.5694 6.8549 1.81771C6.43246 2.06601 6.08405 2.42268 5.8457 2.85081C5.60735 3.27894 5.48772 3.76298 5.49919 4.25285C5.51066 4.74272 5.65281 5.22062 5.91094 5.63713C5.57166 5.91081 5.29711 6.25613 5.10694 6.64835C4.91677 7.04058 4.81569 7.47001 4.81094 7.90588C4.85034 8.64983 5.1456 9.35731 5.64673 9.90856C6.14787 10.4598 6.8241 10.821 7.56094 10.9309V12.3746H5.15469C5.04796 12.3746 4.94269 12.3995 4.84723 12.4472C4.75177 12.4949 4.66873 12.5642 4.60469 12.6496L0.754688 18.1496C0.678082 18.2518 0.631432 18.3732 0.619966 18.5004C0.6085 18.6275 0.63267 18.7554 0.689769 18.8696C0.746868 18.9838 0.834639 19.0798 0.943248 19.147C1.05186 19.2141 1.17701 19.2496 1.30469 19.2496H20.6922C20.8199 19.2496 20.945 19.2141 21.0536 19.147C21.1622 19.0798 21.25 18.9838 21.3071 18.8696C21.3642 18.7554 21.3884 18.6275 21.3769 18.5004C21.3654 18.3732 21.3188 18.2518 21.2422 18.1496ZM6.18594 7.90588C6.1965 7.66037 6.26413 7.4207 6.38347 7.20589C6.50281 6.99108 6.67057 6.80704 6.87344 6.66838C7.11686 6.44493 7.27167 6.1413 7.30955 5.81305C7.34742 5.4848 7.26582 5.15389 7.07969 4.88088C6.93902 4.65415 6.86735 4.39138 6.87344 4.12463C6.87344 3.75996 7.0183 3.41022 7.27617 3.15236C7.53403 2.89449 7.88377 2.74963 8.24844 2.74963C8.61311 2.74963 8.96285 2.89449 9.22071 3.15236C9.47857 3.41022 9.62344 3.75996 9.62344 4.12463C9.61677 4.36801 9.54559 4.60526 9.41719 4.81213C9.21939 5.09883 9.13777 5.44991 9.18882 5.79446C9.23986 6.13901 9.41977 6.45134 9.69219 6.66838C9.88237 6.81426 10.0369 7.00148 10.1441 7.21586C10.2513 7.43025 10.3083 7.6662 10.3109 7.90588C10.2915 8.29275 10.1469 8.66284 9.89889 8.96042C9.65091 9.258 9.31296 9.46698 8.93594 9.55588V7.56213C8.93594 7.37979 8.8635 7.20492 8.73457 7.07599C8.60564 6.94706 8.43077 6.87463 8.24844 6.87463C8.0661 6.87463 7.89123 6.94706 7.7623 7.07599C7.63337 7.20492 7.56094 7.37979 7.56094 7.56213V9.55588C7.18391 9.46698 6.84597 9.258 6.59799 8.96042C6.35 8.66284 6.2054 8.29275 6.18594 7.90588ZM2.61094 17.8746L5.49844 13.7496H7.56094V15.1246C7.56094 15.307 7.63337 15.4818 7.7623 15.6108C7.89123 15.7397 8.0661 15.8121 8.24844 15.8121C8.43077 15.8121 8.60564 15.7397 8.73457 15.6108C8.8635 15.4818 8.93594 15.307 8.93594 15.1246V13.7496H16.4984L19.3859 17.8746H2.61094Z" fill="#2A2A33"/>
</svg>
