<svg width="56" height="36" viewBox="0 0 56 36" fill="none" xmlns="http://www.w3.org/2000/svg">
<path d="M31.9259 10.9842H23.9175V25.3755H31.9259V10.9842Z" fill="#FF5F00"/>
<path d="M24.426 18.1798C24.4248 16.7938 24.7389 15.4257 25.3445 14.1791C25.9501 12.9324 26.8315 11.8399 27.9218 10.9842C26.5716 9.92288 24.9501 9.26289 23.2425 9.07962C21.535 8.89634 19.8103 9.19718 18.2657 9.94775C16.721 10.6983 15.4187 11.8683 14.5076 13.3241C13.5965 14.7798 13.1133 16.4625 13.1133 18.1798C13.1133 19.8972 13.5965 21.5799 14.5076 23.0356C15.4187 24.4913 16.721 25.6614 18.2657 26.4119C19.8103 27.1625 21.535 27.4633 23.2425 27.2801C24.9501 27.0968 26.5716 26.4368 27.9218 25.3755C26.8315 24.5198 25.9502 23.4273 25.3445 22.1806C24.7389 20.934 24.4248 19.5658 24.426 18.1798Z" fill="#EB001B"/>
<path d="M42.7298 18.1798C42.7299 19.8972 42.2467 21.5799 41.3357 23.0356C40.4246 24.4913 39.1223 25.6613 37.5777 26.4119C36.0331 27.1625 34.3084 27.4633 32.6009 27.2801C30.8934 27.0968 29.2719 26.4368 27.9218 25.3755C29.0111 24.519 29.8917 23.4262 30.4973 22.1798C31.1028 20.9333 31.4175 19.5656 31.4175 18.1798C31.4175 16.7941 31.1028 15.4264 30.4973 14.1799C29.8917 12.9334 29.0111 11.8407 27.9218 10.9842C29.2719 9.92288 30.8934 9.26288 32.6009 9.07961C34.3084 8.89634 36.0331 9.19719 37.5777 9.94777C39.1223 10.6983 40.4246 11.8684 41.3357 13.3241C42.2467 14.7798 42.7299 16.4625 42.7298 18.1798Z" fill="#F79E1B"/>
<path d="M41.8566 23.8513V23.5566H41.9754V23.4966H41.6728V23.5566H41.7917V23.8513H41.8566ZM42.444 23.8513V23.496H42.3513L42.2446 23.7404L42.1379 23.496H42.0451V23.8513H42.1106V23.5833L42.2106 23.8143H42.2785L42.3786 23.5827V23.8513H42.444Z" fill="#F79E1B"/>
</svg>
