<svg width="24" height="25" viewBox="0 0 24 25" fill="none" xmlns="http://www.w3.org/2000/svg">
<path fill-rule="evenodd" clip-rule="evenodd" d="M10.1053 0.555664C4.52428 0.555664 0 5.07994 0 10.6609C0 16.2419 4.52428 20.7662 10.1053 20.7662C12.0568 20.7662 13.8792 20.213 15.4241 19.2548L20.0467 23.8774C20.9511 24.7818 22.4173 24.7818 23.3217 23.8774C24.2261 22.973 24.2261 21.5067 23.3217 20.6024L18.6991 15.9798C19.6573 14.4349 20.2105 12.6125 20.2105 10.6609C20.2105 5.07994 15.6862 0.555664 10.1053 0.555664ZM3.36842 10.6609C3.36842 6.94027 6.38461 3.92409 10.1053 3.92409C13.8259 3.92409 16.8421 6.94027 16.8421 10.6609C16.8421 14.3816 13.8259 17.3978 10.1053 17.3978C6.38461 17.3978 3.36842 14.3816 3.36842 10.6609Z" fill="#004DD1"/>
</svg>
