<svg width="55" height="36" viewBox="0 0 55 36" fill="none" xmlns="http://www.w3.org/2000/svg">
<path fill-rule="evenodd" clip-rule="evenodd" d="M11.8967 13.0812H8.76077C8.54618 13.0812 8.36367 13.2372 8.33021 13.4489L7.06188 21.4894C7.03667 21.6481 7.15956 21.7911 7.32051 21.7911H8.81762C9.03222 21.7911 9.21473 21.6351 9.24819 21.423L9.59027 19.2544C9.62327 19.042 9.80623 18.8862 10.0204 18.8862H11.0131C13.0788 18.8862 14.271 17.8867 14.5825 15.9061C14.7227 15.0396 14.5884 14.3587 14.1825 13.8817C13.7369 13.3583 12.9462 13.0812 11.8967 13.0812ZM12.2585 16.0179C12.087 17.143 11.2272 17.143 10.3959 17.143H9.9227L10.2547 15.0417C10.2744 14.9148 10.3844 14.8212 10.5128 14.8212H10.7297C11.296 14.8212 11.8303 14.8212 12.1063 15.144C12.2708 15.3366 12.3213 15.6226 12.2585 16.0179ZM21.2707 15.9818H19.769C19.641 15.9818 19.5305 16.0754 19.5107 16.2025L19.4443 16.6224L19.3393 16.4702C19.0142 15.9984 18.2893 15.8407 17.5657 15.8407C15.9061 15.8407 14.4889 17.0974 14.2128 18.8604C14.0694 19.7396 14.2733 20.5804 14.7722 21.1669C15.2299 21.706 15.8847 21.9307 16.6637 21.9307C18.0007 21.9307 18.7424 21.071 18.7424 21.071L18.6753 21.4883C18.6501 21.6479 18.7729 21.7909 18.9329 21.7909H20.2857C20.5008 21.7909 20.6823 21.6349 20.7162 21.4228L21.5279 16.2835C21.5535 16.1255 21.4311 15.9818 21.2707 15.9818ZM19.1774 18.9043C19.0324 19.7621 18.3515 20.3379 17.4832 20.3379C17.0471 20.3379 16.6985 20.1981 16.4748 19.9331C16.2529 19.67 16.1684 19.2953 16.2391 18.8782C16.3745 18.0276 17.0669 17.4331 17.922 17.4331C18.3483 17.4331 18.695 17.5746 18.9234 17.8419C19.1521 18.112 19.2429 18.4888 19.1774 18.9043ZM27.7595 15.9816H29.2686C29.4799 15.9816 29.6032 16.2186 29.4831 16.392L24.464 23.6359C24.3828 23.7533 24.2489 23.8231 24.1059 23.8231H22.5986C22.3864 23.8231 22.2625 23.5842 22.3854 23.4104L23.9482 21.2047L22.286 16.3272C22.2285 16.1577 22.3537 15.9816 22.5341 15.9816H24.0169C24.2096 15.9816 24.3796 16.1081 24.4352 16.2924L25.3173 19.2382L27.3987 16.1728C27.4802 16.0531 27.6156 15.9816 27.7595 15.9816Z" fill="#253B80"/>
<path fill-rule="evenodd" clip-rule="evenodd" d="M44.1217 21.4887L45.4087 13.3012C45.4284 13.1741 45.5386 13.0805 45.6665 13.0801H47.1154C47.2754 13.0801 47.3982 13.2235 47.373 13.3822L46.1038 21.4223C46.0707 21.6344 45.8882 21.7904 45.6733 21.7904H44.3793C44.2193 21.7904 44.0965 21.6474 44.1217 21.4887ZM34.2654 13.0805H31.1289C30.9148 13.0805 30.7323 13.2364 30.6988 13.4482L29.4305 21.4887C29.4052 21.6474 29.5281 21.7904 29.6883 21.7904H31.2976C31.4472 21.7904 31.5752 21.6813 31.5985 21.5328L31.9584 19.2536C31.9915 19.0413 32.1744 18.8855 32.3885 18.8855H33.3807C35.4469 18.8855 36.6388 17.886 36.9505 15.9054C37.0912 15.0388 36.956 14.358 36.5503 13.881C36.1049 13.3576 35.3149 13.0805 34.2654 13.0805ZM34.6272 16.0172C34.4561 17.1423 33.5963 17.1423 32.7645 17.1423H32.2917L32.6242 15.041C32.644 14.9141 32.7531 14.8205 32.8819 14.8205H33.0987C33.6646 14.8205 34.1994 14.8205 34.4752 15.1432C34.6399 15.3359 34.69 15.6219 34.6272 16.0172ZM43.6385 15.9811H42.1379C42.0089 15.9811 41.8994 16.0747 41.8801 16.2018L41.8136 16.6217L41.7082 16.4695C41.3831 15.9977 40.6587 15.84 39.9351 15.84C38.2755 15.84 36.8586 17.0967 36.5826 18.8596C36.4395 19.7389 36.6426 20.5797 37.1415 21.1662C37.6001 21.7053 38.254 21.93 39.033 21.93C40.3701 21.93 41.1115 21.0703 41.1115 21.0703L41.0446 21.4876C41.0194 21.6472 41.1423 21.7902 41.3033 21.7902H42.6554C42.8695 21.7902 43.052 21.6342 43.0856 21.422L43.8976 16.2828C43.9225 16.1247 43.7996 15.9811 43.6385 15.9811ZM41.5454 18.9036C41.4013 19.7614 40.7196 20.3372 39.851 20.3372C39.4158 20.3372 39.0665 20.1974 38.8427 19.9324C38.6207 19.6693 38.5373 19.2946 38.6071 18.8775C38.7432 18.0269 39.4347 17.4324 40.2899 17.4324C40.7164 17.4324 41.0629 17.5739 41.2914 17.8412C41.521 18.1113 41.6118 18.4881 41.5454 18.9036Z" fill="#179BD7"/>
</svg>
