<svg width="16" height="17" viewBox="0 0 16 17" fill="none" xmlns="http://www.w3.org/2000/svg">
<path d="M5.38299 13.5834C6.48923 14.7417 8.25753 13.8722 6.83274 15.9035C5.69338 17.5293 4.11083 15.7455 3.63005 14.5693C4.44998 14.4247 5.12552 13.8613 5.38299 13.5834Z" fill="#004DD1"/>
<path d="M4.40466 4.5464C3.58506 7.18654 2.90196 8.15152 2.24503 8.5922C1.5881 9.03288 -1.14483 10.3594 0.540978 12.8391C1.88963 14.8229 3.99778 13.9205 4.8818 13.2211C2.82197 11.9171 2.50515 10.318 2.63179 9.53629C3.54009 11.9041 4.95063 12.4781 5.53873 12.7804C6.75192 12.22 7.17738 12.1892 9.37736 12.4237C13.1957 12.8306 10.9955 8.61316 9.60545 6.56849C8.3337 4.69784 5.22427 1.90626 4.40466 4.5464ZM10.1113 11.0176C9.69655 11.3266 8.22013 10.698 6.89691 8.75164C5.5737 6.80529 5.23787 5.24964 5.75632 4.94064C6.27477 4.63164 7.6481 5.46716 8.97072 7.41264C10.2933 9.35812 10.5261 10.7086 10.1113 11.0176Z" fill="#004DD1"/>
<path fill-rule="evenodd" clip-rule="evenodd" d="M14.7317 3.13986C14.9502 3.48734 14.8538 3.95294 14.5165 4.1798L11.5555 6.17125C11.2182 6.39811 10.7677 6.30033 10.5492 5.95285C10.3307 5.60537 10.4271 5.13978 10.7644 4.91291L13.7254 2.92147C14.0627 2.6946 14.5133 2.79238 14.7317 3.13986Z" fill="#004DD1"/>
<path fill-rule="evenodd" clip-rule="evenodd" d="M15.9493 7.8549C15.9557 8.25956 15.6307 8.59192 15.2234 8.59724L12.1306 8.63769C11.7233 8.64301 11.3879 8.31929 11.3816 7.91463C11.3752 7.50998 11.7002 7.17762 12.1075 7.17229L15.2003 7.13185C15.6076 7.12652 15.943 7.45025 15.9493 7.8549Z" fill="#004DD1"/>
<path fill-rule="evenodd" clip-rule="evenodd" d="M10.9079 0.614544C11.2625 0.77247 11.4267 1.19922 11.2748 1.56771L10.2742 3.99431C10.1222 4.3628 9.71163 4.5335 9.35708 4.37557C9.00253 4.21765 8.8383 3.7909 8.99024 3.42241L9.99085 0.995811C10.1428 0.627317 10.5534 0.456618 10.9079 0.614544Z" fill="#004DD1"/>
</svg>
