<svg width="190" height="52" viewBox="0 0 190 52" fill="none" xmlns="http://www.w3.org/2000/svg">
<path d="M186.011 47.2998C183.37 49.9411 180.108 51.2358 176.275 51.2358C172.443 51.2358 169.18 49.9411 166.539 47.2998C163.898 44.6586 162.603 41.396 162.603 37.5636C162.603 33.7313 163.898 30.5203 166.539 27.8791C169.18 25.2379 172.443 23.8914 176.275 23.8914C180.108 23.8914 183.37 25.2379 186.011 27.8791C188.653 30.5203 189.999 33.7313 189.999 37.5636C189.999 41.396 188.653 44.6586 186.011 47.2998ZM171.252 42.6906C172.598 44.0371 174.255 44.7104 176.275 44.7104C178.295 44.7104 179.952 44.0371 181.299 42.6906C182.645 41.3441 183.318 39.6352 183.318 37.5636C183.318 35.4921 182.645 33.783 181.299 32.4365C179.952 31.09 178.295 30.4168 176.275 30.4168C174.255 30.4168 172.598 31.09 171.252 32.4365C169.957 33.783 169.284 35.4921 169.284 37.5636C169.284 39.6352 169.957 41.3441 171.252 42.6906Z" fill="white"/>
<path d="M161.087 13.5348V19.9566C157.41 19.6976 155.398 21.1477 155.398 24.3586V24.6176H161.087V31.0394H155.398V50.5119H148.717V31.0394H143.841V27.1034C143.841 25.7305 144.954 24.6176 146.327 24.6176H148.717V24.3586C148.717 17.0564 153.008 13.0687 161.087 13.5348Z" fill="white"/>
<path d="M131.464 23.8914C134.312 23.8914 136.643 24.8236 138.455 26.7398C140.32 28.656 141.252 31.2454 141.252 34.6116V50.5107H134.571V35.4402C134.571 31.9704 132.551 30.106 129.444 30.106C125.974 30.106 123.747 32.2294 123.747 36.5278V50.5107H117.067V30.7091C117.067 30.4158 117.361 30.2021 117.647 30.2638C118.372 30.4196 119.653 30.5612 120.784 29.9957C122.475 29.1503 122.479 27.8821 123.747 26.1913C125.016 24.5004 127.942 23.8914 131.464 23.8914Z" fill="white"/>
<path d="M112.612 50.5115H105.569V24.095C105.569 23.6393 106.281 23.4625 106.546 23.8328C107.665 25.3924 109.233 26.5083 111.261 26.8509C112 26.9758 112.612 27.5691 112.612 28.3186V50.5115Z" fill="white"/>
<path d="M100.479 24.6165V31.0382H94.6269V41.8103C94.6269 44.6069 96.6466 44.6586 100.479 44.4515V50.5107C91.3124 51.5465 87.9461 48.9053 87.9461 41.8103V31.0382H83.4405V24.6165H87.9461V21.8464C87.9461 20.3853 88.9029 19.0966 90.3014 18.6737L94.6269 17.366V24.6165H100.479Z" fill="white"/>
<path d="M81.5033 40.3084H61.979C62.8594 43.5711 65.2935 45.1765 69.2812 45.1765C71.8189 45.1765 73.7868 44.2961 75.0815 42.5871L80.4675 45.6944C77.9299 49.3714 74.1493 51.2358 69.1776 51.2358C64.8792 51.2358 61.4611 49.9411 58.8717 47.3517C56.2823 44.7622 54.9876 41.4995 54.9876 37.5636C54.9876 33.6795 56.2823 30.4168 58.8199 27.8273C61.3576 25.1861 64.672 23.8914 68.6597 23.8914C72.4403 23.8914 75.5994 25.1861 78.0335 27.8273C80.5193 30.4686 81.7623 33.6795 81.7623 37.5636C81.7623 38.444 81.6587 39.3244 81.5033 40.3084ZM61.8754 35.1295H75.0815C74.3047 31.6079 71.7153 29.8989 68.6597 29.8989C65.0863 29.8989 62.6523 31.8151 61.8754 35.1295Z" fill="white"/>
<path d="M51.1869 50.9116L43.8125 50.9891V37.5636C45.9814 31.608 45.5503 29.8989 46.849 27.487C47.844 25.6392 49.8606 25.1277 50.7494 24.9894C50.9873 24.9524 51.1869 25.141 51.1869 25.3818V50.9116Z" fill="white"/>
<path d="M117.169 22.7161C119.12 24.7357 122.237 23.2195 119.725 26.7616C117.717 29.5965 114.927 26.4861 114.079 24.4352C115.525 24.183 116.715 23.2006 117.169 22.7161Z" fill="white"/>
<path d="M115.445 6.95817C114 11.5618 112.796 13.2444 111.637 14.0128C110.479 14.7813 105.661 17.0944 108.633 21.4182C111.011 24.8773 114.727 23.3039 116.286 22.0842C112.655 19.8105 112.096 17.0221 112.319 15.659C113.921 19.7878 116.407 20.7888 117.444 21.3158C119.583 20.3386 120.333 20.2849 124.211 20.6938C130.942 21.4033 127.064 14.0494 124.613 10.4841C122.371 7.22224 116.89 2.35456 115.445 6.95817ZM125.505 18.2421C124.774 18.7809 122.171 17.6847 119.838 14.2908C117.506 10.897 116.914 8.18441 117.828 7.64561C118.741 7.10681 121.163 8.5637 123.494 11.956C125.826 15.3484 126.236 17.7033 125.505 18.2421Z" fill="white"/>
<path d="M38.1169 16.1354C42.1751 8.42179 47.8803 7.91849 54.4821 8.42259C44.2127 15.5722 44.1481 23.9577 42.1751 30.7155C39.3462 40.4044 38.0755 45.0265 33.1853 46.5735C30.258 47.4995 27.1377 46.1714 25.4805 43.6856C35.4239 29.1848 33.4031 25.0953 38.1169 16.1354Z" fill="white"/>
<path d="M24.8179 44.9648C28.5888 49.6355 33.4569 48.2072 34.5948 47.2071C29.9621 53.2077 16.5218 54.7231 11.8078 40.3711C8.0366 28.8894 7.23355 25.5224 0 23.5916C19.0582 19.8643 17.2625 35.6067 24.8179 44.9648Z" fill="white"/>
<path fill-rule="evenodd" clip-rule="evenodd" d="M133.658 4.5051C134.043 5.111 133.873 5.92286 133.278 6.31844L128.058 9.79093C127.464 10.1865 126.67 10.016 126.284 9.41011C125.899 8.80421 126.069 7.99235 126.664 7.59677L131.884 4.12428C132.479 3.7287 133.273 3.8992 133.658 4.5051Z" fill="white"/>
<path fill-rule="evenodd" clip-rule="evenodd" d="M135.801 12.7261C135.813 13.4317 135.24 14.0113 134.522 14.0206L129.069 14.0911C128.351 14.1004 127.76 13.5359 127.749 12.8303C127.738 12.1247 128.311 11.5452 129.029 11.5359L134.481 11.4653C135.199 11.4561 135.79 12.0205 135.801 12.7261Z" fill="white"/>
<path fill-rule="evenodd" clip-rule="evenodd" d="M126.914 0.102668C127.539 0.378044 127.829 1.12216 127.561 1.76471L125.797 5.99596C125.529 6.6385 124.805 6.93615 124.18 6.66078C123.555 6.3854 123.266 5.64128 123.533 4.99874L125.297 0.767483C125.565 0.124941 126.289 -0.172707 126.914 0.102668Z" fill="white"/>
</svg>
