<svg width="55" height="36" viewBox="0 0 55 36" fill="none" xmlns="http://www.w3.org/2000/svg">
<rect x="0.609375" y="0.0820312" width="54.392" height="35.041" rx="6.276" fill="white"/>
<path d="M14.0241 22.8575C14.0241 23.3466 14.3735 23.4031 14.6842 23.4031C16.0554 23.4031 16.505 22.3692 16.505 21.4234C16.505 20.2373 15.7439 19.3806 14.5192 19.3806C14.2589 19.3806 14.139 19.3988 14.0241 19.4057V22.8575ZM13.4026 19.881C13.4026 19.3104 13.104 19.348 12.8191 19.3416V19.1776C13.066 19.1891 13.3199 19.1891 13.5676 19.1891C13.834 19.1891 14.1959 19.1776 14.6657 19.1776C16.3085 19.1776 17.2035 20.2745 17.2035 21.3984C17.2035 22.0266 16.8358 23.6065 14.5894 23.6065C14.2665 23.6065 13.9672 23.5943 13.6693 23.5943C13.3836 23.5943 13.104 23.6008 12.8191 23.6065V23.441C13.1988 23.4031 13.3836 23.3905 13.4026 22.9592V19.881Z" fill="#231F20"/>
<path d="M18.1053 19.7295C17.9396 19.7295 17.7939 19.5769 17.7939 19.4122C17.7939 19.2533 17.9461 19.1068 18.1053 19.1068C18.2697 19.1068 18.4165 19.2404 18.4165 19.4122C18.4165 19.5834 18.2765 19.7295 18.1053 19.7295ZM17.4259 23.4412H17.5466C17.7241 23.4412 17.8508 23.4412 17.8508 23.231V21.5123C17.8508 21.2331 17.7563 21.1948 17.5207 21.0687V20.9671C17.8194 20.8775 18.1745 20.758 18.2003 20.7379C18.2447 20.7132 18.2822 20.7068 18.3145 20.7068C18.3459 20.7068 18.3584 20.7444 18.3584 20.7952V23.231C18.3584 23.4412 18.4988 23.4412 18.6756 23.4412H18.7838V23.6066C18.5679 23.6066 18.3459 23.5941 18.1176 23.5941C17.8891 23.5941 17.6607 23.6005 17.4259 23.6066V23.4412Z" fill="#231F20"/>
<path d="M19.3867 21.55C19.3867 21.3159 19.3169 21.2522 19.0191 21.1323V21.0109C19.2915 20.9222 19.5513 20.839 19.8564 20.7066C19.8754 20.7066 19.8939 20.7192 19.8939 20.7692V21.1828C20.2563 20.9222 20.5675 20.7066 20.9928 20.7066C21.5318 20.7066 21.7223 21.0997 21.7223 21.5948V23.2312C21.7223 23.4414 21.8624 23.4414 22.0395 23.4414H22.1537V23.6064C21.931 23.6064 21.7091 23.5943 21.4814 23.5943C21.2526 23.5943 21.0242 23.6007 20.7958 23.6064V23.4414H20.91C21.088 23.4414 21.2139 23.4414 21.2139 23.2312V21.5888C21.2139 21.2264 20.9928 21.0492 20.6304 21.0492C20.4274 21.0492 20.1041 21.2139 19.8939 21.3538V23.2312C19.8939 23.4414 20.0347 23.4414 20.2122 23.4414H20.3265V23.6064C20.1041 23.6064 19.8814 23.5943 19.6527 23.5943C19.425 23.5943 19.1963 23.6007 18.9678 23.6064V23.4414H19.0828C19.26 23.4414 19.3867 23.4414 19.3867 23.2312V21.55Z" fill="#231F20"/>
<path d="M23.7599 21.6517C23.9177 21.6517 23.9363 21.5695 23.9363 21.4936C23.9363 21.1692 23.7398 20.9093 23.3847 20.9093C22.998 20.9093 22.7314 21.1946 22.6551 21.6517H23.7599ZM22.6365 21.8555C22.6232 21.9124 22.6232 22.0073 22.6365 22.2231C22.6737 22.8264 23.0614 23.3212 23.5686 23.3212C23.9177 23.3212 24.1917 23.1303 24.4257 22.8959L24.5146 22.9846C24.2224 23.3717 23.8613 23.7013 23.341 23.7013C22.3314 23.7013 22.1288 22.7244 22.1288 22.3184C22.1288 21.0747 22.9662 20.7067 23.4097 20.7067C23.9241 20.7067 24.477 21.03 24.4826 21.7022C24.4826 21.7414 24.4826 21.7789 24.477 21.8172L24.4189 21.8555H22.6365Z" fill="#231F20"/>
<path d="M24.6285 23.4412H24.8004C24.9779 23.4412 25.1039 23.4412 25.1039 23.231V21.4486C25.1039 21.2525 24.8698 21.2141 24.7746 21.1629V21.0688C25.2373 20.8715 25.492 20.7069 25.5493 20.7069C25.5869 20.7069 25.6058 20.725 25.6058 20.7892V21.3598H25.6195C25.7773 21.1128 26.044 20.7069 26.4311 20.7069C26.5896 20.7069 26.7922 20.8139 26.7922 21.0427C26.7922 21.2141 26.6727 21.367 26.4944 21.367C26.2971 21.367 26.2971 21.2141 26.0756 21.2141C25.9678 21.2141 25.6123 21.3598 25.6123 21.7415V23.231C25.6123 23.4412 25.739 23.4412 25.9166 23.4412H26.272V23.6067C25.923 23.6006 25.6571 23.5941 25.3843 23.5941C25.1236 23.5941 24.8573 23.6006 24.6285 23.6067V23.4412Z" fill="#231F20"/>
<path d="M27.0713 22.7245C27.1544 23.143 27.4082 23.4988 27.8716 23.4988C28.2455 23.4988 28.3845 23.2701 28.3845 23.0481C28.3845 22.2996 27.0023 22.5397 27.0023 21.5187C27.0023 21.1629 27.288 20.7068 27.9861 20.7068C28.1887 20.7068 28.4615 20.7637 28.7089 20.8904L28.7536 21.5377H28.608C28.5446 21.1382 28.3218 20.909 27.9159 20.909C27.6617 20.909 27.4211 21.0554 27.4211 21.3283C27.4211 22.0712 28.8929 21.8423 28.8929 22.8387C28.8929 23.2571 28.5567 23.7014 27.802 23.7014C27.5471 23.7014 27.2493 23.613 27.0273 23.4864L26.9575 22.7563L27.0713 22.7245Z" fill="#231F20"/>
<path d="M34.6229 20.3255H34.4643C34.344 19.5834 33.817 19.2852 33.1071 19.2852C32.3764 19.2852 31.3163 19.7734 31.3163 21.2957C31.3163 22.5784 32.2319 23.4988 33.2081 23.4988C33.8363 23.4988 34.3569 23.0675 34.484 22.4008L34.6294 22.4384L34.484 23.3653C34.2173 23.5307 33.4995 23.7014 33.0806 23.7014C31.596 23.7014 30.6576 22.7435 30.6576 21.3158C30.6576 20.0148 31.8183 19.0817 33.0623 19.0817C33.5765 19.0817 34.0709 19.2468 34.5595 19.4179L34.6229 20.3255Z" fill="#231F20"/>
<path d="M34.8512 23.4412H34.9723C35.1502 23.4412 35.2772 23.4412 35.2772 23.231V19.6984C35.2772 19.2852 35.182 19.2723 34.9407 19.2029V19.1012C35.1942 19.0186 35.461 18.9052 35.5944 18.828C35.6639 18.7901 35.7151 18.7578 35.7338 18.7578C35.7724 18.7578 35.7845 18.7961 35.7845 18.8473V23.231C35.7845 23.4412 35.9246 23.4412 36.1022 23.4412H36.2099V23.6067C35.9951 23.6067 35.7724 23.5941 35.5433 23.5941C35.3156 23.5941 35.0872 23.6006 34.8512 23.6067V23.4412Z" fill="#231F20"/>
<path d="M38.9264 23.257C38.9264 23.3721 38.9954 23.3777 39.1038 23.3777C39.1794 23.3777 39.2755 23.3721 39.3581 23.3721V23.5055C39.0841 23.5306 38.5644 23.6638 38.4429 23.7017L38.4119 23.6828V23.1694C38.0317 23.4801 37.7388 23.7017 37.2877 23.7017C36.9455 23.7017 36.5908 23.4801 36.5908 22.9475V21.3225C36.5908 21.157 36.5649 20.998 36.2105 20.967V20.8463C36.4393 20.8395 36.9455 20.8023 37.0285 20.8023C37.0992 20.8023 37.0992 20.8463 37.0992 20.9859V22.6227C37.0992 22.8128 37.0992 23.3587 37.6507 23.3587C37.8659 23.3587 38.1516 23.1933 38.418 22.9729V21.2644C38.418 21.138 38.1137 21.0686 37.8856 21.0046V20.8903C38.4567 20.852 38.8126 20.8023 38.8754 20.8023C38.9264 20.8023 38.9264 20.8463 38.9264 20.9165V23.257Z" fill="#231F20"/>
<path d="M40.1885 22.8893C40.1885 23.1306 40.417 23.5366 40.8426 23.5366C41.5222 23.5366 41.8075 22.8699 41.8075 22.305C41.8075 21.6202 41.287 21.0492 40.7921 21.0492C40.5561 21.0492 40.3601 21.2017 40.1885 21.3482V22.8893ZM40.1885 21.163C40.4423 20.9478 40.7858 20.707 41.1345 20.707C41.8705 20.707 42.3147 21.3482 42.3147 22.0391C42.3147 22.8699 41.7058 23.7016 40.7975 23.7016C40.3278 23.7016 40.0811 23.5495 39.9157 23.48L39.7256 23.6253L39.5928 23.5559C39.6486 23.1819 39.6808 22.8131 39.6808 22.4264V19.6984C39.6808 19.2853 39.586 19.272 39.3447 19.2026V19.101C39.5993 19.0186 39.8648 18.9052 39.9984 18.8278C40.0679 18.7902 40.1187 18.758 40.1384 18.758C40.1764 18.758 40.1885 18.7962 40.1885 18.8475V21.163Z" fill="#231F20"/>
<path d="M12.8119 27.2957H12.8602C12.9842 27.2957 13.1158 27.2794 13.1158 27.0992V25.2906C13.1158 25.1104 12.9842 25.094 12.8602 25.094H12.8119V24.9889C12.947 24.9889 13.1538 25.0033 13.3234 25.0033C13.496 25.0033 13.7028 24.9889 13.8648 24.9889V25.094H13.8166C13.6925 25.094 13.5609 25.1104 13.5609 25.2906V27.0992C13.5609 27.2794 13.6925 27.2957 13.8166 27.2957H13.8648V27.4C13.6993 27.4 13.4918 27.3864 13.3196 27.3864C13.15 27.3864 12.947 27.4 12.8119 27.4V27.2957Z" fill="#231F20"/>
<path d="M13.85 27.3851L13.8504 27.3115H13.817C13.6938 27.3115 13.5465 27.2899 13.5458 27.0991V25.2904C13.5465 25.0996 13.6938 25.0783 13.817 25.0783H13.85V25.0052C13.6907 25.0052 13.4908 25.0184 13.3235 25.0184C13.1596 25.0184 12.9607 25.0054 12.8272 25.0052V25.0783H12.8601C12.9831 25.0783 13.1303 25.0996 13.1303 25.2904V27.0991C13.1303 27.2899 12.9831 27.3115 12.8601 27.3115H12.8272V27.3851C12.9607 27.3832 13.1561 27.3711 13.3197 27.3711C13.4877 27.3711 13.6877 27.384 13.85 27.3851ZM13.8648 27.4148C13.6983 27.4148 13.4912 27.4011 13.3197 27.4011C13.1505 27.4011 12.9475 27.4148 12.812 27.4148H12.7969V27.2816H12.8601C12.9854 27.2785 13.0996 27.2683 13.1004 27.0991V25.2904C13.0996 25.1216 12.9854 25.1102 12.8601 25.108H12.7969V24.9752H12.812C12.9475 24.9752 13.1542 24.9884 13.3235 24.9884C13.4953 24.9884 13.7018 24.9752 13.8648 24.9752H13.88V25.108H13.817C13.6915 25.1102 13.5765 25.1216 13.5762 25.2904V27.0991C13.5765 27.2683 13.6915 27.2785 13.817 27.2816H13.88V27.4148H13.8648Z" fill="#231F20"/>
<path d="M16.2373 26.7196L16.2441 26.7128V25.4179C16.2441 25.1349 16.0472 25.0938 15.9433 25.0938H15.8678V24.9892C16.0297 24.9892 16.1891 25.0032 16.3512 25.0032C16.4922 25.0032 16.6346 24.9892 16.7753 24.9892V25.0938H16.7245C16.5788 25.0938 16.416 25.1208 16.416 25.5317V27.1032C16.416 27.2239 16.4201 27.3445 16.4372 27.4515H16.306L14.5277 25.4699V26.8918C14.5277 27.1931 14.5861 27.2955 14.8521 27.2955H14.9105V27.3999C14.7626 27.3999 14.6138 27.3862 14.4651 27.3862C14.3106 27.3862 14.1513 27.3999 13.9961 27.3999V27.2955H14.0443C14.2826 27.2955 14.3555 27.1343 14.3555 26.8577V25.4038C14.3555 25.2104 14.1957 25.0938 14.0409 25.0938H13.9961V24.9892C14.1267 24.9892 14.2617 25.0032 14.3926 25.0032C14.4965 25.0032 14.5971 24.9892 14.7003 24.9892L16.2373 26.7196Z" fill="#231F20"/>
<path d="M16.2291 26.7126V26.7114L16.226 26.7092L16.2291 26.7126ZM16.3057 27.4365H16.4203C16.4047 27.3329 16.402 27.2175 16.402 27.1034V25.5315C16.402 25.1172 16.5755 25.0785 16.7242 25.0785H16.7606V25.0049C16.6244 25.0056 16.4882 25.0185 16.3513 25.0185C16.1931 25.0185 16.0389 25.0056 15.8827 25.0049V25.0785H15.943C16.0496 25.0785 16.2587 25.1255 16.2587 25.4181L16.2544 26.7233L16.2473 26.7297L16.2355 26.7407L14.7005 25.0049C14.5976 25.0049 14.4975 25.0185 14.3928 25.0185C14.2664 25.0185 14.1362 25.0056 14.0111 25.0049L14.0107 25.0785H14.041C14.203 25.0785 14.37 25.2022 14.37 25.404V26.8579C14.37 27.1345 14.2929 27.3105 14.0445 27.3117L14.0111 27.3105V27.3852C14.1605 27.3834 14.3142 27.3709 14.4652 27.3709C14.6098 27.3709 14.7532 27.3834 14.8954 27.3852V27.3117H14.8518C14.5802 27.3105 14.5126 27.1929 14.5126 26.892V25.431L16.3057 27.4365ZM16.437 27.4669L16.2947 27.4615L14.5422 25.5088V26.892C14.5467 27.1929 14.5923 27.2779 14.8518 27.2817H14.9262V27.4145H14.9106C14.7615 27.4145 14.6128 27.4012 14.4652 27.4012C14.3111 27.4012 14.1526 27.4145 13.9955 27.4145H13.9803V27.2817H14.0445C14.2728 27.2798 14.3378 27.1334 14.3407 26.8579V25.404C14.34 25.2204 14.189 25.1084 14.041 25.108H13.9803V24.975H13.9955C14.1278 24.975 14.2626 24.9886 14.3928 24.9886C14.4952 24.9886 14.5954 24.975 14.7118 24.9803L16.2291 26.688V25.4181C16.2272 25.1433 16.0443 25.1104 15.943 25.108H15.8519V24.975H15.8675C16.0303 24.975 16.1896 24.9886 16.3513 24.9886C16.4913 24.9886 16.6331 24.975 16.7754 24.975H16.7909V25.108H16.7242C16.5812 25.1123 16.4355 25.1252 16.4313 25.5315V27.1034C16.4313 27.2233 16.4347 27.3439 16.4514 27.4494L16.4545 27.4669H16.437Z" fill="#231F20"/>
<path d="M17.2924 25.1621C17.0333 25.1621 17.0238 25.2243 16.9715 25.4762H16.8683C16.8823 25.3799 16.8989 25.2831 16.91 25.1826C16.9233 25.0862 16.9304 24.9891 16.9304 24.8897H17.0136C17.0413 24.9932 17.1273 24.9891 17.2207 24.9891H19.0024C19.0954 24.9891 19.1819 24.986 19.1891 24.8825L19.271 24.8969C19.2584 24.9891 19.2444 25.0828 19.2338 25.1761C19.2266 25.269 19.2266 25.3628 19.2266 25.4558L19.1234 25.4944C19.1166 25.3661 19.0987 25.1621 18.8677 25.1621H18.3016V26.9991C18.3016 27.2659 18.4227 27.2958 18.5881 27.2958H18.6533V27.3998C18.5191 27.3998 18.2769 27.3862 18.0907 27.3862C17.8839 27.3862 17.6415 27.3998 17.5068 27.3998V27.2958H17.5725C17.7629 27.2958 17.8588 27.2792 17.8588 27.0067V25.1621H17.2924Z" fill="#231F20"/>
<path d="M18.6541 27.4146C18.5179 27.4146 18.2762 27.4009 18.0907 27.4009C17.884 27.4009 17.643 27.4146 17.5068 27.4146H17.4924V27.2814H17.5728C17.7633 27.2769 17.8399 27.2746 17.8437 27.0066V25.1768H17.2924V25.1476H17.8741V27.0066C17.8741 27.2833 17.7625 27.3118 17.5728 27.3118H17.5219V27.3846C17.6586 27.3834 17.8903 27.371 18.0907 27.371C18.2709 27.371 18.5016 27.3834 18.6382 27.3846V27.3118H18.5881C18.4211 27.3118 18.2861 27.2711 18.2861 26.9991V25.1476H18.8677C19.0996 25.148 19.1299 25.3445 19.1372 25.4728L19.2126 25.4451C19.2126 25.3556 19.213 25.2653 19.2187 25.1737C19.2285 25.0857 19.2415 24.9974 19.2544 24.909L19.202 24.9002C19.1849 25.0004 19.0881 25.0061 19.002 25.005H17.2029C17.1213 25.005 17.0332 25.0008 17.0026 24.9048H16.9449C16.9449 25.0004 16.938 25.0926 16.9244 25.1852C16.9145 25.2797 16.8994 25.371 16.8864 25.4613H16.9601C17.006 25.2216 17.0352 25.1434 17.2924 25.1476V25.1768C17.0375 25.1821 17.0432 25.2246 16.9862 25.48L16.9844 25.4917H16.8508L16.853 25.4739C16.8664 25.3776 16.8846 25.2808 16.8952 25.1803C16.9088 25.0847 16.9156 24.9886 16.9156 24.8896V24.8745H17.0254L17.0276 24.8854C17.0515 24.9727 17.1149 24.9731 17.2029 24.975H19.002C19.0976 24.9731 19.1682 24.9716 19.1739 24.8812L19.175 24.8653L19.1906 24.8684L19.2877 24.8835L19.2862 24.8983C19.2725 24.9913 19.2589 25.0847 19.249 25.1768C19.2419 25.2694 19.2419 25.3628 19.2419 25.4557V25.4662L19.232 25.4705L19.1095 25.5153L19.1091 25.4943C19.0996 25.365 19.0859 25.1768 18.8677 25.1768H18.3165V26.9991C18.3199 27.2597 18.4234 27.278 18.5881 27.2814H18.6682V27.4146H18.6541Z" fill="#231F20"/>
<path d="M19.382 27.2957H19.4302C19.5542 27.2957 19.6855 27.2794 19.6855 27.0992V25.2906C19.6855 25.1104 19.5542 25.094 19.4302 25.094H19.382V24.9889C19.5918 24.9889 19.9522 25.0033 20.2414 25.0033C20.532 25.0033 20.8906 24.9889 21.1246 24.9889C21.1189 25.138 21.1223 25.3664 21.1326 25.5182L21.0283 25.5459C21.0119 25.3216 20.9702 25.1422 20.6075 25.1422H20.1287V26.0459H20.5384C20.7459 26.0459 20.7911 25.9295 20.8112 25.7428H20.9144C20.908 25.8774 20.9042 26.0118 20.9042 26.1465C20.9042 26.2781 20.908 26.409 20.9144 26.5399L20.8112 26.5608C20.7911 26.3536 20.7804 26.219 20.5419 26.219H20.1287V27.0233C20.1287 27.2479 20.3282 27.2479 20.5486 27.2479C20.9637 27.2479 21.1462 27.2202 21.2498 26.8267L21.3462 26.8511C21.3014 27.0346 21.26 27.2164 21.2289 27.4C21.0085 27.4 20.6109 27.3864 20.3001 27.3864C19.989 27.3864 19.5785 27.4 19.382 27.4V27.2957Z" fill="#231F20"/>
<path d="M21.2164 27.3846C21.246 27.2104 21.2855 27.0359 21.3284 26.8621L21.26 26.845C21.1564 27.2317 20.9565 27.2658 20.5486 27.2628C20.3309 27.2628 20.1135 27.2628 20.1123 27.0234V26.2042H20.5419C20.7831 26.2012 20.807 26.3473 20.8241 26.5438L20.8989 26.5282C20.8928 26.4011 20.8894 26.2729 20.8894 26.1466C20.8894 26.0172 20.8928 25.8878 20.8989 25.7568H20.8241C20.8052 25.9375 20.7494 26.0634 20.538 26.0612H20.1123V25.1263H20.6075C20.9668 25.1244 21.0267 25.31 21.0415 25.5262L21.1159 25.5061C21.1102 25.4086 21.1068 25.2845 21.1068 25.1692C21.1068 25.1089 21.1079 25.0538 21.1094 25.005C20.875 25.0056 20.5251 25.0186 20.2414 25.0186C19.9579 25.0186 19.6082 25.0056 19.3968 25.005V25.0785H19.4302C19.5534 25.0785 19.7003 25.0998 19.7011 25.2902V27.0993C19.7003 27.2897 19.5534 27.3102 19.4302 27.3117H19.3968V27.3846C19.5975 27.3838 19.997 27.3709 20.3001 27.3709C20.6048 27.3709 20.9933 27.3838 21.2164 27.3846ZM21.2289 27.4146C21.0074 27.4146 20.6105 27.4005 20.3001 27.4005C19.989 27.4005 19.5793 27.4146 19.382 27.4146H19.3668V27.2818H19.4302C19.555 27.2795 19.6692 27.2681 19.6704 27.0993V25.2902C19.6692 25.1222 19.555 25.1107 19.4302 25.1078H19.3668V24.975H19.382C19.5922 24.975 19.9522 24.9886 20.2414 24.9886C20.5312 24.9886 20.8898 24.975 21.1246 24.975H21.1402V24.9902C21.1371 25.0421 21.136 25.1032 21.136 25.1692C21.136 25.288 21.1402 25.4185 21.1466 25.5167V25.5292L21.1356 25.5327L21.0142 25.5645L21.0138 25.5464C20.9933 25.3229 20.9637 25.1597 20.6075 25.1567H20.1423V26.0308H20.538C20.7376 26.0293 20.7726 25.9272 20.796 25.741L20.7976 25.7277H20.9304V25.7428C20.9232 25.8775 20.919 26.0119 20.919 26.1466C20.919 26.2771 20.9232 26.4083 20.9304 26.54V26.5518L20.9179 26.5548L20.7976 26.5783L20.796 26.5624C20.7726 26.3518 20.7714 26.2365 20.5419 26.2338L20.1423 26.233V27.0234C20.1427 27.2332 20.3233 27.2321 20.5486 27.2332C20.9649 27.2309 21.1311 27.2104 21.235 26.8226L21.2385 26.8086L21.2533 26.8116L21.3637 26.8401L21.3606 26.8545C21.3159 27.0367 21.2748 27.2199 21.2438 27.402L21.2414 27.4146H21.2289Z" fill="#231F20"/>
<path d="M22.2547 26.1565H22.4233C22.7689 26.1565 22.9551 26.026 22.9551 25.6182C22.9551 25.3115 22.7582 25.1139 22.451 25.1139C22.3465 25.1139 22.3025 25.1249 22.2547 25.128V26.1565ZM21.8126 25.3556C21.8126 25.1032 21.6746 25.0937 21.5676 25.0937H21.5046V24.9891C21.615 24.9891 21.8294 25.0031 22.0403 25.0031C22.2467 25.0031 22.4129 24.9891 22.5965 24.9891C23.0306 24.9891 23.4173 25.1067 23.4173 25.5976C23.4173 25.908 23.2108 26.0976 22.9381 26.2058L23.5288 27.0887C23.6252 27.2351 23.6935 27.2757 23.8631 27.2958V27.3998C23.7492 27.3998 23.6388 27.3862 23.525 27.3862C23.4173 27.3862 23.3072 27.3998 23.2002 27.3998C22.9346 27.0516 22.7063 26.6782 22.482 26.2805H22.2547V27.0196C22.2547 27.2864 22.3784 27.2958 22.537 27.2958H22.6V27.3998C22.4023 27.3998 22.2024 27.3862 22.0054 27.3862C21.84 27.3862 21.6776 27.3998 21.5046 27.3998V27.2958H21.5676C21.6944 27.2958 21.8126 27.2378 21.8126 27.1095V25.3556Z" fill="#231F20"/>
<path d="M22.4234 26.1418C22.7648 26.1384 22.9374 26.02 22.9404 25.6186C22.939 25.3174 22.7512 25.1303 22.4507 25.1284C22.3573 25.1284 22.3136 25.1368 22.2696 25.1417V26.1418H22.4234ZM22.4234 26.171H22.2393V25.1136L22.2522 25.1125C22.2996 25.1087 22.3459 25.0996 22.4507 25.0996C22.7648 25.0996 22.9696 25.304 22.9704 25.6186C22.9693 26.0306 22.7713 26.171 22.4234 26.171ZM22.2393 26.2658H22.4901L22.4942 26.2734C22.7189 26.6707 22.9462 27.0433 23.2003 27.3851C23.3058 27.3851 23.417 27.3711 23.524 27.3711C23.6344 27.3711 23.7411 27.3828 23.8484 27.3844V27.3085C23.686 27.2891 23.6105 27.2406 23.5164 27.0975L22.915 26.1983L22.9324 26.1911C23.2026 26.0849 23.4026 25.9005 23.403 25.5969C23.4026 25.1185 23.03 25.0066 22.5967 25.0052C22.4142 25.0052 22.2476 25.0184 22.0404 25.0184C21.8367 25.0184 21.6325 25.0054 21.5195 25.0052V25.0787H21.5673C21.6744 25.0787 21.8265 25.0961 21.8265 25.3557V27.1096C21.8265 27.2486 21.6974 27.3115 21.5673 27.3115H21.5195V27.3844C21.6861 27.384 21.8427 27.3711 22.0048 27.3711C22.1982 27.3711 22.393 27.384 22.5841 27.3844V27.3115H22.5371C22.3796 27.3115 22.2393 27.2922 22.2393 27.0197V26.2658ZM23.8632 27.4144C23.7475 27.4144 23.6378 27.4011 23.524 27.4011C23.4192 27.4011 23.3085 27.4144 23.1878 27.4094C22.9238 27.0615 22.6968 26.6908 22.4735 26.2958H22.2696V27.0197C22.2731 27.2797 22.3774 27.2773 22.5371 27.2816H22.6145V27.4144H22.5989C22.4012 27.4144 22.2006 27.4011 22.0048 27.4011C21.8398 27.4011 21.6781 27.4144 21.5043 27.4144H21.4903V27.2816H21.5673C21.6918 27.2804 21.7957 27.2262 21.7969 27.1096V25.3557C21.7947 25.1109 21.6744 25.1113 21.5673 25.108H21.4903V24.9752H21.5043C21.6171 24.9752 21.8299 24.9884 22.0404 24.9884C22.2461 24.9884 22.4123 24.9752 22.5967 24.9752C23.0311 24.9752 23.4322 25.0961 23.4332 25.5969C23.4332 25.9089 23.2269 26.1035 22.9609 26.212L23.5407 27.0805C23.6371 27.2239 23.697 27.2599 23.8651 27.2816L23.8776 27.2827V27.4144H23.8632Z" fill="#231F20"/>
<path d="M26.2072 26.7196L26.2136 26.7128V25.4179C26.2136 25.1349 26.0171 25.0938 25.9139 25.0938H25.8377V24.9892C26.0005 24.9892 26.1583 25.0032 26.3214 25.0032C26.4633 25.0032 26.6044 24.9892 26.7464 24.9892V25.0938H26.6951C26.5498 25.0938 26.387 25.1208 26.387 25.5317V27.1032C26.387 27.2239 26.3901 27.3445 26.4071 27.4515H26.2766L24.4983 25.4699V26.8918C24.4983 27.1931 24.5572 27.2955 24.8232 27.2955H24.8823V27.3999C24.7332 27.3999 24.5845 27.3862 24.4361 27.3862C24.2806 27.3862 24.1219 27.3999 23.9667 27.3999V27.2955H24.0142C24.2532 27.2955 24.3253 27.1343 24.3253 26.8577V25.4038C24.3253 25.2104 24.1664 25.0938 24.0116 25.0938H23.9667V24.9892C24.0973 24.9892 24.2331 25.0032 24.3637 25.0032C24.4669 25.0032 24.5671 24.9892 24.6706 24.9892L26.2072 26.7196Z" fill="#231F20"/>
<path d="M26.1989 26.7126V26.7114L26.197 26.7092L26.1989 26.7126ZM26.2767 27.4365H26.3894C26.375 27.3333 26.3719 27.2175 26.3719 27.1034V25.5315C26.3719 25.1172 26.5468 25.0793 26.6948 25.0785H26.7308V25.0049C26.595 25.0056 26.4584 25.0185 26.3214 25.0185C26.1633 25.0185 26.0084 25.0056 25.8529 25.0049V25.0785H25.914C26.0202 25.0793 26.2297 25.1255 26.2297 25.4181L26.2247 26.7233L26.2183 26.7297L26.2073 26.7414L24.6706 25.0049C24.5682 25.0049 24.4673 25.0185 24.3637 25.0185C24.2355 25.0185 24.1065 25.0056 23.9813 25.0049V25.0785H24.0113C24.1737 25.0793 24.3402 25.2014 24.3402 25.404V26.8575C24.3402 27.1345 24.2617 27.3105 24.014 27.3117H23.9813V27.3846C24.1308 27.3834 24.2845 27.3709 24.4362 27.3709C24.5803 27.3709 24.7238 27.3834 24.8668 27.3846V27.3117H24.8232C24.5511 27.3117 24.4832 27.1933 24.4825 26.892V25.431L26.2767 27.4365ZM26.4072 27.4669L26.2653 27.4615L24.5132 25.5088V26.892C24.5174 27.1933 24.5629 27.2779 24.8232 27.2817H24.8964V27.4145H24.8816C24.7321 27.4145 24.5838 27.4004 24.4362 27.4004C24.2818 27.4004 24.1217 27.4145 23.9668 27.4145H23.9505V27.2817H24.014C24.242 27.2806 24.3079 27.1334 24.3102 26.8575V25.404C24.3095 25.2196 24.1596 25.1084 24.0113 25.108H23.9505V24.975H23.9668C24.0982 24.975 24.2336 24.9886 24.3637 24.9886C24.4654 24.9886 24.5652 24.975 24.6809 24.9791L26.1989 26.688V25.4181C26.1985 25.1433 26.0141 25.1096 25.914 25.108H25.8226V24.975H25.8377C26.0012 24.975 26.1602 24.9886 26.3214 24.9886C26.4618 24.9886 26.6038 24.975 26.746 24.975H26.7608V25.108H26.6948C26.5525 25.1115 26.4057 25.1252 26.4019 25.5315V27.1034C26.4019 27.2233 26.4049 27.3428 26.4224 27.4494L26.4239 27.4669H26.4072Z" fill="#231F20"/>
<path d="M27.806 25.3762H27.7991L27.4778 26.3536H28.1231L27.806 25.3762ZM27.3025 26.9061C27.2672 27.0233 27.2251 27.114 27.2251 27.175C27.2251 27.2791 27.3711 27.2957 27.4846 27.2957H27.5229V27.3997C27.384 27.3928 27.2429 27.3864 27.1044 27.3864C26.9799 27.3864 26.8563 27.3928 26.7322 27.3997V27.2957H26.7523C26.887 27.2957 27.0016 27.2164 27.0521 27.0715L27.6052 25.4875C27.65 25.3592 27.713 25.187 27.7331 25.0583C27.8436 25.0208 27.9819 24.9521 28.0476 24.9103C28.0582 24.9066 28.0636 24.9039 28.0749 24.9039C28.0848 24.9039 28.0921 24.9039 28.0993 24.9138C28.1095 24.9415 28.1197 24.9726 28.1307 25.0003L28.7655 26.8063C28.8068 26.9269 28.8485 27.0551 28.893 27.1588C28.9346 27.2551 29.0075 27.2957 29.1214 27.2957H29.1415V27.3997C28.9866 27.3928 28.831 27.3864 28.6657 27.3864C28.4969 27.3864 28.3239 27.3928 28.1482 27.3997V27.2957H28.1861C28.265 27.2957 28.3998 27.2828 28.3998 27.1963C28.3998 27.1512 28.369 27.0578 28.3299 26.9474L28.1956 26.5467H27.4118L27.3025 26.9061Z" fill="#231F20"/>
<path d="M27.4978 26.339H28.1021L27.8016 25.4132L27.4978 26.339ZM27.4564 26.3689L27.7872 25.3616H27.8161L28.1439 26.3689H27.4564ZM28.1624 27.3834C28.3328 27.3781 28.5009 27.371 28.6657 27.371C28.8264 27.371 28.9763 27.3781 29.1265 27.3834V27.3118H29.1213C29.0036 27.3129 28.9224 27.2654 28.8791 27.1646C28.8343 27.0598 28.7923 26.9316 28.7517 26.811L28.1162 25.005C28.1055 24.9773 28.0949 24.9461 28.0866 24.9215C28.0832 24.918 28.0844 24.918 28.0813 24.918H28.0748C28.068 24.918 28.0639 24.92 28.0551 24.9227C27.9884 24.9654 27.8494 25.0338 27.747 25.0607C27.7262 25.192 27.6639 25.3638 27.6188 25.4917L27.0668 27.0769C27.014 27.2268 26.893 27.3118 26.7522 27.3118H26.7469V27.3834C26.8649 27.3781 26.9849 27.371 27.1047 27.371C27.2382 27.371 27.3744 27.3781 27.5064 27.3834V27.3118H27.4845C27.3718 27.3102 27.2147 27.2981 27.2109 27.1755C27.2109 27.1069 27.2527 27.0181 27.2872 26.902L27.3025 26.9061L27.2872 26.9016L27.401 26.5325H28.2053L28.3438 26.9426C28.3829 27.0538 28.4144 27.1456 28.4144 27.1964C28.4091 27.3023 28.2638 27.3098 28.186 27.3118H28.1624V27.3834ZM29.1406 27.4146C28.9863 27.4081 28.831 27.4005 28.6657 27.4005C28.4968 27.4005 28.3249 27.4081 28.1481 27.4146L28.1325 27.4157V27.2802H28.186C28.2652 27.2802 28.3837 27.2628 28.3837 27.1964C28.3845 27.157 28.3545 27.0621 28.3162 26.9525L28.1849 26.562H27.4231L27.3153 26.9104C27.28 27.0287 27.2394 27.1197 27.2394 27.1755C27.2405 27.2597 27.3699 27.2802 27.4845 27.2802H27.5372V27.4157L27.5216 27.4146C27.3835 27.4081 27.242 27.4005 27.1047 27.4005C26.9806 27.4005 26.8562 27.4081 26.7325 27.4146L26.7173 27.4157V27.2802H26.7522C26.8809 27.2802 26.9878 27.2067 27.0375 27.0667L27.5908 25.4822C27.6362 25.354 27.6981 25.1821 27.7281 25.0448C27.8363 25.0073 27.9746 24.9378 28.0418 24.8961C28.0517 24.8927 28.0608 24.8877 28.0748 24.8877C28.0832 24.8874 28.1021 24.89 28.1124 24.9086C28.123 24.9367 28.1336 24.9674 28.1439 24.9952L28.7802 26.8014C28.8208 26.9221 28.8621 27.0495 28.9068 27.1513C28.9466 27.2439 29.0105 27.2802 29.1213 27.2802H29.1569V27.4157L29.1406 27.4146Z" fill="#231F20"/>
<path d="M29.2942 25.1621C29.0345 25.1621 29.0247 25.2243 28.9728 25.4762H28.8688C28.8828 25.3799 28.9003 25.2831 28.9105 25.1826C28.9245 25.0862 28.9313 24.9891 28.9313 24.8897H29.0141C29.0418 24.9932 29.1283 24.9891 29.2213 24.9891H31.0029C31.0959 24.9891 31.1817 24.986 31.1889 24.8825L31.2719 24.8969C31.2586 24.9891 31.2455 25.0828 31.234 25.1761C31.2256 25.269 31.2256 25.3628 31.2256 25.4558L31.1232 25.4944C31.1176 25.3661 31.0993 25.1621 30.8683 25.1621H30.3018V26.9991C30.3018 27.2659 30.4228 27.2958 30.5887 27.2958H30.6539V27.3998C30.5196 27.3998 30.2779 27.3862 30.0912 27.3862C29.8844 27.3862 29.6421 27.3998 29.507 27.3998V27.2958H29.5729C29.7638 27.2958 29.8605 27.2792 29.8605 27.0067V25.1621H29.2942Z" fill="#231F20"/>
<path d="M30.6535 27.4146C30.5189 27.4146 30.2772 27.4009 30.0914 27.4009C29.8849 27.4009 29.6435 27.4146 29.5071 27.4146H29.4926V27.2814H29.5731C29.7636 27.2769 29.8394 27.2746 29.8443 27.0066V25.1768H29.2938V25.1476H29.8743V27.0066C29.8743 27.2833 29.7632 27.3102 29.5731 27.3118H29.5222V27.3849C29.6588 27.3834 29.8906 27.371 30.0914 27.371C30.2716 27.371 30.5026 27.3834 30.6392 27.3849L30.6384 27.3118H30.5879C30.4218 27.3102 30.2875 27.2711 30.2872 26.9991V25.1476H30.868C31.1006 25.148 31.1301 25.3445 31.137 25.4728L31.2121 25.4451C31.2121 25.3556 31.2121 25.2653 31.2192 25.1746C31.2288 25.0857 31.2424 24.9974 31.2545 24.9097L31.203 24.9002C31.1863 25.0004 31.0896 25.0061 31.0026 25.005H29.2035C29.122 25.0053 29.0344 25.0008 29.0027 24.9036H28.9463C28.9451 25.0004 28.9391 25.0926 28.925 25.1852C28.9155 25.2804 28.8988 25.371 28.886 25.4613H28.9603C29.0059 25.2216 29.035 25.1427 29.2938 25.1476V25.1768C29.0373 25.1814 29.0434 25.2246 28.9872 25.48L28.9846 25.4917H28.851L28.8533 25.4739C28.8673 25.3776 28.8848 25.2808 28.895 25.1814C28.9091 25.0847 28.9155 24.9886 28.9155 24.8896V24.8745H29.0248L29.0278 24.8854C29.0522 24.9727 29.1158 24.9731 29.2035 24.975H31.0026C31.0983 24.9731 31.1685 24.9716 31.1741 24.8812L31.1745 24.8653L31.1912 24.8684L31.2895 24.8835L31.2865 24.8983C31.2717 24.9913 31.2591 25.0847 31.249 25.1768C31.2424 25.2694 31.2424 25.3628 31.2424 25.4557V25.4662L31.2318 25.4705L31.1093 25.5153V25.4943C31.1006 25.365 31.0864 25.1768 30.868 25.1768H30.3167V26.9991C30.3201 27.2597 30.4237 27.278 30.5879 27.2814H30.6688V27.4146H30.6535Z" fill="#231F20"/>
<path d="M31.3992 27.2957H31.4474C31.5726 27.2957 31.7031 27.2794 31.7031 27.0992V25.2906C31.7031 25.1104 31.5726 25.094 31.4474 25.094H31.3992V24.9889C31.5339 24.9889 31.7407 25.0033 31.9099 25.0033C32.0825 25.0033 32.2897 24.9889 32.4528 24.9889V25.094H32.4046C32.2795 25.094 32.1477 25.1104 32.1477 25.2906V27.0992C32.1477 27.2794 32.2795 27.2957 32.4046 27.2957H32.4528V27.4C32.2867 27.4 32.0796 27.3864 31.9069 27.3864C31.7372 27.3864 31.5339 27.4 31.3992 27.4V27.2957Z" fill="#231F20"/>
<path d="M32.4368 27.3846V27.3117H32.4046C32.2805 27.3117 32.1337 27.2897 32.1337 27.0993V25.2902C32.1337 25.0998 32.2805 25.0785 32.4046 25.0785H32.4368V25.005C32.2775 25.0056 32.0783 25.0186 31.9098 25.0186C31.746 25.0186 31.5479 25.0056 31.4144 25.005V25.0785H31.4473C31.5699 25.0785 31.7179 25.0998 31.7179 25.2902V27.0993C31.7179 27.2897 31.5699 27.3117 31.4473 27.3117H31.4144V27.3846C31.5479 27.3826 31.7426 27.3709 31.9069 27.3709C32.0746 27.3709 32.2745 27.3834 32.4368 27.3846ZM32.4528 27.4146C32.2858 27.4146 32.0791 27.4005 31.9069 27.4005C31.738 27.4005 31.5338 27.4146 31.3991 27.4146H31.3848V27.2818H31.4473C31.5725 27.2795 31.6868 27.2681 31.6871 27.0993V25.2902C31.6868 25.1222 31.5725 25.1104 31.4473 25.1078H31.3848V24.975H31.3991C31.5338 24.975 31.7414 24.9886 31.9098 24.9886C32.0825 24.9886 32.2892 24.975 32.4528 24.975H32.4668V25.1078H32.4046C32.2782 25.1104 32.1644 25.1222 32.1633 25.2902V27.0993C32.1644 27.2681 32.2782 27.2795 32.4046 27.2818H32.4668V27.4146H32.4528Z" fill="#231F20"/>
<path d="M33.8814 27.2997C34.5521 27.2997 34.668 26.709 34.668 26.2059C34.668 25.701 34.3963 25.0902 33.823 25.0902C33.219 25.0902 33.0395 25.6285 33.0395 26.0906C33.0395 26.709 33.3225 27.2997 33.8814 27.2997ZM33.8299 24.9379C34.5655 24.9379 35.1525 25.394 35.1525 26.1297C35.1525 26.9239 34.583 27.4516 33.8473 27.4516C33.1142 27.4516 32.5565 26.9549 32.5565 26.2117C32.5565 25.4946 33.112 24.9379 33.8299 24.9379Z" fill="#231F20"/>
<path d="M33.0239 26.0906C33.025 25.6263 33.207 25.0746 33.8229 25.0746C34.4098 25.0756 34.683 25.6983 34.6834 26.2059C34.683 26.709 34.5642 27.3142 33.8813 27.3142V27.285C34.5389 27.2846 34.6523 26.709 34.6538 26.2059C34.6538 25.7051 34.384 25.1056 33.8229 25.1049C33.2306 25.1056 33.0553 25.6312 33.0541 26.0906C33.0549 26.7063 33.3353 27.2834 33.8813 27.285V27.3142C33.3088 27.3134 33.025 26.7124 33.0239 26.0906ZM32.5405 26.212C32.5424 25.4859 33.1042 24.9239 33.8297 24.9224V24.9531C33.1191 24.9531 32.5697 25.5017 32.5697 26.212C32.5708 26.9462 33.122 27.436 33.8471 27.4364C34.5752 27.436 35.1364 26.9154 35.1382 26.1289C35.1379 25.4027 34.5597 24.9539 33.8297 24.9531V24.9224C34.5711 24.9239 35.1656 25.3845 35.1667 26.1289C35.1663 26.9314 34.59 27.4652 33.8471 27.4667C33.1089 27.4652 32.5424 26.9621 32.5405 26.212Z" fill="#231F20"/>
<path d="M37.4798 26.7196L37.4864 26.7128V25.4179C37.4864 25.1349 37.2896 25.0938 37.1848 25.0938H37.1105V24.9892C37.2719 24.9892 37.4315 25.0032 37.5931 25.0032C37.7358 25.0032 37.877 24.9892 38.0181 24.9892V25.0938H37.9663C37.8209 25.0938 37.6583 25.1208 37.6583 25.5317V27.1032C37.6583 27.2239 37.6626 27.3445 37.6797 27.4515H37.548L35.77 25.4699V26.8918C35.77 27.1931 35.8285 27.2955 36.0949 27.2955H36.1533V27.3999C36.0049 27.3999 35.857 27.3862 35.7079 27.3862C35.5527 27.3862 35.3933 27.3999 35.2378 27.3999V27.2955H35.2867C35.5257 27.2955 35.5967 27.1343 35.5967 26.8577V25.4038C35.5967 25.2104 35.4388 25.0938 35.2826 25.0938H35.2378V24.9892C35.3694 24.9892 35.5038 25.0032 35.6354 25.0032C35.7386 25.0032 35.8388 24.9892 35.9423 24.9892L37.4798 26.7196Z" fill="#231F20"/>
<path d="M37.4708 26.7126V26.7114L37.4677 26.7092L37.4708 26.7126ZM37.5479 27.4365H37.6621C37.6468 27.3329 37.6439 27.2175 37.6439 27.1034V25.5315C37.6439 25.1168 37.8183 25.0793 37.9663 25.0785H38.0036V25.0049C37.8664 25.0056 37.7304 25.0185 37.5923 25.0185C37.436 25.0185 37.2815 25.0056 37.1248 25.0049V25.0785H37.1847C37.2925 25.0793 37.5008 25.1263 37.5008 25.4181L37.4967 26.7233L37.4905 26.7297L37.4796 26.7414L35.9422 25.0049C35.8406 25.0049 35.7396 25.0185 35.6353 25.0185C35.5078 25.0185 35.3776 25.0056 35.2529 25.0049V25.0785H35.2824C35.4453 25.0793 35.6121 25.2014 35.6121 25.404V26.8579C35.6121 27.1345 35.5351 27.3105 35.2866 27.3117H35.2529V27.3846C35.4027 27.3834 35.556 27.3709 35.7081 27.3709C35.8523 27.3709 35.9957 27.3834 36.1384 27.3846V27.3117H36.0936C35.8227 27.3117 35.7552 27.1933 35.7552 26.892V25.431L37.5479 27.4365ZM37.6795 27.4669L37.5365 27.4615L35.7844 25.5088V26.892C35.7886 27.1933 35.8345 27.2775 36.0936 27.2806H36.1687V27.4145H36.1536C36.0041 27.4145 35.8557 27.4012 35.7081 27.4012C35.5534 27.4012 35.3947 27.4145 35.2377 27.4145H35.2236V27.2806H35.2866C35.5142 27.2798 35.5799 27.1334 35.5817 26.8579V25.404C35.5817 25.2196 35.4315 25.1084 35.2824 25.108H35.2236V24.975H35.2377C35.3701 24.975 35.5048 24.9886 35.6353 24.9886C35.7374 24.9886 35.8368 24.975 35.9544 24.9803L37.4708 26.688V25.4181C37.4701 25.1433 37.2869 25.1104 37.1847 25.108H37.0949V24.975H37.11C37.2723 24.975 37.4325 24.9886 37.5923 24.9886C37.7345 24.9886 37.8745 24.975 38.0179 24.975H38.0328V25.108H37.9663C37.8245 25.1123 37.6772 25.1252 37.6741 25.5315V27.1034C37.6741 27.2233 37.6772 27.3439 37.6931 27.4494L37.6961 27.4669H37.6795Z" fill="#231F20"/>
<path d="M39.0772 25.3762H39.0705L38.7491 26.3536H39.3959L39.0772 25.3762ZM38.573 26.9061C38.5392 27.0233 38.4975 27.114 38.4975 27.175C38.4975 27.2791 38.6435 27.2957 38.7558 27.2957H38.7946V27.3997C38.6561 27.3928 38.5149 27.3864 38.3765 27.3864C38.2509 27.3864 38.1276 27.3928 38.0043 27.3997V27.2957H38.0233C38.1587 27.2957 38.2733 27.2164 38.3245 27.0715L38.8777 25.4875C38.9225 25.3592 38.9843 25.187 39.0048 25.0583C39.1152 25.0208 39.2533 24.9521 39.3189 24.9103C39.3295 24.9066 39.3367 24.9039 39.347 24.9039C39.3568 24.9039 39.3634 24.9039 39.371 24.9138C39.3815 24.9415 39.3914 24.9726 39.4028 25.0003L40.0375 26.8063C40.0781 26.9269 40.1206 27.0551 40.1654 27.1588C40.2063 27.2551 40.2796 27.2957 40.3934 27.2957H40.4138V27.3997C40.2587 27.3928 40.1027 27.3864 39.9374 27.3864C39.7682 27.3864 39.5951 27.3928 39.4191 27.3997V27.2957H39.4574C39.5363 27.2957 39.6718 27.2828 39.6718 27.1963C39.6718 27.1512 39.6403 27.0578 39.6019 26.9474L39.468 26.5467H38.685L38.573 26.9061Z" fill="#231F20"/>
<path d="M38.7703 26.3381H39.3747L39.0734 25.4139L38.7703 26.3381ZM38.7281 26.3678L39.0609 25.3616H39.0886L39.4149 26.3678H38.7281ZM39.4342 27.3838C39.6045 27.3781 39.773 27.371 39.9377 27.371C40.0978 27.371 40.2481 27.3781 40.3983 27.3834V27.3118H40.3931C40.2762 27.3118 40.1942 27.2654 40.1513 27.1645C40.1051 27.0598 40.0641 26.9315 40.0231 26.811L39.3883 25.005C39.3781 24.9773 39.3667 24.9461 39.3584 24.9227C39.3558 24.918 39.3558 24.918 39.3531 24.918H39.347C39.3398 24.918 39.336 24.92 39.3269 24.9227C39.2601 24.9648 39.1224 25.0342 39.0188 25.0607C38.9983 25.192 38.9353 25.3638 38.8913 25.4917L38.3381 27.0768C38.2854 27.2268 38.1659 27.3118 38.0237 27.3118H38.0179V27.3834C38.1375 27.3781 38.2566 27.371 38.3769 27.371C38.5104 27.371 38.6463 27.3781 38.7802 27.3834V27.3118H38.7558C38.644 27.3102 38.4865 27.2981 38.4823 27.1751C38.483 27.1068 38.526 27.0185 38.5598 26.902L38.573 26.9061L38.5598 26.9016L38.6728 26.5325H39.4787L39.6164 26.9426C39.6551 27.0538 39.6858 27.1456 39.6858 27.1964C39.6809 27.3022 39.536 27.3098 39.4566 27.3118H39.4342V27.3838ZM40.4132 27.4146C40.2576 27.4085 40.1016 27.4009 39.9377 27.4009C39.7689 27.4009 39.5959 27.4085 39.4199 27.4146L39.4046 27.4157V27.2818H39.4566C39.537 27.2818 39.6563 27.2628 39.6569 27.1964C39.6573 27.1569 39.6267 27.0625 39.5872 26.9525L39.4563 26.562H38.6941L38.5878 26.9104C38.5533 27.0291 38.5115 27.1197 38.5127 27.1751C38.5127 27.2597 38.6421 27.2818 38.7558 27.2818H38.809V27.4157L38.7934 27.4146C38.6557 27.4085 38.5139 27.4009 38.3769 27.4009C38.2524 27.4009 38.1288 27.4085 38.0043 27.4146L37.9891 27.4157V27.2818H38.0237C38.1522 27.2802 38.2604 27.2063 38.3104 27.0667L38.8632 25.4822C38.9072 25.354 38.9695 25.1821 38.9994 25.0448C39.1083 25.0073 39.2473 24.9377 39.3137 24.8961C39.3228 24.8926 39.3334 24.8885 39.347 24.8885C39.3558 24.8874 39.3739 24.89 39.3849 24.909C39.3948 24.9363 39.405 24.9674 39.416 24.9952L40.0516 26.8014C40.0926 26.9221 40.1343 27.0495 40.1794 27.152C40.2201 27.2439 40.2818 27.2802 40.3931 27.2818H40.4284V27.4157L40.4132 27.4146Z" fill="#231F20"/>
<path d="M41.2844 27.0615C41.2844 27.1995 41.3804 27.241 41.4908 27.255C41.6322 27.2656 41.7875 27.2656 41.9473 27.2482C42.0914 27.2315 42.2166 27.148 42.278 27.0615C42.333 26.9852 42.3634 26.8892 42.3854 26.8126H42.4856C42.4469 27.0095 42.3987 27.2034 42.3569 27.3999C42.0534 27.3999 41.7492 27.3863 41.4464 27.3863C41.1422 27.3863 40.8378 27.3999 40.5343 27.3999V27.2956H40.5818C40.7073 27.2956 40.8417 27.2793 40.8417 27.0645V25.2904C40.8417 25.1102 40.7073 25.0939 40.5818 25.0939H40.5343V24.9892C40.7172 24.9892 40.897 25.0032 41.0795 25.0032C41.256 25.0032 41.4286 24.9892 41.605 24.9892V25.0939H41.5181C41.3872 25.0939 41.2844 25.0973 41.2844 25.2806V27.0615Z" fill="#231F20"/>
<path d="M42.3453 27.3846C42.3852 27.1975 42.4307 27.0139 42.4668 26.8272H42.3959C42.3749 26.9035 42.3443 26.9957 42.2895 27.0704C42.2255 27.1603 42.0972 27.2446 41.9474 27.2628C41.8566 27.2726 41.7672 27.2769 41.683 27.2769C41.6161 27.2769 41.5506 27.2738 41.4882 27.2696C41.3768 27.2571 41.2675 27.2093 41.2686 27.0617V25.2804C41.2686 25.0879 41.3897 25.0785 41.5183 25.0785H41.5896V25.005C41.4196 25.0056 41.2511 25.0186 41.0797 25.0186C40.9002 25.0186 40.7253 25.0056 40.5489 25.005V25.0785H40.5819C40.7056 25.0785 40.8562 25.0998 40.8562 25.2898V27.0643C40.8562 27.2878 40.706 27.3117 40.5819 27.3117H40.5489V27.3846C40.8467 27.3838 41.1461 27.3709 41.4466 27.3709C41.7463 27.3709 42.0456 27.3838 42.3453 27.3846ZM42.3572 27.4146C42.0528 27.4146 41.7493 27.4009 41.4466 27.4009C41.1423 27.4009 40.838 27.4146 40.5337 27.4146H40.5197V27.2818H40.5819C40.7071 27.2787 40.8263 27.2696 40.8273 27.0643V25.2898C40.8263 25.1222 40.7083 25.1104 40.5819 25.1078H40.5197V24.975H40.5337C40.7178 24.975 40.8972 24.9886 41.0797 24.9886C41.2553 24.9886 41.4279 24.975 41.6052 24.975H41.6188V25.1078H41.5183C41.3843 25.1115 41.3009 25.1055 41.2978 25.2804V27.0617C41.2993 27.1903 41.3832 27.2245 41.4921 27.2404C41.552 27.2446 41.6169 27.2469 41.683 27.2469C41.7672 27.2469 41.8548 27.2427 41.9451 27.2332C42.0855 27.2165 42.2062 27.1357 42.2661 27.0533C42.3193 26.979 42.3496 26.8845 42.3697 26.809L42.3734 26.7972H42.5036L42.5002 26.8162C42.4615 27.0131 42.4141 27.2063 42.3723 27.4035L42.3686 27.4146H42.3572Z" fill="#231F20"/>
<path d="M42.3854 25.2562H42.4279C42.4749 25.2562 42.4966 25.2209 42.4966 25.1636C42.4966 25.1056 42.4621 25.0855 42.4252 25.0855H42.3854V25.2562ZM42.2625 25.4482V25.43C42.3065 25.4239 42.3152 25.4259 42.3152 25.3973V25.1287C42.3152 25.0904 42.3111 25.0775 42.2637 25.0798V25.0608H42.4502C42.5132 25.0608 42.5725 25.0919 42.5725 25.1576C42.5725 25.2122 42.5372 25.2513 42.4867 25.2672L42.5459 25.351C42.5744 25.3879 42.6058 25.4239 42.6267 25.4364V25.4482H42.5558C42.522 25.4482 42.4924 25.3761 42.4252 25.2809H42.3854V25.4011C42.3854 25.4259 42.3937 25.4239 42.4377 25.43V25.4482H42.2625ZM42.4431 25.551C42.6058 25.551 42.7306 25.4129 42.7306 25.2562C42.7306 25.0995 42.6081 24.9595 42.4431 24.9595C42.2792 24.9595 42.1547 25.0995 42.1547 25.2562C42.1547 25.4129 42.2792 25.551 42.4431 25.551ZM42.4431 24.892C42.651 24.892 42.8065 25.0521 42.8065 25.2562C42.8065 25.4603 42.651 25.6185 42.4431 25.6185C42.2356 25.6185 42.0792 25.4603 42.0792 25.2562C42.0792 25.0521 42.2356 24.892 42.4431 24.892Z" fill="#231F20"/>
<path d="M20.8873 12.7088C20.8873 9.47882 23.5056 6.86065 26.7356 6.86065C29.9656 6.86065 32.5838 9.47882 32.5838 12.7088C32.5838 15.9388 29.9656 18.557 26.7356 18.557C23.5056 18.557 20.8873 15.9388 20.8873 12.7088Z" fill="white"/>
<path d="M30.2726 12.5936C30.2699 11.0958 29.334 9.81885 28.0147 9.31294V15.8743C29.334 15.3676 30.2699 14.0919 30.2726 12.5936ZM25.4983 15.8728V9.31333C24.1806 9.82115 23.2457 11.0965 23.2424 12.5936C23.2457 14.0903 24.1806 15.3661 25.4983 15.8728ZM26.7572 7.04787C23.6945 7.04903 21.213 9.53084 21.2126 12.5936C21.213 15.656 23.6945 18.1374 26.7572 18.1378C29.8201 18.1374 32.3023 15.656 32.303 12.5936C32.3023 9.53084 29.8201 7.04903 26.7572 7.04787ZM26.7436 18.6616C23.3921 18.6772 20.6336 15.9623 20.6336 12.6568C20.6336 9.04475 23.3921 6.5462 26.7436 6.54688H28.3146C31.6262 6.5462 34.6489 9.04321 34.6489 12.6568C34.6489 15.9607 31.6262 18.6616 28.3146 18.6616H26.7436Z" fill="#006699"/>
</svg>
