<svg width="55" height="36" viewBox="0 0 55 36" fill="none" xmlns="http://www.w3.org/2000/svg">
<rect x="0.21875" y="0.0820312" width="54.392" height="35.041" rx="6.276" fill="white"/>
<path d="M19.2346 17.6919C19.2346 19.6286 20.7557 21.13 22.7122 21.13C23.2657 21.13 23.7388 21.0209 24.3232 20.7463V19.2337C23.8096 19.7473 23.3546 19.9549 22.7718 19.9549C21.4774 19.9549 20.5588 19.0166 20.5588 17.6823C20.5588 16.4177 21.5072 15.4198 22.7122 15.4198C23.3253 15.4198 23.7894 15.638 24.3232 16.1607V14.6486C23.7596 14.3628 23.2955 14.2441 22.7425 14.2441C20.7956 14.2441 19.2346 15.7764 19.2346 17.6919Z" fill="#251F1F"/>
<path d="M15.9364 16.092C15.9364 16.4475 16.1632 16.6359 16.9344 16.9212C18.3964 17.4561 18.8296 17.9298 18.8296 18.9766C18.8296 20.2518 17.8923 21.1396 16.557 21.1396C15.5793 21.1396 14.8683 20.7548 14.2759 19.8857L15.1062 19.0863C15.4021 19.6584 15.896 19.965 16.5086 19.965C17.0823 19.965 17.5065 19.5695 17.5065 19.0357C17.5065 18.759 17.3777 18.5211 17.1212 18.3539C16.9918 18.2746 16.7358 18.156 16.2329 17.9787C15.0258 17.5444 14.6117 17.0798 14.6117 16.1718C14.6117 15.0936 15.5011 14.2841 16.6666 14.2841C17.3889 14.2841 18.0499 14.531 18.6029 15.0148L17.9301 15.8951C17.5954 15.5199 17.2792 15.3613 16.8939 15.3613C16.3399 15.3613 15.9364 15.6769 15.9364 16.092Z" fill="#251F1F"/>
<path fill-rule="evenodd" clip-rule="evenodd" d="M8.37891 14.3932H6.49219V20.9815H8.3688C9.36618 20.9815 10.0873 20.7463 10.7196 20.221C11.4711 19.5988 11.9155 18.661 11.9155 17.6919C11.9155 15.7477 10.4626 14.3932 8.37891 14.3932ZM9.87977 19.3428C9.47582 19.7069 8.95158 19.866 8.12131 19.866H7.77644V15.5098H8.12131C8.95158 15.5098 9.45506 15.6577 9.87977 16.0425C10.3247 16.438 10.5914 17.0511 10.5914 17.6823C10.5914 18.3146 10.3247 18.9474 9.87977 19.3428Z" fill="#251F1F"/>
<path d="M13.7921 14.3932H12.5068V20.9815H13.7921V14.3932Z" fill="#251F1F"/>
<path d="M32.7557 14.3932L34.5131 18.8181L36.2928 14.3932H37.6857L34.8393 21.1508H34.148L31.3522 14.3932H32.7557Z" fill="#251F1F"/>
<path d="M38.2668 20.9815H41.9115V19.866H39.5511V18.0878H41.8242V16.9718H39.5511V15.5098H41.9115V14.3932H38.2668V20.9815Z" fill="#251F1F"/>
<path fill-rule="evenodd" clip-rule="evenodd" d="M44.6678 14.3932C46.1501 14.3932 47.0006 15.1048 47.0006 16.3379C47.0006 17.347 46.4667 18.0091 45.4986 18.206L47.5727 20.9815H45.9925L44.2139 18.3348H44.0457V20.9815H42.7625V14.3932H44.6678ZM44.0457 17.4263H44.422C45.2426 17.4263 45.6775 17.0697 45.6775 16.4076C45.6775 15.7663 45.2426 15.4305 44.4416 15.4305H44.0457V17.4263Z" fill="#251F1F"/>
<path fill-rule="evenodd" clip-rule="evenodd" d="M48.0246 14.7386C48.0246 14.6226 47.9442 14.5592 47.8042 14.5592H47.618V15.1404H47.7563V14.9153L47.9187 15.1404H48.0884L47.8974 14.9009C47.9788 14.8786 48.0246 14.819 48.0246 14.7386ZM47.7798 14.8179H47.7563V14.6657H47.7813C47.85 14.6657 47.8857 14.6907 47.8857 14.7407C47.8857 14.7918 47.8495 14.8179 47.7798 14.8179Z" fill="#251F1F"/>
<path fill-rule="evenodd" clip-rule="evenodd" d="M47.3258 14.8487C47.3258 14.5672 47.5504 14.3421 47.8319 14.3421C48.1065 14.3421 48.3322 14.5714 48.3322 14.8487C48.3322 15.1276 48.1065 15.3554 47.8319 15.3554C47.5525 15.3554 47.3258 15.1297 47.3258 14.8487ZM47.4263 14.8493C47.4263 15.0802 47.6078 15.2649 47.8298 15.2649C48.0512 15.2649 48.2311 15.0781 48.2311 14.8493C48.2311 14.6225 48.0512 14.4331 47.8298 14.4331C47.6062 14.4331 47.4263 14.6183 47.4263 14.8493Z" fill="#251F1F"/>
<g filter="url(#filter0_i_6001_25531)">
<path d="M28.2215 21.182C26.2959 21.182 24.7344 19.6205 24.7344 17.6949V17.6902C24.7344 16.7322 25.1223 15.8604 25.7498 15.233C25.7498 15.2281 25.7546 15.2281 25.7546 15.2234C25.7594 15.2234 25.7594 15.2185 25.7642 15.2185C26.3917 14.5911 27.2635 14.2031 28.2215 14.2031H28.2263C30.1519 14.2031 31.7134 15.7646 31.7134 17.6902V17.6949C31.7134 18.653 31.3253 19.52 30.6979 20.1523C30.6979 20.157 30.6931 20.157 30.6931 20.1619C30.6883 20.1619 30.6883 20.1666 30.6836 20.1666C30.0512 20.7941 29.1843 21.182 28.2263 21.182H28.2215Z" fill="url(#paint0_linear_6001_25531)"/>
</g>
<defs>
<filter id="filter0_i_6001_25531" x="24.7344" y="14.2031" width="7.23203" height="7.36171" filterUnits="userSpaceOnUse" color-interpolation-filters="sRGB">
<feFlood flood-opacity="0" result="BackgroundImageFix"/>
<feBlend mode="normal" in="SourceGraphic" in2="BackgroundImageFix" result="shape"/>
<feColorMatrix in="SourceAlpha" type="matrix" values="0 0 0 0 0 0 0 0 0 0 0 0 0 0 0 0 0 0 127 0" result="hardAlpha"/>
<feOffset dx="0.255466" dy="0.383198"/>
<feGaussianBlur stdDeviation="0.255466"/>
<feComposite in2="hardAlpha" operator="arithmetic" k2="-1" k3="1"/>
<feColorMatrix type="matrix" values="0 0 0 0 0 0 0 0 0 0 0 0 0 0 0 0 0 0 0.35 0"/>
<feBlend mode="normal" in2="shape" result="effect1_innerShadow_6001_25531"/>
</filter>
<linearGradient id="paint0_linear_6001_25531" x1="26.3949" y1="14.2031" x2="32.1294" y2="19.0556" gradientUnits="userSpaceOnUse">
<stop stop-color="#EF3823"/>
<stop offset="0.489583" stop-color="#F04D22"/>
<stop offset="1" stop-color="#F7911D"/>
</linearGradient>
</defs>
</svg>
