<svg width="55" height="36" viewBox="0 0 55 36" fill="none" xmlns="http://www.w3.org/2000/svg">
<rect width="54.392" height="35.041" transform="translate(0.046875 0.0820312)" fill="white"/>
<path d="M17.6378 13.0123C18.0006 12.5584 18.2469 11.9489 18.182 11.3262C17.6507 11.3526 17.0025 11.6766 16.6272 12.1309C16.2902 12.5199 15.992 13.1548 16.0697 13.7515C16.666 13.8032 17.2618 13.4534 17.6378 13.0123Z" fill="#000008"/>
<path d="M18.1752 13.868C17.3092 13.8164 16.5729 14.3595 16.1594 14.3595C15.7456 14.3595 15.1123 13.894 14.4274 13.9065C13.5359 13.9196 12.7087 14.4237 12.2563 15.2254C11.3258 16.8292 12.0107 19.2081 12.9156 20.5143C13.355 21.1605 13.8846 21.8721 14.5824 21.8465C15.2417 21.8206 15.5001 21.4196 16.3015 21.4196C17.1023 21.4196 17.3351 21.8465 18.033 21.8336C18.7568 21.8206 19.2093 21.187 19.6487 20.5402C20.1528 19.8035 20.3592 19.0922 20.3721 19.0532C20.3592 19.0403 18.9765 18.5099 18.9637 16.9194C18.9507 15.5877 20.0492 14.9543 20.1009 14.915C19.4806 13.9974 18.5112 13.894 18.1752 13.868Z" fill="#000008"/>
<path d="M25.7155 12.0657C27.5977 12.0657 28.9083 13.3631 28.9083 15.2521C28.9083 17.1478 27.5707 18.4519 25.6683 18.4519H23.5843V21.766H22.0787V12.0657L25.7155 12.0657ZM23.5843 17.1881H25.312C26.6229 17.1881 27.3689 16.4823 27.3689 15.2588C27.3689 14.0355 26.6229 13.3363 25.3187 13.3363H23.5843V17.1881Z" fill="#000008"/>
<path d="M29.3017 19.7561C29.3017 18.5191 30.2495 17.7595 31.9302 17.6654L33.8661 17.5511V17.0067C33.8661 16.2201 33.335 15.7496 32.4478 15.7496C31.6074 15.7496 31.083 16.1528 30.9554 16.7848H29.5841C29.6647 15.5075 30.7537 14.5664 32.5015 14.5664C34.2157 14.5664 35.3113 15.4739 35.3113 16.8923V21.766H33.9198V20.603H33.8863C33.4763 21.3896 32.5822 21.887 31.6546 21.887C30.2697 21.887 29.3017 21.0265 29.3017 19.7561ZM33.8661 19.1175V18.5595L32.125 18.667C31.2578 18.7276 30.7671 19.1107 30.7671 19.7157C30.7671 20.3341 31.278 20.7375 32.0578 20.7375C33.0728 20.7375 33.8661 20.0384 33.8661 19.1175Z" fill="#000008"/>
<path d="M36.6251 24.3676V23.1911C36.7324 23.218 36.9744 23.218 37.0955 23.218C37.7677 23.218 38.1307 22.9357 38.3525 22.2097C38.3525 22.1962 38.4803 21.7795 38.4803 21.7727L35.9259 14.6941H37.4988L39.2871 20.4485H39.3138L41.1021 14.6941H42.6347L39.986 22.1357C39.3812 23.85 38.6821 24.4012 37.2166 24.4012C37.0955 24.4012 36.7325 24.3877 36.6251 24.3676Z" fill="#000008"/>
</svg>
