<svg width="55" height="36" viewBox="0 0 55 36" fill="none" xmlns="http://www.w3.org/2000/svg">
<rect width="54.392" height="35.041" transform="translate(0.4375 0.0820312)" fill="white"/>
<path fill-rule="evenodd" clip-rule="evenodd" d="M12.3381 12.5031H9.20218C8.98759 12.5031 8.80508 12.659 8.77161 12.8708L7.50329 20.9113C7.47808 21.07 7.60096 21.213 7.76192 21.213H9.25903C9.47362 21.213 9.65613 21.057 9.6896 20.8449L10.0317 18.6762C10.0647 18.4639 10.2476 18.3081 10.4618 18.3081H11.4545C13.5202 18.3081 14.7124 17.3086 15.0239 15.328C15.1641 14.4614 15.0298 13.7806 14.6239 13.3036C14.1783 12.7802 13.3876 12.5031 12.3381 12.5031ZM12.6999 15.4398C12.5284 16.5649 11.6686 16.5649 10.8373 16.5649H10.3641L10.6961 14.4636C10.7158 14.3367 10.8258 14.2431 10.9542 14.2431H11.1711C11.7374 14.2431 12.2717 14.2431 12.5477 14.5658C12.7122 14.7585 12.7627 15.0445 12.6999 15.4398ZM21.7121 15.4037H20.2104C20.0824 15.4037 19.9719 15.4973 19.9521 15.6244L19.8857 16.0442L19.7807 15.8921C19.4556 15.4202 18.7307 15.2626 18.0071 15.2626C16.3475 15.2626 14.9303 16.5193 14.6542 18.2822C14.5108 19.1615 14.7147 20.0023 15.2136 20.5888C15.6713 21.1279 16.3261 21.3526 17.1051 21.3526C18.4421 21.3526 19.1838 20.4929 19.1838 20.4929L19.1167 20.9102C19.0915 21.0698 19.2143 21.2128 19.3743 21.2128H20.7271C20.9422 21.2128 21.1237 21.0568 21.1576 20.8446L21.9693 15.7054C21.995 15.5473 21.8725 15.4037 21.7121 15.4037ZM19.6188 18.3262C19.4738 19.184 18.7929 19.7598 17.9246 19.7598C17.4885 19.7598 17.1399 19.62 16.9162 19.355C16.6943 19.0919 16.6098 18.7172 16.6805 18.3001C16.8159 17.4495 17.5083 16.855 18.3634 16.855C18.7897 16.855 19.1364 16.9965 19.3648 17.2638C19.5935 17.5339 19.6843 17.9107 19.6188 18.3262ZM28.2009 15.4035H29.71C29.9214 15.4035 30.0446 15.6405 29.9245 15.8138L24.9054 23.0578C24.8242 23.1751 24.6903 23.2449 24.5473 23.2449H23.04C22.8278 23.2449 22.7039 23.006 22.8268 22.8323L24.3896 20.6265L22.7275 15.7491C22.6699 15.5796 22.7951 15.4035 22.9755 15.4035H24.4583C24.651 15.4035 24.821 15.5299 24.8766 15.7143L25.7587 18.6601L27.8401 15.5947C27.9216 15.475 28.057 15.4035 28.2009 15.4035Z" fill="#253B80"/>
<path fill-rule="evenodd" clip-rule="evenodd" d="M44.5631 20.9105L45.8501 12.723C45.8698 12.5959 45.98 12.5024 46.1079 12.502H47.5568C47.7168 12.502 47.8396 12.6454 47.8144 12.8041L46.5452 20.8441C46.5121 21.0563 46.3297 21.2123 46.1147 21.2123H44.8207C44.6607 21.2123 44.5379 21.0692 44.5631 20.9105ZM34.7068 12.5024H31.5703C31.3562 12.5024 31.1737 12.6583 31.1402 12.8701L29.8719 20.9105C29.8466 21.0692 29.9695 21.2123 30.1297 21.2123H31.739C31.8886 21.2123 32.0166 21.1032 32.0399 20.9547L32.3998 18.6755C32.4329 18.4631 32.6158 18.3074 32.8299 18.3074H33.8221C35.8883 18.3074 37.0802 17.3079 37.3919 15.3272C37.5326 14.4607 37.3974 13.7799 36.9917 13.3029C36.5463 12.7795 35.7563 12.5024 34.7068 12.5024ZM35.0686 15.4391C34.8976 16.5642 34.0377 16.5642 33.2059 16.5642H32.7331L33.0657 14.4628C33.0854 14.336 33.1945 14.2424 33.3233 14.2424H33.5401C34.1061 14.2424 34.6408 14.2424 34.9167 14.5651C35.0813 14.7578 35.1314 15.0438 35.0686 15.4391ZM44.0799 15.403H42.5793C42.4503 15.403 42.3408 15.4965 42.3215 15.6236L42.2551 16.0435L42.1496 15.8914C41.8245 15.4195 41.1001 15.2619 40.3765 15.2619C38.7169 15.2619 37.3 16.5186 37.024 18.2815C36.881 19.1608 37.084 20.0016 37.5829 20.588C38.0415 21.1272 38.6955 21.3519 39.4744 21.3519C40.8115 21.3519 41.5529 20.4921 41.5529 20.4921L41.486 20.9095C41.4608 21.069 41.5837 21.212 41.7447 21.212H43.0968C43.3109 21.212 43.4934 21.0561 43.527 20.8439L44.339 15.7047C44.3639 15.5466 44.241 15.403 44.0799 15.403ZM41.9868 18.3254C41.8428 19.1832 41.161 19.7591 40.2924 19.7591C39.8572 19.7591 39.508 19.6193 39.2841 19.3543C39.0621 19.0912 38.9787 18.7165 39.0485 18.2993C39.1846 17.4487 39.8761 16.8542 40.7313 16.8542C41.1578 16.8542 41.5043 16.9958 41.7328 17.2631C41.9624 17.5332 42.0533 17.91 41.9868 18.3254Z" fill="#179BD7"/>
</svg>
