<svg width="56" height="36" viewBox="0 0 56 36" fill="none" xmlns="http://www.w3.org/2000/svg">
<rect x="0.648438" y="0.0820312" width="54.392" height="35.041" rx="6.276" fill="white"/>
<path fill-rule="evenodd" clip-rule="evenodd" d="M55.0623 6.68617H50.5602L48.207 13.4393L45.7513 6.68617H41.147V17.2013L36.4403 6.68617H32.6547L27.9479 17.4296H31.222L32.1428 15.281H37.0543L37.9751 17.4296H44.1142V9.96025L46.8768 17.4296H49.4347L52.1973 9.96025V17.4296H55.0623V19.0666H51.2764L48.207 22.4432L45.0351 19.0666H32.0407V29.81H44.9329L48.1045 26.3313L51.2764 29.81H55.0623V31.1399H50.5602L48.1045 28.4798L45.6488 31.1399H30.4036V18.8619H25.4922L31.6313 5.04883H37.5658L39.7143 9.75559V5.04883H47.0815L48.3092 8.63006L49.5372 5.04883H55.0623V6.68617ZM55.0623 21.4198L52.2997 24.3871L55.0623 27.3543V29.81L50.0487 24.3871L55.0623 19.0666V21.4198ZM41.147 29.81V27.2521H35.0079V25.6151H41.0445V23.1594H35.0079V21.5223H41.147V19.0666L46.2628 24.3871L41.147 29.81ZM33.0637 12.9275L34.4964 9.44873L35.9287 12.9275H33.0637Z" fill="#006FCF"/>
</svg>
