<svg xmlns="http://www.w3.org/2000/svg" width="24" height="25" viewBox="0 0 24 25" fill="none">
  <path fill-rule="evenodd" clip-rule="evenodd" d="M9.99502 4.39453H14.005C17.7856 4.39453 19.6759 4.39453 20.8504 5.5661C21.6591 6.37276 21.911 7.51792 21.9894 9.384C22.005 9.75407 22.0128 9.93911 21.9437 10.0626C21.8745 10.186 21.5987 10.3401 21.0469 10.6482C20.4341 10.9904 20.0199 11.6442 20.0199 12.3945C20.0199 13.1449 20.4341 13.7987 21.0469 14.1409C21.5987 14.449 21.8745 14.6031 21.9437 14.7265C22.0128 14.85 22.005 15.035 21.9894 15.4051C21.911 17.2711 21.6591 18.4163 20.8504 19.223C19.6759 20.3945 17.7856 20.3945 14.005 20.3945H9.99502C6.21438 20.3945 4.32407 20.3945 3.14958 19.223C2.34091 18.4163 2.08903 17.2711 2.01058 15.4051C1.99502 15.035 1.98724 14.85 2.05634 14.7265C2.12545 14.6031 2.40133 14.449 2.95308 14.1409C3.56586 13.7987 3.98007 13.1449 3.98007 12.3945C3.98007 11.6442 3.56586 10.9904 2.95308 10.6482C2.40133 10.3401 2.12545 10.186 2.05634 10.0626C1.98724 9.93911 1.99502 9.75407 2.01058 9.384C2.08903 7.51792 2.34091 6.37276 3.14958 5.5661C4.32407 4.39453 6.21439 4.39453 9.99502 4.39453ZM15.5478 8.8642C15.8415 9.15709 15.8415 9.63197 15.5478 9.92486L9.53289 15.9249C9.23927 16.2178 8.76321 16.2178 8.46959 15.9249C8.17596 15.632 8.17596 15.1571 8.46959 14.8642L14.4845 8.8642C14.7782 8.57131 15.2542 8.57131 15.5478 8.8642ZM14.5149 15.8945C15.0686 15.8945 15.5174 15.4468 15.5174 14.8945C15.5174 14.3422 15.0686 13.8945 14.5149 13.8945C13.9613 13.8945 13.5124 14.3422 13.5124 14.8945C13.5124 15.4468 13.9613 15.8945 14.5149 15.8945ZM9.50248 10.8945C10.0561 10.8945 10.505 10.4468 10.505 9.89453C10.505 9.34225 10.0561 8.89453 9.50248 8.89453C8.94882 8.89453 8.49999 9.34225 8.49999 9.89453C8.49999 10.4468 8.94882 10.8945 9.50248 10.8945Z" fill="#004DD1"/>
</svg>