<svg width="60" height="60" viewBox="0 0 60 60" fill="none" xmlns="http://www.w3.org/2000/svg">
<rect width="60" height="60" rx="30" fill="#004DD1"/>
<path d="M24.4844 38H14.5039V35.9004L18.0879 32.2773C18.8105 31.5352 19.39 30.9167 19.8262 30.4219C20.2689 29.9206 20.5879 29.4648 20.7832 29.0547C20.985 28.6445 21.0859 28.2051 21.0859 27.7363C21.0859 27.1699 20.9264 26.7467 20.6074 26.4668C20.2949 26.1803 19.875 26.0371 19.3477 26.0371C18.7943 26.0371 18.2572 26.1641 17.7363 26.418C17.2155 26.6719 16.6719 27.0332 16.1055 27.502L14.4648 25.5586C14.875 25.207 15.3079 24.875 15.7637 24.5625C16.2259 24.25 16.7598 23.9993 17.3652 23.8105C17.9772 23.6152 18.7096 23.5176 19.5625 23.5176C20.5 23.5176 21.304 23.6868 21.9746 24.0254C22.6517 24.3639 23.1725 24.8262 23.5371 25.4121C23.9017 25.9915 24.084 26.6491 24.084 27.3848C24.084 28.1725 23.9277 28.8919 23.6152 29.543C23.3027 30.194 22.847 30.8385 22.248 31.4766C21.6556 32.1146 20.9395 32.821 20.0996 33.5957L18.2637 35.3242V35.4609H24.4844V38Z" fill="white"/>
<path d="M30.124 27.0059L26.4053 37H25.2842L29.0098 27.0059H30.124ZM35.1963 37H34.0889V29.918C34.0889 29.6491 34.0889 29.4189 34.0889 29.2275C34.0934 29.0316 34.098 28.8538 34.1025 28.6943C34.1117 28.5303 34.123 28.3639 34.1367 28.1953C33.9954 28.3411 33.8633 28.4665 33.7402 28.5713C33.6172 28.6715 33.4645 28.7969 33.2822 28.9473L32.1406 29.8633L31.5459 29.0908L34.2529 27.0059H35.1963V37ZM45.5869 31.9893C45.5869 32.8005 45.5254 33.5251 45.4023 34.1631C45.2793 34.8011 45.0856 35.3411 44.8213 35.7832C44.557 36.2253 44.2152 36.5625 43.7959 36.7949C43.3766 37.0228 42.873 37.1367 42.2852 37.1367C41.5423 37.1367 40.9271 36.9339 40.4395 36.5283C39.9564 36.1227 39.5941 35.5371 39.3525 34.7715C39.1156 34.0013 38.9971 33.0739 38.9971 31.9893C38.9971 30.9229 39.1042 30.0068 39.3184 29.2412C39.5371 28.471 39.888 27.8809 40.3711 27.4707C40.8542 27.056 41.4922 26.8486 42.2852 26.8486C43.0371 26.8486 43.6569 27.0537 44.1445 27.4639C44.6322 27.8695 44.9945 28.4574 45.2314 29.2275C45.4684 29.9932 45.5869 30.9137 45.5869 31.9893ZM40.1387 31.9893C40.1387 32.9189 40.2093 33.6937 40.3506 34.3135C40.4919 34.9333 40.7197 35.3981 41.0342 35.708C41.3532 36.0133 41.7702 36.166 42.2852 36.166C42.8001 36.166 43.2148 36.0133 43.5293 35.708C43.8483 35.4027 44.0785 34.9401 44.2197 34.3203C44.3656 33.7005 44.4385 32.9235 44.4385 31.9893C44.4385 31.0732 44.3678 30.3076 44.2266 29.6924C44.0853 29.0726 43.8574 28.6077 43.543 28.2979C43.2285 27.9834 42.8092 27.8262 42.2852 27.8262C41.7611 27.8262 41.3418 27.9834 41.0273 28.2979C40.7129 28.6077 40.485 29.0726 40.3438 29.6924C40.207 30.3076 40.1387 31.0732 40.1387 31.9893Z" fill="white"/>
</svg>
