<svg width="48" height="48" viewBox="0 0 48 48" fill="none" xmlns="http://www.w3.org/2000/svg">
<circle cx="24" cy="24" r="24" fill="#F6F6F6"/>
<g clip-path="url(#clip0_6017_25204)">
<path d="M34.75 25.1243H16.75V16.6868C16.7491 16.369 16.8113 16.0543 16.9329 15.7607C17.0545 15.4671 17.2331 15.2006 17.4584 14.9765L17.4772 14.9578C17.8303 14.6052 18.2836 14.3702 18.7752 14.285C19.2669 14.1997 19.7729 14.2683 20.224 14.4814C19.7979 15.1899 19.6208 16.0205 19.7209 16.8411C19.8209 17.6618 20.1923 18.4255 20.7761 19.0108L21.2895 19.5242L20.3446 20.4691L21.4052 21.5297L22.3501 20.5848L27.5855 15.3495L28.5303 14.4046L27.4697 13.344L26.5248 14.2888L26.0115 13.7755C25.3969 13.1626 24.5867 12.7848 23.7222 12.7079C22.8576 12.6311 21.9935 12.86 21.2804 13.3548C20.5285 12.8799 19.6373 12.6749 18.7535 12.7734C17.8696 12.8719 17.0455 13.2682 16.4166 13.897L16.3978 13.9158C16.0328 14.2788 15.7434 14.7106 15.5464 15.1863C15.3493 15.6619 15.2486 16.1719 15.25 16.6868V25.1243H13.75V26.6243H15.25V28.0633C15.25 28.1842 15.2695 28.3044 15.3077 28.4191L16.7031 32.605C16.7776 32.8291 16.9208 33.0241 17.1123 33.1621C17.3039 33.3002 17.5341 33.3745 17.7703 33.3743H18.375L17.8281 35.2493H19.3906L19.9375 33.3743H29.6922L30.2547 35.2493H31.8203L31.2578 33.3743H32.2295C32.4657 33.3745 32.696 33.3003 32.8876 33.1622C33.0792 33.0241 33.2224 32.8291 33.2969 32.605L34.6922 28.4191C34.7304 28.3044 34.75 28.1842 34.75 28.0633V26.6243H36.25V25.1243H34.75ZM21.8369 14.8361C22.2501 14.4238 22.8101 14.1922 23.3939 14.1922C23.9776 14.1922 24.5376 14.4238 24.9508 14.8361L25.4641 15.3495L22.3502 18.4633L21.8369 17.9501C21.4245 17.5368 21.193 16.9769 21.193 16.3931C21.193 15.8093 21.4245 15.2494 21.8369 14.8361V14.8361ZM33.25 28.0024L31.9594 31.8743H18.0406L16.75 28.0024V26.6243H33.25V28.0024Z" fill="#004DD1"/>
</g>
<defs>
<clipPath id="clip0_6017_25204">
<rect width="24" height="24" fill="white" transform="translate(13 12)"/>
</clipPath>
</defs>
</svg>
