<svg width="22" height="22" viewBox="0 0 22 22" fill="none" xmlns="http://www.w3.org/2000/svg">
<path d="M10.6406 17.1875C10.6406 17.3698 10.7131 17.5447 10.842 17.6736C10.9709 17.8026 11.1458 17.875 11.3281 17.875C11.4641 17.875 11.597 17.8347 11.7101 17.7591C11.8231 17.6836 11.9113 17.5762 11.9633 17.4506C12.0153 17.325 12.0289 17.1867 12.0024 17.0534C11.9759 16.92 11.9104 16.7975 11.8143 16.7014C11.7181 16.6052 11.5956 16.5397 11.4623 16.5132C11.3289 16.4867 11.1907 16.5003 11.065 16.5523C10.9394 16.6044 10.832 16.6925 10.7565 16.8055C10.6809 16.9186 10.6406 17.0515 10.6406 17.1875Z" fill="#2A2A33"/>
<path d="M19.5112 4.125C19.1911 3.69808 18.7759 3.35156 18.2985 3.11291C17.8212 2.87425 17.2949 2.75 16.7612 2.75H16.3625C16.2215 2.35101 15.9611 2.00506 15.6167 1.75908C15.2724 1.51311 14.8607 1.37902 14.4375 1.375H8.25C7.70299 1.375 7.17839 1.5923 6.79159 1.97909C6.4048 2.36589 6.1875 2.89049 6.1875 3.4375H6.14625C6.06439 3.04931 5.85178 2.70098 5.54395 2.45071C5.23612 2.20045 4.85172 2.06341 4.455 2.0625H3.7675C3.31342 2.06793 2.87978 2.25213 2.56061 2.57516C2.24144 2.89819 2.06247 3.33401 2.0625 3.78813V7.22563C2.06793 7.68153 2.25285 8.11692 2.57717 8.43738C2.90149 8.75784 3.33906 8.93753 3.795 8.9375H4.4825C4.87922 8.93659 5.26362 8.79955 5.57145 8.54929C5.87928 8.29902 6.09189 7.95069 6.17375 7.5625H6.1875C6.1875 8.10951 6.4048 8.63411 6.79159 9.02091C7.17839 9.4077 7.70299 9.625 8.25 9.625H8.855L8.25 17.4281V17.5381C8.23907 18.1235 8.39825 18.6994 8.70822 19.1961C9.01818 19.6928 9.46562 20.0889 9.99625 20.3362C10.4699 20.5593 10.9922 20.6594 11.5149 20.6272C12.0375 20.5949 12.5435 20.4315 12.9862 20.1519C13.4289 19.8723 13.794 19.4856 14.0476 19.0275C14.3013 18.5695 14.4354 18.0548 14.4375 17.5312V17.4281L13.8325 9.625H14.4375C14.9845 9.625 15.5091 9.4077 15.8959 9.02091C16.2827 8.63411 16.5 8.10951 16.5 7.5625V6.875H16.9606L17.5106 7.05375C17.6983 7.11954 17.8961 7.15211 18.095 7.15C18.5351 7.15456 18.9625 7.00199 19.3002 6.71972C19.6379 6.43744 19.8639 6.04396 19.9375 5.61C19.9724 5.34647 19.9526 5.07856 19.8793 4.82304C19.8059 4.56751 19.6806 4.32988 19.5112 4.125ZM13.0625 17.5312C13.0625 17.9871 12.8814 18.4243 12.5591 18.7466C12.2368 19.0689 11.7996 19.25 11.3438 19.25C10.8879 19.25 10.4507 19.0689 10.1284 18.7466C9.80608 18.4243 9.625 17.9871 9.625 17.5312L10.2231 9.625H12.4369L13.0625 17.5312ZM18.0812 5.775H17.9231L17.38 5.58938C17.2404 5.54259 17.0941 5.51936 16.9469 5.52062H15.8125C15.6302 5.52062 15.4553 5.59306 15.3264 5.72199C15.1974 5.85092 15.125 6.02579 15.125 6.20812V7.58312C15.125 7.76546 15.0526 7.94033 14.9236 8.06926C14.7947 8.19819 14.6198 8.27062 14.4375 8.27062H8.25C8.06766 8.27062 7.8928 8.19819 7.76386 8.06926C7.63493 7.94033 7.5625 7.76546 7.5625 7.58312V6.875C7.5625 6.69266 7.49007 6.5178 7.36114 6.38886C7.2322 6.25993 7.05734 6.1875 6.875 6.1875H5.5C5.31766 6.1875 5.1428 6.25993 5.01386 6.38886C4.88493 6.5178 4.8125 6.69266 4.8125 6.875V7.205C4.8125 7.29981 4.77483 7.39075 4.70779 7.45779C4.64075 7.52483 4.54981 7.5625 4.455 7.5625H3.7675C3.67753 7.55556 3.59351 7.51485 3.53231 7.44854C3.4711 7.38224 3.43723 7.29524 3.4375 7.205V3.7675C3.44444 3.67753 3.48515 3.59351 3.55146 3.53231C3.61776 3.4711 3.70476 3.43723 3.795 3.4375H4.4825C4.57247 3.44444 4.65649 3.48515 4.71769 3.55146C4.7789 3.61776 4.81277 3.70476 4.8125 3.795V4.125C4.8125 4.30734 4.88493 4.4822 5.01386 4.61114C5.1428 4.74007 5.31766 4.8125 5.5 4.8125H6.875C7.05734 4.8125 7.2322 4.74007 7.36114 4.61114C7.49007 4.4822 7.5625 4.30734 7.5625 4.125V3.4375C7.5625 3.25516 7.63493 3.0803 7.76386 2.95136C7.8928 2.82243 8.06766 2.75 8.25 2.75H14.4375C14.6198 2.75 14.7947 2.82243 14.9236 2.95136C15.0526 3.0803 15.125 3.25516 15.125 3.4375C15.125 3.61984 15.1974 3.7947 15.3264 3.92364C15.4553 4.05257 15.6302 4.125 15.8125 4.125H16.7681C17.1072 4.126 17.4408 4.2106 17.7394 4.37129C18.038 4.53197 18.2924 4.7638 18.48 5.04625C18.528 5.11737 18.5554 5.2003 18.5594 5.28599C18.5634 5.37167 18.5437 5.45679 18.5025 5.53204C18.4613 5.60729 18.4003 5.66975 18.326 5.71261C18.2517 5.75546 18.167 5.77705 18.0812 5.775Z" fill="#2A2A33"/>
</svg>
