<svg width="48" height="48" viewBox="0 0 48 48" fill="none" xmlns="http://www.w3.org/2000/svg">
<circle cx="24" cy="24" r="24" fill="#F6F6F6"/>
<path d="M16.5 18.75C16.5 17.7554 16.8951 16.8016 17.5983 16.0983C18.3016 15.3951 19.2554 15 20.25 15H27.75C28.7446 15 29.6984 15.3951 30.4017 16.0983C31.1049 16.8016 31.5 17.7554 31.5 18.75V21.075C32.347 21.2479 33.1083 21.7081 33.655 22.3778C34.2017 23.0475 34.5002 23.8855 34.5 24.75V32.25C34.5 32.4489 34.421 32.6397 34.2803 32.7803C34.1397 32.921 33.9489 33 33.75 33C33.5511 33 33.3603 32.921 33.2197 32.7803C33.079 32.6397 33 32.4489 33 32.25V28.5H15V32.25C15 32.4489 14.921 32.6397 14.7803 32.7803C14.6397 32.921 14.4489 33 14.25 33C14.0511 33 13.8603 32.921 13.7197 32.7803C13.579 32.6397 13.5 32.4489 13.5 32.25V24.75C13.4998 23.8855 13.7983 23.0475 14.345 22.3778C14.8917 21.7081 15.653 21.2479 16.5 21.075V18.75ZM15 27H33V24.75C33 24.1533 32.7629 23.581 32.341 23.159C31.919 22.7371 31.3467 22.5 30.75 22.5H17.25C16.6533 22.5 16.081 22.7371 15.659 23.159C15.2371 23.581 15 24.1533 15 24.75V27ZM30 18.75C30 18.1533 29.7629 17.581 29.341 17.159C28.919 16.7371 28.3467 16.5 27.75 16.5H20.25C19.6533 16.5 19.081 16.7371 18.659 17.159C18.2371 17.581 18 18.1533 18 18.75V21H19.5V20.25C19.5 20.0511 19.579 19.8603 19.7197 19.7197C19.8603 19.579 20.0511 19.5 20.25 19.5H22.5C22.6989 19.5 22.8897 19.579 23.0303 19.7197C23.171 19.8603 23.25 20.0511 23.25 20.25V21H24.75V20.25C24.75 20.0511 24.829 19.8603 24.9697 19.7197C25.1103 19.579 25.3011 19.5 25.5 19.5H27.75C27.9489 19.5 28.1397 19.579 28.2803 19.7197C28.421 19.8603 28.5 20.0511 28.5 20.25V21H30V18.75Z" fill="#004DD1"/>
</svg>
