<svg width="22" height="22" viewBox="0 0 22 22" fill="none" xmlns="http://www.w3.org/2000/svg">
<path d="M19.4838 4.85384L9.85875 1.41634C9.7545 1.37797 9.64251 1.36543 9.53235 1.3798C9.4222 1.39417 9.31717 1.43501 9.22625 1.49884C9.13645 1.56278 9.06334 1.64737 9.01309 1.74548C8.96283 1.8436 8.93691 1.95236 8.9375 2.06259V11.2407L7.33563 9.80384C7.2093 9.68983 7.04517 9.62671 6.875 9.62671C6.70483 9.62671 6.5407 9.68983 6.41437 9.80384L2.41312 13.3926C2.30352 13.4918 2.21575 13.6127 2.15538 13.7476C2.09502 13.8825 2.06339 14.0285 2.0625 14.1763V19.752C2.0625 19.9835 2.15449 20.2056 2.31823 20.3694C2.48198 20.5331 2.70406 20.6251 2.93562 20.6251H19.25C19.4323 20.6251 19.6072 20.5527 19.7361 20.4237C19.8651 20.2948 19.9375 20.1199 19.9375 19.9376V5.50009C19.9374 5.3588 19.8938 5.22096 19.8127 5.10532C19.7315 4.98969 19.6166 4.90188 19.4838 4.85384ZM7.5625 19.2501H6.1875V17.1876H7.5625V19.2501ZM10.3125 19.2501H8.9375V16.8438C8.9375 16.5703 8.82885 16.308 8.63545 16.1146C8.44206 15.9212 8.17975 15.8126 7.90625 15.8126H5.84375C5.57025 15.8126 5.30794 15.9212 5.11455 16.1146C4.92115 16.308 4.8125 16.5703 4.8125 16.8438V19.2501H3.4375V14.3207L6.875 11.2338L10.3125 14.3207V19.2501ZM18.5625 19.2501H11.6875V14.1763C11.6866 14.0285 11.655 13.8825 11.5946 13.7476C11.5343 13.6127 11.4465 13.4918 11.3369 13.3926L10.3125 12.4576V3.03884L18.5625 5.98822V19.2501Z" fill="#2A2A33"/>
<path d="M16.5 8.9375V15.8125C16.5 15.9948 16.4276 16.1697 16.2986 16.2986C16.1697 16.4276 15.9948 16.5 15.8125 16.5C15.6302 16.5 15.4553 16.4276 15.3264 16.2986C15.1974 16.1697 15.125 15.9948 15.125 15.8125V8.9375C15.125 8.75516 15.1974 8.5803 15.3264 8.45136C15.4553 8.32243 15.6302 8.25 15.8125 8.25C15.9948 8.25 16.1697 8.32243 16.2986 8.45136C16.4276 8.5803 16.5 8.75516 16.5 8.9375ZM13.75 7.5625V15.8125C13.75 15.9948 13.6776 16.1697 13.5486 16.2986C13.4197 16.4276 13.2448 16.5 13.0625 16.5C12.8802 16.5 12.7053 16.4276 12.5764 16.2986C12.4474 16.1697 12.375 15.9948 12.375 15.8125V7.5625C12.375 7.38016 12.4474 7.2053 12.5764 7.07636C12.7053 6.94743 12.8802 6.875 13.0625 6.875C13.2448 6.875 13.4197 6.94743 13.5486 7.07636C13.6776 7.2053 13.75 7.38016 13.75 7.5625Z" fill="#2A2A33"/>
</svg>
