<svg width="20" height="20" viewBox="0 0 20 20" fill="none" xmlns="http://www.w3.org/2000/svg">
<mask id="mask0_4036_26612" style="mask-type:alpha" maskUnits="userSpaceOnUse" x="0" y="0" width="20" height="20">
<rect width="20" height="20" fill="#D9D9D9"/>
</mask>
<g mask="url(#mask0_4036_26612)">
<path d="M4.16667 18.3327C3.70833 18.3327 3.31597 18.1695 2.98958 17.8431C2.66319 17.5167 2.5 17.1243 2.5 16.666V4.99935C2.5 4.54102 2.66319 4.14865 2.98958 3.82227C3.31597 3.49588 3.70833 3.33268 4.16667 3.33268H5V2.49935C5 2.26324 5.07986 2.06532 5.23958 1.9056C5.39931 1.74588 5.59722 1.66602 5.83333 1.66602C6.06944 1.66602 6.26736 1.74588 6.42708 1.9056C6.58681 2.06532 6.66667 2.26324 6.66667 2.49935V3.33268H13.3333V2.49935C13.3333 2.26324 13.4132 2.06532 13.5729 1.9056C13.7326 1.74588 13.9306 1.66602 14.1667 1.66602C14.4028 1.66602 14.6007 1.74588 14.7604 1.9056C14.9201 2.06532 15 2.26324 15 2.49935V3.33268H15.8333C16.2917 3.33268 16.684 3.49588 17.0104 3.82227C17.3368 4.14865 17.5 4.54102 17.5 4.99935V16.666C17.5 17.1243 17.3368 17.5167 17.0104 17.8431C16.684 18.1695 16.2917 18.3327 15.8333 18.3327H4.16667ZM4.16667 16.666H15.8333V8.33268H4.16667V16.666ZM4.16667 6.66602H15.8333V4.99935H4.16667V6.66602Z" fill="white"/>
</g>
</svg>
