<svg width="48" height="48" viewBox="0 0 48 48" fill="none" xmlns="http://www.w3.org/2000/svg">
<circle cx="24" cy="24" r="24" fill="#F6F6F6"/>
<path d="M24 36.4443C22.34 36.4443 20.78 36.1293 19.32 35.4993C17.86 34.8693 16.59 34.0143 15.51 32.9343C14.43 31.8543 13.575 30.5843 12.945 29.1243C12.315 27.6643 12 26.1043 12 24.4443C12 22.7843 12.315 21.2243 12.945 19.7643C13.575 18.3043 14.43 17.0343 15.51 15.9543C16.59 14.8743 17.86 14.0193 19.32 13.3893C20.78 12.7593 22.34 12.4443 24 12.4443C25.66 12.4443 27.22 12.7593 28.68 13.3893C30.14 14.0193 31.41 14.8743 32.49 15.9543C33.57 17.0343 34.425 18.3043 35.055 19.7643C35.685 21.2243 36 22.7843 36 24.4443C36 26.1043 35.685 27.6643 35.055 29.1243C34.425 30.5843 33.57 31.8543 32.49 32.9343C31.41 34.0143 30.14 34.8693 28.68 35.4993C27.22 36.1293 25.66 36.4443 24 36.4443ZM24 34.0443C26.68 34.0443 28.95 33.1143 30.81 31.2543C32.67 29.3943 33.6 27.1243 33.6 24.4443C33.6 21.7643 32.67 19.4943 30.81 17.6343C28.95 15.7743 26.68 14.8443 24 14.8443C21.32 14.8443 19.05 15.7743 17.19 17.6343C15.33 19.4943 14.4 21.7643 14.4 24.4443C14.4 27.1243 15.33 29.3943 17.19 31.2543C19.05 33.1143 21.32 34.0443 24 34.0443ZM23.97 32.8443C24.25 32.8443 24.495 32.7393 24.705 32.5293C24.915 32.3193 25.02 32.0743 25.02 31.7943V31.3443C26.02 31.1643 26.88 30.7743 27.6 30.1743C28.32 29.5743 28.68 28.6843 28.68 27.5043C28.68 26.6643 28.44 25.8943 27.96 25.1943C27.48 24.4943 26.52 23.8843 25.08 23.3643C23.88 22.9643 23.05 22.6143 22.59 22.3143C22.13 22.0143 21.9 21.6043 21.9 21.0843C21.9 20.5643 22.085 20.1543 22.455 19.8543C22.825 19.5543 23.36 19.4043 24.06 19.4043C24.46 19.4043 24.81 19.4743 25.11 19.6143C25.41 19.7543 25.66 19.9443 25.86 20.1843C26.06 20.4243 26.285 20.5893 26.535 20.6793C26.785 20.7693 27.02 20.7643 27.24 20.6643C27.54 20.5443 27.745 20.3393 27.855 20.0493C27.965 19.7593 27.94 19.4943 27.78 19.2543C27.46 18.7943 27.065 18.4043 26.595 18.0843C26.125 17.7643 25.62 17.5843 25.08 17.5443V17.0943C25.08 16.8143 24.975 16.5693 24.765 16.3593C24.555 16.1493 24.31 16.0443 24.03 16.0443C23.75 16.0443 23.505 16.1493 23.295 16.3593C23.085 16.5693 22.98 16.8143 22.98 17.0943V17.5443C21.98 17.7643 21.2 18.2043 20.64 18.8643C20.08 19.5243 19.8 20.2643 19.8 21.0843C19.8 22.0243 20.075 22.7843 20.625 23.3643C21.175 23.9443 22.04 24.4443 23.22 24.8643C24.48 25.3243 25.355 25.7343 25.845 26.0943C26.335 26.4543 26.58 26.9243 26.58 27.5043C26.58 28.1643 26.345 28.6493 25.875 28.9593C25.405 29.2693 24.84 29.4243 24.18 29.4243C23.66 29.4243 23.19 29.2993 22.77 29.0493C22.35 28.7993 22 28.4243 21.72 27.9243C21.56 27.6443 21.35 27.4543 21.09 27.3543C20.83 27.2543 20.57 27.2543 20.31 27.3543C20.03 27.4543 19.825 27.6443 19.695 27.9243C19.565 28.2043 19.56 28.4743 19.68 28.7343C20 29.4143 20.43 29.9693 20.97 30.3993C21.51 30.8293 22.16 31.1243 22.92 31.2843V31.7943C22.92 32.0743 23.025 32.3193 23.235 32.5293C23.445 32.7393 23.69 32.8443 23.97 32.8443Z" fill="#004DD1"/>
</svg>
