<svg width="26" height="26" viewBox="0 0 26 26" fill="none" xmlns="http://www.w3.org/2000/svg">
<g style="mix-blend-mode:multiply">
<rect width="26" height="26" rx="13" fill="#FEE4E2"/>
<path d="M13.0001 10.0009V13.0009M13.0001 16.0009H13.0076M11.7176 6.14589L5.36508 16.7509C5.2341 16.9777 5.1648 17.2349 5.16407 17.4968C5.16334 17.7587 5.23119 18.0162 5.3609 18.2438C5.4906 18.4713 5.67762 18.6609 5.90336 18.7938C6.12909 18.9266 6.38568 18.998 6.64758 19.0009H19.3526C19.6145 18.998 19.8711 18.9266 20.0968 18.7938C20.3225 18.6609 20.5096 18.4713 20.6393 18.2438C20.769 18.0162 20.8368 17.7587 20.8361 17.4968C20.8354 17.2349 20.7661 16.9777 20.6351 16.7509L14.2826 6.14589C14.1489 5.92547 13.9606 5.74323 13.736 5.61675C13.5113 5.49027 13.2579 5.42383 13.0001 5.42383C12.7423 5.42383 12.4888 5.49027 12.2642 5.61675C12.0395 5.74323 11.8513 5.92547 11.7176 6.14589Z" stroke="#F04438" stroke-width="2" stroke-linecap="round" stroke-linejoin="round"/>
</g>
</svg>
