<svg width="32" height="32" viewBox="0 0 32 32" fill="none" xmlns="http://www.w3.org/2000/svg">
<rect width="32" height="32" rx="16" fill="#E4E7EC"/>
<path d="M17.3307 9.51362V12.2673C17.3307 12.6407 17.3307 12.8274 17.4034 12.97C17.4673 13.0954 17.5693 13.1974 17.6947 13.2613C17.8373 13.334 18.024 13.334 18.3974 13.334H21.1511M21.3307 14.6595V19.4673C21.3307 20.5874 21.3307 21.1475 21.1127 21.5753C20.921 21.9516 20.615 22.2576 20.2387 22.4493C19.8109 22.6673 19.2508 22.6673 18.1307 22.6673H13.8641C12.744 22.6673 12.1839 22.6673 11.7561 22.4493C11.3798 22.2576 11.0738 21.9516 10.882 21.5753C10.6641 21.1475 10.6641 20.5874 10.6641 19.4673V12.534C10.6641 11.4139 10.6641 10.8538 10.882 10.426C11.0738 10.0497 11.3798 9.74372 11.7561 9.55197C12.1839 9.33398 12.744 9.33398 13.8641 9.33398H16.0052C16.4944 9.33398 16.739 9.33398 16.9692 9.38924C17.1733 9.43824 17.3684 9.51905 17.5473 9.6287C17.7491 9.75239 17.9221 9.92534 18.268 10.2712L20.3935 12.3967C20.7394 12.7426 20.9123 12.9156 21.036 13.1174C21.1457 13.2964 21.2265 13.4914 21.2755 13.6955C21.3307 13.9257 21.3307 14.1703 21.3307 14.6595Z" stroke="#004DD1" stroke-width="1.33333" stroke-linecap="round" stroke-linejoin="round"/>
</svg>
