<svg width="14" height="14" viewBox="0 0 14 14" fill="none" xmlns="http://www.w3.org/2000/svg">
<path d="M7.225 2.125C8.875 2.125 9.1 2.125 9.775 2.125C10.375 2.125 10.675 2.275 10.9 2.35C11.2 2.5 11.425 2.575 11.65 2.8C11.875 3.025 12.025 3.25 12.1 3.55C12.175 3.775 12.25 4.075 12.325 4.675C12.325 5.35 12.325 5.5 12.325 7.225C12.325 8.95 12.325 9.1 12.325 9.775C12.325 10.375 12.175 10.675 12.1 10.9C11.95 11.2 11.875 11.425 11.65 11.65C11.425 11.875 11.2 12.025 10.9 12.1C10.675 12.175 10.375 12.25 9.775 12.325C9.1 12.325 8.95 12.325 7.225 12.325C5.5 12.325 5.35 12.325 4.675 12.325C4.075 12.325 3.775 12.175 3.55 12.1C3.25 11.95 3.025 11.875 2.8 11.65C2.575 11.425 2.425 11.2 2.35 10.9C2.275 10.675 2.2 10.375 2.125 9.775C2.125 9.1 2.125 8.95 2.125 7.225C2.125 5.5 2.125 5.35 2.125 4.675C2.125 4.075 2.275 3.775 2.35 3.55C2.5 3.25 2.575 3.025 2.8 2.8C3.025 2.575 3.25 2.425 3.55 2.35C3.775 2.275 4.075 2.2 4.675 2.125C5.35 2.125 5.575 2.125 7.225 2.125ZM7.225 1C5.5 1 5.35 1 4.675 1C4 1 3.55 1.15 3.175 1.3C2.8 1.45 2.425 1.675 2.05 2.05C1.675 2.425 1.525 2.725 1.3 3.175C1.15 3.55 1.075 4 1 4.675C1 5.35 1 5.575 1 7.225C1 8.95 1 9.1 1 9.775C1 10.45 1.15 10.9 1.3 11.275C1.45 11.65 1.675 12.025 2.05 12.4C2.425 12.775 2.725 12.925 3.175 13.15C3.55 13.3 4 13.375 4.675 13.45C5.35 13.45 5.575 13.45 7.225 13.45C8.875 13.45 9.1 13.45 9.775 13.45C10.45 13.45 10.9 13.3 11.275 13.15C11.65 13 12.025 12.775 12.4 12.4C12.775 12.025 12.925 11.725 13.15 11.275C13.3 10.9 13.375 10.45 13.45 9.775C13.45 9.1 13.45 8.875 13.45 7.225C13.45 5.575 13.45 5.35 13.45 4.675C13.45 4 13.3 3.55 13.15 3.175C13 2.8 12.775 2.425 12.4 2.05C12.025 1.675 11.725 1.525 11.275 1.3C10.9 1.15 10.45 1.075 9.775 1C9.1 1 8.95 1 7.225 1Z" fill="#004DD1"/>
<path d="M7.225 4C5.425 4 4 5.425 4 7.225C4 9.025 5.425 10.45 7.225 10.45C9.025 10.45 10.45 9.025 10.45 7.225C10.45 5.425 9.025 4 7.225 4ZM7.225 9.325C6.1 9.325 5.125 8.425 5.125 7.225C5.125 6.1 6.025 5.125 7.225 5.125C8.35 5.125 9.325 6.025 9.325 7.225C9.325 8.35 8.35 9.325 7.225 9.325Z" fill="#004DD1"/>
<path d="M10.525 4.675C10.9392 4.675 11.275 4.33921 11.275 3.925C11.275 3.51079 10.9392 3.175 10.525 3.175C10.1108 3.175 9.775 3.51079 9.775 3.925C9.775 4.33921 10.1108 4.675 10.525 4.675Z" fill="#004DD1"/>
</svg>
