<svg width="31" height="31" viewBox="0 0 31 31" fill="none" xmlns="http://www.w3.org/2000/svg">
<rect width="30.0703" height="30.0703" rx="15.0352" fill="#E6EDFA"/>
<path d="M11.76 21.3358C13.146 22.787 15.3615 21.6976 13.5764 24.2427C12.1489 26.2796 10.1661 24.0447 9.56372 22.5711C10.591 22.3899 11.4374 21.684 11.76 21.3358Z" fill="#004DD1"/>
<path d="M10.5342 10.0133C9.50736 13.3211 8.6515 14.5302 7.82843 15.0823C7.00536 15.6344 3.58126 17.2965 5.69342 20.4033C7.38314 22.8888 10.0245 21.7582 11.1321 20.8819C8.55128 19.2481 8.15434 17.2446 8.313 16.2651C9.45102 19.2318 11.2183 19.951 11.9551 20.3297C13.4751 19.6275 14.0082 19.589 16.7646 19.8828C21.5485 20.3926 18.7919 15.1086 17.0503 12.5468C15.457 10.203 11.5611 6.70544 10.5342 10.0133ZM17.6841 18.1211C17.1645 18.5083 15.3147 17.7206 13.6568 15.2821C11.9989 12.8435 11.5782 10.8944 12.2277 10.5072C12.8773 10.1201 14.598 11.1669 16.2551 13.6044C17.9122 16.0419 18.2038 17.734 17.6841 18.1211Z" fill="#004DD1"/>
<path fill-rule="evenodd" clip-rule="evenodd" d="M23.4684 8.24921C23.7421 8.68457 23.6214 9.26792 23.1987 9.55215L19.4889 12.0472C19.0663 12.3315 18.5018 12.209 18.2281 11.7736C17.9544 11.3383 18.0751 10.7549 18.4977 10.4707L22.2076 7.97558C22.6302 7.69134 23.1947 7.81385 23.4684 8.24921Z" fill="#004DD1"/>
<path fill-rule="evenodd" clip-rule="evenodd" d="M24.9849 14.1555C24.9929 14.6625 24.5857 15.0789 24.0754 15.0856L20.2003 15.1363C19.69 15.1429 19.2699 14.7373 19.2619 14.2303C19.2539 13.7233 19.6611 13.3069 20.1714 13.3003L24.0464 13.2496C24.5567 13.2429 24.9769 13.6485 24.9849 14.1555Z" fill="#004DD1"/>
<path fill-rule="evenodd" clip-rule="evenodd" d="M18.6768 5.08549C19.121 5.28336 19.3268 5.81803 19.1364 6.27972L17.8827 9.32001C17.6924 9.7817 17.1779 9.99557 16.7337 9.7977C16.2895 9.59983 16.0837 9.06516 16.2741 8.60347L17.5278 5.56318C17.7181 5.10149 18.2326 4.88762 18.6768 5.08549Z" fill="#004DD1"/>
</svg>
