<svg width="20" height="21" viewBox="0 0 20 21" fill="none" xmlns="http://www.w3.org/2000/svg">
<mask id="mask0_6001_12242" style="mask-type:alpha" maskUnits="userSpaceOnUse" x="0" y="0" width="20" height="21">
<rect y="0.554688" width="20" height="20" fill="#D9D9D9"/>
</mask>
<g mask="url(#mask0_6001_12242)">
<path d="M1.66797 16.3874V11.3874C1.66797 11.0124 1.74436 10.6721 1.89714 10.3665C2.04991 10.061 2.2513 9.79015 2.5013 9.55404V7.2207C2.5013 6.52626 2.74436 5.93598 3.23047 5.44987C3.71658 4.96376 4.30686 4.7207 5.0013 4.7207H8.33464C8.65408 4.7207 8.95269 4.77973 9.23047 4.89779C9.50825 5.01584 9.76519 5.17904 10.0013 5.38737C10.2374 5.17904 10.4944 5.01584 10.7721 4.89779C11.0499 4.77973 11.3485 4.7207 11.668 4.7207H15.0013C15.6957 4.7207 16.286 4.96376 16.7721 5.44987C17.2582 5.93598 17.5013 6.52626 17.5013 7.2207V9.55404C17.7513 9.79015 17.9527 10.061 18.1055 10.3665C18.2582 10.6721 18.3346 11.0124 18.3346 11.3874V16.3874H16.668V14.7207H3.33464V16.3874H1.66797ZM10.8346 8.88737H15.8346V7.2207C15.8346 6.98459 15.7548 6.78668 15.5951 6.62695C15.4353 6.46723 15.2374 6.38737 15.0013 6.38737H11.668C11.4319 6.38737 11.2339 6.46723 11.0742 6.62695C10.9145 6.78668 10.8346 6.98459 10.8346 7.2207V8.88737ZM4.16797 8.88737H9.16797V7.2207C9.16797 6.98459 9.08811 6.78668 8.92839 6.62695C8.76866 6.46723 8.57075 6.38737 8.33464 6.38737H5.0013C4.76519 6.38737 4.56727 6.46723 4.40755 6.62695C4.24783 6.78668 4.16797 6.98459 4.16797 7.2207V8.88737ZM3.33464 13.054H16.668V11.3874C16.668 11.1513 16.5881 10.9533 16.4284 10.7936C16.2687 10.6339 16.0707 10.554 15.8346 10.554H4.16797C3.93186 10.554 3.73394 10.6339 3.57422 10.7936C3.4145 10.9533 3.33464 11.1513 3.33464 11.3874V13.054Z" fill="#667085"/>
</g>
</svg>
