<svg width="20" height="21" viewBox="0 0 20 21" fill="none" xmlns="http://www.w3.org/2000/svg">
<mask id="mask0_6001_12248" style="mask-type:alpha" maskUnits="userSpaceOnUse" x="0" y="0" width="20" height="21">
<rect y="0.554688" width="20" height="20" fill="#D9D9D9"/>
</mask>
<g mask="url(#mask0_6001_12248)">
<path d="M5.83464 8.05404C5.3763 8.05404 4.98394 7.89084 4.65755 7.56445C4.33116 7.23806 4.16797 6.8457 4.16797 6.38737C4.16797 5.92904 4.33116 5.53668 4.65755 5.21029C4.98394 4.8839 5.3763 4.7207 5.83464 4.7207C6.29297 4.7207 6.68533 4.8839 7.01172 5.21029C7.33811 5.53668 7.5013 5.92904 7.5013 6.38737C7.5013 6.8457 7.33811 7.23806 7.01172 7.56445C6.68533 7.89084 6.29297 8.05404 5.83464 8.05404ZM4.16797 18.8874C3.93186 18.8874 3.73394 18.8075 3.57422 18.6478C3.4145 18.4881 3.33464 18.2901 3.33464 18.054C2.8763 18.054 2.48394 17.8908 2.15755 17.5645C1.83116 17.2381 1.66797 16.8457 1.66797 16.3874V11.3874H4.16797V10.7624C4.16797 10.2346 4.34852 9.79015 4.70964 9.42904C5.07075 9.06793 5.51519 8.88737 6.04297 8.88737C6.32075 8.88737 6.57769 8.94293 6.8138 9.05404C7.04991 9.16515 7.26519 9.31793 7.45964 9.51237L8.6263 10.804C8.73741 10.9151 8.84505 11.0193 8.94922 11.1165C9.05339 11.2138 9.16797 11.304 9.29297 11.3874H15.0013V4.5957C15.0013 4.40126 14.9319 4.23459 14.793 4.0957C14.6541 3.95681 14.4874 3.88737 14.293 3.88737C14.2096 3.88737 14.1298 3.90473 14.0534 3.93945C13.977 3.97418 13.9041 4.02626 13.8346 4.0957L12.793 5.13737C12.8624 5.37348 12.8763 5.60612 12.8346 5.83529C12.793 6.06445 12.7096 6.27626 12.5846 6.4707L10.293 4.13737C10.4874 4.01237 10.6957 3.93251 10.918 3.89779C11.1402 3.86306 11.3624 3.88737 11.5846 3.9707L12.6263 2.92904C12.8485 2.70681 13.102 2.5332 13.3867 2.4082C13.6714 2.2832 13.9735 2.2207 14.293 2.2207C14.9596 2.2207 15.5221 2.44987 15.9805 2.9082C16.4388 3.36654 16.668 3.92904 16.668 4.5957V11.3874H18.3346V16.3874C18.3346 16.8457 18.1714 17.2381 17.8451 17.5645C17.5187 17.8908 17.1263 18.054 16.668 18.054C16.668 18.2901 16.5881 18.4881 16.4284 18.6478C16.2687 18.8075 16.0707 18.8874 15.8346 18.8874H4.16797ZM3.33464 16.3874H16.668V13.054H3.33464V16.3874Z" fill="#667085"/>
</g>
</svg>
