<svg width="20" height="16" viewBox="0 0 20 16" fill="none" xmlns="http://www.w3.org/2000/svg">
<path d="M19.1654 1.72135V13.388C19.1654 13.8464 19.0022 14.2387 18.6758 14.5651C18.3494 14.8915 17.957 15.0547 17.4987 15.0547H14.9987C14.7626 15.0547 14.5647 14.9748 14.4049 14.8151C14.2452 14.6554 14.1654 14.4575 14.1654 14.2214C14.1654 13.9852 14.2452 13.7873 14.4049 13.6276C14.5647 13.4679 14.7626 13.388 14.9987 13.388H17.4987V1.72135H9.9987V2.13802C9.9987 2.37413 9.91884 2.57205 9.75911 2.73177C9.59939 2.89149 9.40147 2.97135 9.16536 2.97135C8.92925 2.97135 8.73134 2.89149 8.57161 2.73177C8.41189 2.57205 8.33203 2.37413 8.33203 2.13802V1.67969C8.33203 1.23524 8.49175 0.853299 8.8112 0.533854C9.13064 0.21441 9.51259 0.0546875 9.95703 0.0546875H17.4987C17.957 0.0546875 18.3494 0.217882 18.6758 0.544271C19.0022 0.87066 19.1654 1.26302 19.1654 1.72135ZM0.832031 7.57552C0.832031 7.29774 0.894531 7.0408 1.01953 6.80469C1.14453 6.56858 1.31814 6.37413 1.54036 6.22135L5.70703 3.24219C5.85981 3.13108 6.01606 3.05122 6.17578 3.0026C6.3355 2.95399 6.4987 2.92969 6.66536 2.92969C6.83203 2.92969 6.99522 2.95399 7.15495 3.0026C7.31467 3.05122 7.47092 3.13108 7.6237 3.24219L11.7904 6.22135C12.0126 6.37413 12.1862 6.56858 12.3112 6.80469C12.4362 7.0408 12.4987 7.29774 12.4987 7.57552V13.388C12.4987 13.8464 12.3355 14.2387 12.0091 14.5651C11.6827 14.8915 11.2904 15.0547 10.832 15.0547H9.16536C8.70703 15.0547 8.31467 14.8915 7.98828 14.5651C7.66189 14.2387 7.4987 13.8464 7.4987 13.388V10.888H5.83203V13.388C5.83203 13.8464 5.66884 14.2387 5.34245 14.5651C5.01606 14.8915 4.6237 15.0547 4.16536 15.0547H2.4987C2.04036 15.0547 1.648 14.8915 1.32161 14.5651C0.995226 14.2387 0.832031 13.8464 0.832031 13.388V7.57552ZM2.4987 7.55469V13.388H4.16536V10.888C4.16536 10.4297 4.32856 10.0373 4.65495 9.71094C4.98134 9.38455 5.3737 9.22135 5.83203 9.22135H7.4987C7.95703 9.22135 8.34939 9.38455 8.67578 9.71094C9.00217 10.0373 9.16536 10.4297 9.16536 10.888V13.388H10.832V7.55469L6.66536 4.59635L2.4987 7.55469ZM14.582 5.05469H15.4154C15.5265 5.05469 15.6237 5.01302 15.707 4.92969C15.7904 4.84635 15.832 4.74913 15.832 4.63802V3.80469C15.832 3.69358 15.7904 3.59635 15.707 3.51302C15.6237 3.42969 15.5265 3.38802 15.4154 3.38802H14.582C14.4709 3.38802 14.3737 3.42969 14.2904 3.51302C14.207 3.59635 14.1654 3.69358 14.1654 3.80469V4.63802C14.1654 4.74913 14.207 4.84635 14.2904 4.92969C14.3737 5.01302 14.4709 5.05469 14.582 5.05469ZM14.582 8.38802H15.4154C15.5265 8.38802 15.6237 8.34635 15.707 8.26302C15.7904 8.17969 15.832 8.08247 15.832 7.97135V7.13802C15.832 7.02691 15.7904 6.92969 15.707 6.84635C15.6237 6.76302 15.5265 6.72135 15.4154 6.72135H14.582C14.4709 6.72135 14.3737 6.76302 14.2904 6.84635C14.207 6.92969 14.1654 7.02691 14.1654 7.13802V7.97135C14.1654 8.08247 14.207 8.17969 14.2904 8.26302C14.3737 8.34635 14.4709 8.38802 14.582 8.38802ZM14.582 11.7214H15.4154C15.5265 11.7214 15.6237 11.6797 15.707 11.5964C15.7904 11.513 15.832 11.4158 15.832 11.3047V10.4714C15.832 10.3602 15.7904 10.263 15.707 10.1797C15.6237 10.0964 15.5265 10.0547 15.4154 10.0547H14.582C14.4709 10.0547 14.3737 10.0964 14.2904 10.1797C14.207 10.263 14.1654 10.3602 14.1654 10.4714V11.3047C14.1654 11.4158 14.207 11.513 14.2904 11.5964C14.3737 11.6797 14.4709 11.7214 14.582 11.7214Z" fill="#667085"/>
</svg>
