<svg width="18" height="17" viewBox="0 0 18 17" fill="none" xmlns="http://www.w3.org/2000/svg">
<path d="M9.0013 16.8874C7.84852 16.8874 6.76519 16.6686 5.7513 16.2311C4.73741 15.7936 3.85547 15.1999 3.10547 14.4499C2.35547 13.6999 1.76172 12.8179 1.32422 11.804C0.886719 10.7901 0.667969 9.70681 0.667969 8.55404C0.667969 7.40126 0.886719 6.31793 1.32422 5.30404C1.76172 4.29015 2.35547 3.4082 3.10547 2.6582C3.85547 1.9082 4.73741 1.31445 5.7513 0.876953C6.76519 0.439453 7.84852 0.220703 9.0013 0.220703C10.168 0.220703 11.2548 0.439453 12.2617 0.876953C13.2687 1.31445 14.1471 1.9082 14.8971 2.6582C15.6471 3.4082 16.2409 4.28668 16.6784 5.29362C17.1159 6.30056 17.3346 7.38737 17.3346 8.55404C17.3346 8.69293 17.3312 8.82834 17.3242 8.96029C17.3173 9.09223 17.3069 9.2207 17.293 9.3457C17.2652 9.58181 17.1645 9.76237 16.9909 9.88737C16.8173 10.0124 16.6124 10.054 16.3763 10.0124C16.1402 9.9707 15.9527 9.85265 15.8138 9.6582C15.6749 9.46376 15.6194 9.24848 15.6471 9.01237C15.6471 8.94293 15.6506 8.86654 15.6576 8.7832C15.6645 8.69987 15.668 8.62348 15.668 8.55404C15.668 7.62348 15.4978 6.75543 15.1576 5.94987C14.8173 5.14431 14.3416 4.43598 13.7305 3.82487C13.1194 3.21376 12.411 2.73806 11.6055 2.39779C10.7999 2.05751 9.93186 1.88737 9.0013 1.88737C7.14019 1.88737 5.5638 2.5332 4.27214 3.82487C2.98047 5.11654 2.33464 6.69293 2.33464 8.55404C2.33464 10.4151 2.98047 11.9915 4.27214 13.2832C5.5638 14.5749 7.14019 15.2207 9.0013 15.2207C9.6263 15.2207 10.227 15.1408 10.8034 14.9811C11.3798 14.8214 11.9249 14.5818 12.4388 14.2624C12.6332 14.1513 12.8451 14.1096 13.0742 14.1374C13.3034 14.1651 13.4805 14.2763 13.6055 14.4707C13.7444 14.6651 13.7895 14.877 13.7409 15.1061C13.6923 15.3353 13.5707 15.5124 13.3763 15.6374C12.7235 16.0401 12.0326 16.3492 11.3034 16.5645C10.5742 16.7797 9.80686 16.8874 9.0013 16.8874ZM15.043 13.554C14.7513 13.554 14.5048 13.4533 14.3034 13.252C14.102 13.0506 14.0013 12.804 14.0013 12.5124C14.0013 12.2207 14.102 11.9742 14.3034 11.7728C14.5048 11.5714 14.7513 11.4707 15.043 11.4707C15.3346 11.4707 15.5812 11.5714 15.7826 11.7728C15.9839 11.9742 16.0846 12.2207 16.0846 12.5124C16.0846 12.804 15.9839 13.0506 15.7826 13.252C15.5812 13.4533 15.3346 13.554 15.043 13.554ZM9.83464 8.2207L12.3346 10.7207C12.4874 10.8735 12.5638 11.0679 12.5638 11.304C12.5638 11.5401 12.4874 11.7346 12.3346 11.8874C12.1819 12.0401 11.9874 12.1165 11.7513 12.1165C11.5152 12.1165 11.3207 12.0401 11.168 11.8874L8.41797 9.13737C8.33464 9.05404 8.27214 8.96029 8.23047 8.85612C8.1888 8.75195 8.16797 8.64431 8.16797 8.5332V5.2207C8.16797 4.98459 8.24783 4.78668 8.40755 4.62695C8.56728 4.46723 8.76519 4.38737 9.0013 4.38737C9.23741 4.38737 9.43533 4.46723 9.59505 4.62695C9.75478 4.78668 9.83464 4.98459 9.83464 5.2207V8.2207Z" fill="#667085"/>
</svg>
