<svg width="20" height="21" viewBox="0 0 20 21" fill="none" xmlns="http://www.w3.org/2000/svg">
<mask id="mask0_6001_1284" style="mask-type:alpha" maskUnits="userSpaceOnUse" x="0" y="0" width="20" height="21">
<rect y="0.554688" width="20" height="20" fill="#D9D9D9"/>
</mask>
<g mask="url(#mask0_6001_1284)">
<path d="M9.9987 16.679C11.6931 15.1235 12.9501 13.7103 13.7695 12.4395C14.589 11.1686 14.9987 10.0401 14.9987 9.05404C14.9987 7.54015 14.5161 6.30056 13.5508 5.33529C12.5855 4.37001 11.4015 3.88737 9.9987 3.88737C8.59592 3.88737 7.41189 4.37001 6.44661 5.33529C5.48134 6.30056 4.9987 7.54015 4.9987 9.05404C4.9987 10.0401 5.40842 11.1686 6.22786 12.4395C7.04731 13.7103 8.30425 15.1235 9.9987 16.679ZM9.9987 18.3249C9.80425 18.3249 9.60981 18.2901 9.41536 18.2207C9.22092 18.1513 9.04731 18.0471 8.89453 17.9082C7.99175 17.0749 7.19314 16.2624 6.4987 15.4707C5.80425 14.679 5.22439 13.9117 4.75911 13.1686C4.29384 12.4256 3.93967 11.7103 3.69661 11.0228C3.45356 10.3353 3.33203 9.67904 3.33203 9.05404C3.33203 6.9707 4.00217 5.31098 5.34245 4.07487C6.68273 2.83876 8.23481 2.2207 9.9987 2.2207C11.7626 2.2207 13.3147 2.83876 14.6549 4.07487C15.9952 5.31098 16.6654 6.9707 16.6654 9.05404C16.6654 9.67904 16.5438 10.3353 16.3008 11.0228C16.0577 11.7103 15.7036 12.4256 15.2383 13.1686C14.773 13.9117 14.1931 14.679 13.4987 15.4707C12.8043 16.2624 12.0056 17.0749 11.1029 17.9082C10.9501 18.0471 10.7765 18.1513 10.582 18.2207C10.3876 18.2901 10.1931 18.3249 9.9987 18.3249ZM9.9987 10.554C10.457 10.554 10.8494 10.3908 11.1758 10.0645C11.5022 9.73806 11.6654 9.3457 11.6654 8.88737C11.6654 8.42904 11.5022 8.03668 11.1758 7.71029C10.8494 7.3839 10.457 7.2207 9.9987 7.2207C9.54036 7.2207 9.148 7.3839 8.82161 7.71029C8.49523 8.03668 8.33203 8.42904 8.33203 8.88737C8.33203 9.3457 8.49523 9.73806 8.82161 10.0645C9.148 10.3908 9.54036 10.554 9.9987 10.554Z" fill="#667085"/>
</g>
</svg>
