<svg width="24" height="25" viewBox="0 0 24 25" fill="none" xmlns="http://www.w3.org/2000/svg">
<mask id="mask0_6001_1290" style="mask-type:alpha" maskUnits="userSpaceOnUse" x="0" y="0" width="24" height="25">
<rect y="0.554688" width="24" height="24" fill="#D9D9D9"/>
</mask>
<g mask="url(#mask0_6001_1290)">
<path d="M12 22.5547C10.6167 22.5547 9.31667 22.2922 8.1 21.7672C6.88333 21.2422 5.825 20.5297 4.925 19.6297C4.025 18.7297 3.3125 17.6714 2.7875 16.4547C2.2625 15.238 2 13.938 2 12.5547C2 11.1714 2.2625 9.87135 2.7875 8.65469C3.3125 7.43802 4.025 6.37969 4.925 5.47969C5.825 4.57969 6.88333 3.86719 8.1 3.34219C9.31667 2.81719 10.6167 2.55469 12 2.55469C13.3833 2.55469 14.6833 2.81719 15.9 3.34219C17.1167 3.86719 18.175 4.57969 19.075 5.47969C19.975 6.37969 20.6875 7.43802 21.2125 8.65469C21.7375 9.87135 22 11.1714 22 12.5547C22 13.938 21.7375 15.238 21.2125 16.4547C20.6875 17.6714 19.975 18.7297 19.075 19.6297C18.175 20.5297 17.1167 21.2422 15.9 21.7672C14.6833 22.2922 13.3833 22.5547 12 22.5547ZM12 20.5547C14.2333 20.5547 16.125 19.7797 17.675 18.2297C19.225 16.6797 20 14.788 20 12.5547C20 10.3214 19.225 8.42969 17.675 6.87969C16.125 5.32969 14.2333 4.55469 12 4.55469C9.76667 4.55469 7.875 5.32969 6.325 6.87969C4.775 8.42969 4 10.3214 4 12.5547C4 14.788 4.775 16.6797 6.325 18.2297C7.875 19.7797 9.76667 20.5547 12 20.5547ZM11.975 19.5547C12.2083 19.5547 12.4125 19.4672 12.5875 19.2922C12.7625 19.1172 12.85 18.913 12.85 18.6797V18.3047C13.6833 18.1547 14.4 17.8297 15 17.3297C15.6 16.8297 15.9 16.088 15.9 15.1047C15.9 14.4047 15.7 13.763 15.3 13.1797C14.9 12.5964 14.1 12.088 12.9 11.6547C11.9 11.3214 11.2083 11.0297 10.825 10.7797C10.4417 10.5297 10.25 10.188 10.25 9.75469C10.25 9.32135 10.4042 8.97969 10.7125 8.72969C11.0208 8.47969 11.4667 8.35469 12.05 8.35469C12.3833 8.35469 12.675 8.41302 12.925 8.52969C13.175 8.64635 13.3833 8.80469 13.55 9.00469C13.7167 9.20469 13.9042 9.34219 14.1125 9.41719C14.3208 9.49219 14.5167 9.48802 14.7 9.40469C14.95 9.30469 15.1208 9.13385 15.2125 8.89219C15.3042 8.65052 15.2833 8.42969 15.15 8.22969C14.8833 7.84635 14.5542 7.52135 14.1625 7.25469C13.7708 6.98802 13.35 6.83802 12.9 6.80469V6.42969C12.9 6.19635 12.8125 5.99219 12.6375 5.81719C12.4625 5.64219 12.2583 5.55469 12.025 5.55469C11.7917 5.55469 11.5875 5.64219 11.4125 5.81719C11.2375 5.99219 11.15 6.19635 11.15 6.42969V6.80469C10.3167 6.98802 9.66667 7.35469 9.2 7.90469C8.73333 8.45469 8.5 9.07135 8.5 9.75469C8.5 10.538 8.72917 11.1714 9.1875 11.6547C9.64583 12.138 10.3667 12.5547 11.35 12.9047C12.4 13.288 13.1292 13.6297 13.5375 13.9297C13.9458 14.2297 14.15 14.6214 14.15 15.1047C14.15 15.6547 13.9542 16.0589 13.5625 16.3172C13.1708 16.5755 12.7 16.7047 12.15 16.7047C11.7167 16.7047 11.325 16.6005 10.975 16.3922C10.625 16.1839 10.3333 15.8714 10.1 15.4547C9.96667 15.2214 9.79167 15.063 9.575 14.9797C9.35833 14.8964 9.14167 14.8964 8.925 14.9797C8.69167 15.063 8.52083 15.2214 8.4125 15.4547C8.30417 15.688 8.3 15.913 8.4 16.1297C8.66667 16.6964 9.025 17.1589 9.475 17.5172C9.925 17.8755 10.4667 18.1214 11.1 18.2547V18.6797C11.1 18.913 11.1875 19.1172 11.3625 19.2922C11.5375 19.4672 11.7417 19.5547 11.975 19.5547Z" fill="#667085"/>
</g>
</svg>
