<svg width="22" height="16" viewBox="0 0 22 16" fill="none" xmlns="http://www.w3.org/2000/svg">
<path fill-rule="evenodd" clip-rule="evenodd" d="M20 0.894531H2C1.17157 0.894531 0.5 1.5661 0.5 2.39453V14.3945C0.5 15.223 1.17157 15.8945 2 15.8945H20C20.8284 15.8945 21.5 15.223 21.5 14.3945V2.39453C21.5 1.5661 20.8284 0.894531 20 0.894531ZM20 2.39453V4.64453H2V2.39453H20ZM20 14.3945H2V6.14453H20V14.3945ZM18.5 12.1445C18.5 12.5587 18.1642 12.8945 17.75 12.8945H14.75C14.3358 12.8945 14 12.5587 14 12.1445C14 11.7303 14.3358 11.3945 14.75 11.3945H17.75C18.1642 11.3945 18.5 11.7303 18.5 12.1445ZM12.5 12.1445C12.5 12.5587 12.1642 12.8945 11.75 12.8945H10.25C9.83579 12.8945 9.5 12.5587 9.5 12.1445C9.5 11.7303 9.83579 11.3945 10.25 11.3945H11.75C12.1642 11.3945 12.5 11.7303 12.5 12.1445Z" fill="#101828"/>
</svg>
