<svg width="36" height="36" viewBox="0 0 36 36" fill="none" xmlns="http://www.w3.org/2000/svg">
<circle cx="27" cy="21" r="7" stroke="#2160FD" stroke-width="2.3" stroke-linecap="round" stroke-linejoin="round"/>
<path d="M24.4 10.4992V8.19922C24.4 6.54236 23.0569 5.19922 21.4 5.19922H20M24.4 30.4992V30.9992C24.4 32.6561 23.0569 33.9992 21.4 33.9992H5C3.34314 33.9992 2 32.6561 2 30.9992V8.19922C2 6.54237 3.34315 5.19922 5 5.19922H7.5M24.4 21.4992L26 23.9992L30 18.9992" stroke="#2160FD" stroke-width="2.3" stroke-linecap="round" stroke-linejoin="round"/>
<rect x="7.33594" y="2" width="12.8" height="6.4" rx="2" stroke="#2160FD" stroke-width="2.3" stroke-linecap="round" stroke-linejoin="round"/>
<line x1="7.15" y1="12.85" x2="18.85" y2="12.85" stroke="#2160FD" stroke-width="2.3" stroke-linecap="round" stroke-linejoin="round"/>
<path d="M7.14844 16.8496L16.4984 16.8496" stroke="#2160FD" stroke-width="2.3" stroke-linecap="round" stroke-linejoin="round"/>
<path d="M7.14844 21L16.4984 21" stroke="#2160FD" stroke-width="2.3" stroke-linecap="round" stroke-linejoin="round"/>
<path d="M7.14844 25L14.9984 25" stroke="#2160FD" stroke-width="2.3" stroke-linecap="round" stroke-linejoin="round"/>
</svg>
