<svg width="22" height="22" viewBox="0 0 22 22" fill="none" xmlns="http://www.w3.org/2000/svg">
<path d="M19.9375 14.4375H7.5625V2.0625C7.56196 1.88033 7.48935 1.70578 7.36054 1.57697C7.23172 1.44815 7.05717 1.37554 6.875 1.375H2.0625C1.88033 1.37554 1.70578 1.44815 1.57697 1.57697C1.44815 1.70578 1.37554 1.88033 1.375 2.0625V19.9375C1.37554 20.1197 1.44815 20.2942 1.57697 20.423C1.70578 20.5518 1.88033 20.6245 2.0625 20.625H19.9375C20.1197 20.6245 20.2942 20.5518 20.423 20.423C20.5518 20.2942 20.6245 20.1197 20.625 19.9375V15.125C20.6245 14.9428 20.5518 14.7683 20.423 14.6395C20.2942 14.5107 20.1197 14.438 19.9375 14.4375ZM19.25 19.25H2.75V2.75H6.1875V4.125H5.5C5.31766 4.125 5.1428 4.19743 5.01386 4.32636C4.88493 4.4553 4.8125 4.63016 4.8125 4.8125C4.8125 4.99484 4.88493 5.1697 5.01386 5.29864C5.1428 5.42757 5.31766 5.5 5.5 5.5H6.1875V7.5625H5.5C5.31766 7.5625 5.1428 7.63493 5.01386 7.76386C4.88493 7.8928 4.8125 8.06766 4.8125 8.25C4.8125 8.43234 4.88493 8.6072 5.01386 8.73614C5.1428 8.86507 5.31766 8.9375 5.5 8.9375H6.1875V11H5.5C5.31766 11 5.1428 11.0724 5.01386 11.2014C4.88493 11.3303 4.8125 11.5052 4.8125 11.6875C4.8125 11.8698 4.88493 12.0447 5.01386 12.1736C5.1428 12.3026 5.31766 12.375 5.5 12.375H6.1875V15.8125H9.625V16.5C9.625 16.6823 9.69743 16.8572 9.82636 16.9861C9.9553 17.1151 10.1302 17.1875 10.3125 17.1875C10.4948 17.1875 10.6697 17.1151 10.7986 16.9861C10.9276 16.8572 11 16.6823 11 16.5V15.8125H13.0625V16.5C13.0625 16.6823 13.1349 16.8572 13.2639 16.9861C13.3928 17.1151 13.5677 17.1875 13.75 17.1875C13.9323 17.1875 14.1072 17.1151 14.2361 16.9861C14.3651 16.8572 14.4375 16.6823 14.4375 16.5V15.8125H16.5V16.5C16.5 16.6823 16.5724 16.8572 16.7014 16.9861C16.8303 17.1151 17.0052 17.1875 17.1875 17.1875C17.3698 17.1875 17.5447 17.1151 17.6736 16.9861C17.8026 16.8572 17.875 16.6823 17.875 16.5V15.8125H19.25V19.25Z" fill="#2A2A33"/>
<path d="M13.7733 10.0288C13.2708 10.0151 12.7923 9.81084 12.4347 9.45749C12.2683 9.28202 12.0398 9.17863 11.7981 9.16943C11.7208 9.1633 11.643 9.17355 11.57 9.19951C11.4969 9.22547 11.4301 9.26655 11.374 9.32008C11.3178 9.37361 11.2736 9.43838 11.2442 9.51016C11.2149 9.58193 11.2009 9.6591 11.2034 9.73662C11.2127 9.88877 11.2539 10.0373 11.3243 10.1724C11.3948 10.3076 11.493 10.4264 11.6125 10.5211C12.0424 10.8693 12.5668 11.0808 13.1181 11.1281V11.7366C13.1181 11.9059 13.1854 12.0684 13.3052 12.1882C13.4249 12.308 13.5874 12.3752 13.7568 12.3752C13.9262 12.3752 14.0886 12.308 14.2084 12.1882C14.3282 12.0684 14.3955 11.9059 14.3955 11.7366V11.1089C14.9013 11.076 15.3765 10.8548 15.7273 10.489C16.0782 10.1231 16.2793 9.63908 16.2909 9.13231C16.2909 8.18012 15.7148 7.59918 14.5447 7.37093L13.666 7.19012C13.0762 7.07324 12.8067 6.85049 12.8067 6.50262C12.8067 6.11212 13.1545 5.80137 13.7025 5.80137C13.9273 5.79928 14.15 5.84497 14.3559 5.9354C14.5618 6.02583 14.7461 6.15894 14.8967 6.32593C15.0751 6.50616 15.3168 6.60953 15.5704 6.61399C15.64 6.61641 15.7095 6.6047 15.7745 6.57958C15.8394 6.55445 15.8987 6.51643 15.9486 6.46781C15.9985 6.41918 16.0381 6.36095 16.0649 6.29664C16.0917 6.23232 16.1052 6.16324 16.1046 6.09356C16.0944 5.94319 16.0537 5.79645 15.9852 5.66222C15.9167 5.52798 15.8216 5.40903 15.7058 5.31256C15.3345 4.99445 14.8793 4.79013 14.3948 4.72406V4.07574C14.3893 3.91007 14.3197 3.753 14.2006 3.63773C14.0815 3.52245 13.9222 3.45801 13.7564 3.45801C13.5907 3.45801 13.4314 3.52245 13.3123 3.63773C13.1932 3.753 13.1235 3.91007 13.1181 4.07574V4.71306C12.6284 4.74134 12.1674 4.95327 11.8272 5.30654C11.4869 5.65981 11.2924 6.12842 11.2825 6.61881C11.2825 7.56618 11.849 8.17049 12.9737 8.40287L13.8468 8.59331C14.5165 8.73768 14.7812 8.94187 14.7812 9.29043C14.7812 9.73662 14.4278 10.0288 13.7733 10.0288Z" fill="#2A2A33"/>
</svg>
