<svg width="20" height="25" viewBox="0 0 20 25" fill="none" xmlns="http://www.w3.org/2000/svg">
<path d="M12.25 1.44775V6.09461C12.25 6.72467 12.25 7.0397 12.3726 7.28035C12.4805 7.49203 12.6526 7.66414 12.8643 7.77199C13.1049 7.89461 13.4199 7.89461 14.05 7.89461H18.6969M14.5 13.5195H5.5M14.5 18.0195H5.5M7.75 9.01953H5.5M12.25 1.14453H6.4C4.50982 1.14453 3.56473 1.14453 2.84278 1.51238C2.20774 1.83596 1.69143 2.35227 1.36785 2.98731C1 3.70927 1 4.65435 1 6.54453V18.2445C1 20.1347 1 21.0798 1.36785 21.8017C1.69143 22.4368 2.20774 22.9531 2.84278 23.2767C3.56473 23.6445 4.50982 23.6445 6.4 23.6445H13.6C15.4902 23.6445 16.4353 23.6445 17.1572 23.2767C17.7923 22.9531 18.3086 22.4368 18.6321 21.8017C19 21.0798 19 20.1347 19 18.2445V7.89453L12.25 1.14453Z" stroke="#475467" stroke-width="2" stroke-linecap="round" stroke-linejoin="round"/>
</svg>
