<svg width="48" height="48" viewBox="0 0 48 48" fill="none" xmlns="http://www.w3.org/2000/svg">
<circle cx="24" cy="24" r="24" fill="#F6F6F6"/>
<path fill-rule="evenodd" clip-rule="evenodd" d="M29.3864 14.9264C28.0864 14.7516 26.3782 14.75 24 14.75C21.6218 14.75 19.9136 14.7516 18.6136 14.9264C17.3352 15.0982 16.5645 15.4251 15.9948 15.9948C15.4251 16.5645 15.0982 17.3352 14.9264 18.6136C14.7516 19.9136 14.75 21.6218 14.75 24C14.75 26.3782 14.7516 28.0864 14.9264 29.3864C15.0449 30.268 15.2371 30.9082 15.5319 31.4075L31.4075 15.5319C30.9082 15.2371 30.268 15.0449 29.3864 14.9264ZM32.4681 16.5925L25.0607 24L32.4681 31.4075C32.7629 30.9082 32.9551 30.268 33.0736 29.3864C33.2484 28.0864 33.25 26.3782 33.25 24C33.25 21.6218 33.2484 19.9136 33.0736 18.6136C32.9551 17.732 32.7629 17.0918 32.4681 16.5925ZM31.4075 32.4681L24 25.0607L16.5925 32.4681C17.0918 32.7629 17.732 32.9551 18.6136 33.0736C19.9136 33.2484 21.6218 33.25 24 33.25C26.3782 33.25 28.0864 33.2484 29.3864 33.0736C30.268 32.9551 30.9082 32.7629 31.4075 32.4681ZM29.5863 13.4397C31.031 13.634 32.1711 14.0393 33.0659 14.9341C33.9607 15.8289 34.366 16.969 34.5603 18.4137C34.75 19.8252 34.75 21.6342 34.75 23.9426V24.0574C34.75 26.3658 34.75 28.1748 34.5603 29.5863C34.366 31.031 33.9607 32.1711 33.0659 33.0659C32.1711 33.9607 31.031 34.366 29.5863 34.5603C28.1748 34.75 26.3658 34.75 24.0574 34.75H23.9426C21.6342 34.75 19.8252 34.75 18.4137 34.5603C16.969 34.366 15.8289 33.9607 14.9341 33.0659C14.0393 32.1711 13.634 31.031 13.4397 29.5863C13.25 28.1748 13.25 26.3658 13.25 24.0574V23.9426C13.25 21.6342 13.25 19.8252 13.4397 18.4137C13.634 16.969 14.0393 15.8289 14.9341 14.9341C15.8289 14.0393 16.969 13.634 18.4137 13.4397C19.8252 13.25 21.6342 13.25 23.9426 13.25H24.0574C26.3658 13.25 28.1748 13.25 29.5863 13.4397Z" fill="#004DD1"/>
</svg>
