<svg width="20" height="20" viewBox="0 0 20 20" fill="none" xmlns="http://www.w3.org/2000/svg">
<mask id="mask0_6025_22171" style="mask-type:alpha" maskUnits="userSpaceOnUse" x="0" y="0" width="20" height="20">
<rect width="20" height="20" fill="#D9D9D9"/>
</mask>
<g mask="url(#mask0_6025_22171)">
<path d="M19.1693 4.16667V15.8333C19.1693 16.2917 19.0061 16.684 18.6797 17.0104C18.3533 17.3368 17.9609 17.5 17.5026 17.5H15.0026C14.7665 17.5 14.5686 17.4201 14.4089 17.2604C14.2491 17.1007 14.1693 16.9028 14.1693 16.6667C14.1693 16.4306 14.2491 16.2326 14.4089 16.0729C14.5686 15.9132 14.7665 15.8333 15.0026 15.8333H17.5026V4.16667H10.0026V4.58333C10.0026 4.81944 9.92274 5.01736 9.76302 5.17708C9.6033 5.33681 9.40538 5.41667 9.16927 5.41667C8.93316 5.41667 8.73524 5.33681 8.57552 5.17708C8.4158 5.01736 8.33594 4.81944 8.33594 4.58333V4.125C8.33594 3.68056 8.49566 3.29861 8.8151 2.97917C9.13455 2.65972 9.51649 2.5 9.96094 2.5H17.5026C17.9609 2.5 18.3533 2.66319 18.6797 2.98958C19.0061 3.31597 19.1693 3.70833 19.1693 4.16667ZM0.835938 10.0208C0.835938 9.74306 0.898437 9.48611 1.02344 9.25C1.14844 9.01389 1.32205 8.81944 1.54427 8.66667L5.71094 5.6875C5.86371 5.57639 6.01996 5.49653 6.17969 5.44792C6.33941 5.39931 6.5026 5.375 6.66927 5.375C6.83594 5.375 6.99913 5.39931 7.15885 5.44792C7.31858 5.49653 7.47483 5.57639 7.6276 5.6875L11.7943 8.66667C12.0165 8.81944 12.1901 9.01389 12.3151 9.25C12.4401 9.48611 12.5026 9.74306 12.5026 10.0208V15.8333C12.5026 16.2917 12.3394 16.684 12.013 17.0104C11.6866 17.3368 11.2943 17.5 10.8359 17.5H9.16927C8.71094 17.5 8.31858 17.3368 7.99219 17.0104C7.6658 16.684 7.5026 16.2917 7.5026 15.8333V13.3333H5.83594V15.8333C5.83594 16.2917 5.67274 16.684 5.34635 17.0104C5.01996 17.3368 4.6276 17.5 4.16927 17.5H2.5026C2.04427 17.5 1.65191 17.3368 1.32552 17.0104C0.999132 16.684 0.835938 16.2917 0.835938 15.8333V10.0208ZM2.5026 10V15.8333H4.16927V13.3333C4.16927 12.875 4.33247 12.4826 4.65885 12.1563C4.98524 11.8299 5.3776 11.6667 5.83594 11.6667H7.5026C7.96094 11.6667 8.3533 11.8299 8.67969 12.1563C9.00608 12.4826 9.16927 12.875 9.16927 13.3333V15.8333H10.8359V10L6.66927 7.04167L2.5026 10ZM14.5859 7.5H15.4193C15.5304 7.5 15.6276 7.45833 15.7109 7.375C15.7943 7.29167 15.8359 7.19444 15.8359 7.08333V6.25C15.8359 6.13889 15.7943 6.04167 15.7109 5.95833C15.6276 5.875 15.5304 5.83333 15.4193 5.83333H14.5859C14.4748 5.83333 14.3776 5.875 14.2943 5.95833C14.2109 6.04167 14.1693 6.13889 14.1693 6.25V7.08333C14.1693 7.19444 14.2109 7.29167 14.2943 7.375C14.3776 7.45833 14.4748 7.5 14.5859 7.5ZM14.5859 10.8333H15.4193C15.5304 10.8333 15.6276 10.7917 15.7109 10.7083C15.7943 10.625 15.8359 10.5278 15.8359 10.4167V9.58333C15.8359 9.47222 15.7943 9.375 15.7109 9.29167C15.6276 9.20833 15.5304 9.16667 15.4193 9.16667H14.5859C14.4748 9.16667 14.3776 9.20833 14.2943 9.29167C14.2109 9.375 14.1693 9.47222 14.1693 9.58333V10.4167C14.1693 10.5278 14.2109 10.625 14.2943 10.7083C14.3776 10.7917 14.4748 10.8333 14.5859 10.8333ZM14.5859 14.1667H15.4193C15.5304 14.1667 15.6276 14.125 15.7109 14.0417C15.7943 13.9583 15.8359 13.8611 15.8359 13.75V12.9167C15.8359 12.8056 15.7943 12.7083 15.7109 12.625C15.6276 12.5417 15.5304 12.5 15.4193 12.5H14.5859C14.4748 12.5 14.3776 12.5417 14.2943 12.625C14.2109 12.7083 14.1693 12.8056 14.1693 12.9167V13.75C14.1693 13.8611 14.2109 13.9583 14.2943 14.0417C14.3776 14.125 14.4748 14.1667 14.5859 14.1667Z" fill="#2A2A33"/>
</g>
</svg>
