<svg width="21" height="21" viewBox="0 0 21 21" fill="none" xmlns="http://www.w3.org/2000/svg">
<path d="M7.875 2.625V7.875H2.625V2.625H7.875ZM8.53125 1.3125H1.96875C1.7947 1.3125 1.62778 1.38164 1.50471 1.50471C1.38164 1.62778 1.3125 1.7947 1.3125 1.96875V8.53125C1.3125 8.7053 1.38164 8.87222 1.50471 8.99529C1.62778 9.11836 1.7947 9.1875 1.96875 9.1875H8.53125C8.7053 9.1875 8.87222 9.11836 8.99529 8.99529C9.11836 8.87222 9.1875 8.7053 9.1875 8.53125V1.96875C9.1875 1.7947 9.11836 1.62778 8.99529 1.50471C8.87222 1.38164 8.7053 1.3125 8.53125 1.3125ZM18.375 2.625V7.875H13.125V2.625H18.375ZM19.0312 1.3125H12.4688C12.2947 1.3125 12.1278 1.38164 12.0047 1.50471C11.8816 1.62778 11.8125 1.7947 11.8125 1.96875V8.53125C11.8125 8.7053 11.8816 8.87222 12.0047 8.99529C12.1278 9.11836 12.2947 9.1875 12.4688 9.1875H19.0312C19.2053 9.1875 19.3722 9.11836 19.4953 8.99529C19.6184 8.87222 19.6875 8.7053 19.6875 8.53125V1.96875C19.6875 1.7947 19.6184 1.62778 19.4953 1.50471C19.3722 1.38164 19.2053 1.3125 19.0312 1.3125ZM7.875 13.125V18.375H2.625V13.125H7.875ZM8.53125 11.8125H1.96875C1.7947 11.8125 1.62778 11.8816 1.50471 12.0047C1.38164 12.1278 1.3125 12.2947 1.3125 12.4688V19.0312C1.3125 19.2053 1.38164 19.3722 1.50471 19.4953C1.62778 19.6184 1.7947 19.6875 1.96875 19.6875H8.53125C8.7053 19.6875 8.87222 19.6184 8.99529 19.4953C9.11836 19.3722 9.1875 19.2053 9.1875 19.0312V12.4688C9.1875 12.2947 9.11836 12.1278 8.99529 12.0047C8.87222 11.8816 8.7053 11.8125 8.53125 11.8125ZM18.375 13.125V18.375H13.125V13.125H18.375ZM19.0312 11.8125H12.4688C12.2947 11.8125 12.1278 11.8816 12.0047 12.0047C11.8816 12.1278 11.8125 12.2947 11.8125 12.4688V19.0312C11.8125 19.2053 11.8816 19.3722 12.0047 19.4953C12.1278 19.6184 12.2947 19.6875 12.4688 19.6875H19.0312C19.2053 19.6875 19.3722 19.6184 19.4953 19.4953C19.6184 19.3722 19.6875 19.2053 19.6875 19.0312V12.4688C19.6875 12.2947 19.6184 12.1278 19.4953 12.0047C19.3722 11.8816 19.2053 11.8125 19.0312 11.8125Z" fill="#2A2A33"/>
</svg>
