<svg width="48" height="48" viewBox="0 0 48 48" fill="none" xmlns="http://www.w3.org/2000/svg">
<circle cx="24" cy="24" r="24" fill="#F6F6F6"/>
<path fill-rule="evenodd" clip-rule="evenodd" d="M19.4389 13.6953C18.8689 13.6953 18.385 13.6953 17.9851 13.7366C17.5592 13.7807 17.1657 13.8763 16.7939 14.106C16.4222 14.3358 16.1607 14.645 15.9309 15.0062C15.715 15.3454 15.4986 15.7782 15.2437 16.2881L15.2272 16.321C15.2175 16.3405 15.2087 16.3604 15.2007 16.3806L13.797 19.9287C13.63 20.3509 13.4449 20.8776 13.3908 21.4166C13.3355 21.9679 13.4114 22.5994 13.8434 23.1472C14.3457 23.7842 15.1268 24.1953 16.0036 24.1953C16.7916 24.1953 17.5022 23.8639 18.0036 23.3328C18.5049 23.8639 19.2155 24.1953 20.0036 24.1953C20.7916 24.1953 21.5022 23.8639 22.0036 23.3328C22.5049 23.8639 23.2155 24.1953 24.0036 24.1953C24.7916 24.1953 25.5022 23.8639 26.0036 23.3328C26.5049 23.8639 27.2155 24.1953 28.0036 24.1953C28.7916 24.1953 29.5022 23.8639 30.0036 23.3328C30.5049 23.8639 31.2155 24.1953 32.0036 24.1953C32.8803 24.1953 33.6614 23.7842 34.1638 23.1472C34.5957 22.5995 34.6717 21.9679 34.6164 21.4166C34.5622 20.8776 34.3772 20.3509 34.2102 19.9287L32.8065 16.3806C32.7985 16.3604 32.7897 16.3405 32.7799 16.321L32.7635 16.2881C32.5086 15.7783 32.2922 15.3454 32.0763 15.0062C31.8465 14.645 31.585 14.3358 31.2132 14.106C30.8415 13.8763 30.4479 13.7807 30.0221 13.7366C29.6222 13.6953 29.1383 13.6953 28.5683 13.6953H19.4389ZM20.0036 22.6953C19.3132 22.6953 18.7536 22.1357 18.7536 21.4453C18.7536 21.0311 18.4178 20.6953 18.0036 20.6953C17.5893 20.6953 17.2536 21.0311 17.2536 21.4453C17.2536 22.1357 16.6939 22.6953 16.0036 22.6953C15.6056 22.6953 15.2513 22.5102 15.0212 22.2184C14.9073 22.0739 14.8522 21.8763 14.8833 21.5665C14.9157 21.2443 15.0346 20.8781 15.1919 20.4805L16.5835 16.9627C16.8512 16.4274 17.0301 16.0728 17.1964 15.8114C17.3564 15.56 17.471 15.4509 17.5825 15.382C17.6941 15.3131 17.8429 15.2593 18.1393 15.2287C18.453 15.1962 18.859 15.1953 19.4758 15.1953H28.5314C29.1482 15.1953 29.5542 15.1962 29.8679 15.2287C30.1643 15.2593 30.3131 15.3131 30.4246 15.382C30.5362 15.4509 30.6508 15.56 30.8108 15.8114C30.9771 16.0728 31.156 16.4274 31.4237 16.9627L32.8153 20.4805C32.9726 20.8781 33.0915 21.2443 33.1239 21.5665C33.155 21.8763 33.0999 22.0739 32.986 22.2184C32.7558 22.5102 32.4015 22.6953 32.0036 22.6953C31.3132 22.6953 30.7536 22.1357 30.7536 21.4453C30.7536 21.0311 30.4178 20.6953 30.0036 20.6953C29.5893 20.6953 29.2536 21.0311 29.2536 21.4453C29.2536 22.1357 28.6939 22.6953 28.0036 22.6953C27.3132 22.6953 26.7536 22.1357 26.7536 21.4453C26.7536 21.0311 26.4178 20.6953 26.0036 20.6953C25.5893 20.6953 25.2536 21.0311 25.2536 21.4453C25.2536 22.1357 24.6939 22.6953 24.0036 22.6953C23.3132 22.6953 22.7536 22.1357 22.7536 21.4453C22.7536 21.0311 22.4178 20.6953 22.0036 20.6953C21.5893 20.6953 21.2536 21.0311 21.2536 21.4453C21.2536 22.1357 20.6939 22.6953 20.0036 22.6953Z" fill="#004DD1"/>
<path d="M31.7536 27.4453C31.7536 27.0311 31.4179 26.6953 31.0036 26.6953C30.5894 26.6953 30.2536 27.0311 30.2536 27.4453V33.6953H17.7536V27.4453C17.7536 27.0311 17.4179 26.6953 17.0036 26.6953C16.5894 26.6953 16.2536 27.0311 16.2536 27.4453V33.6953H15.0036C14.5894 33.6953 14.2536 34.0311 14.2536 34.4453C14.2536 34.8595 14.5894 35.1953 15.0036 35.1953H33.0036C33.4179 35.1953 33.7536 34.8595 33.7536 34.4453C33.7536 34.0311 33.4179 33.6953 33.0036 33.6953H31.7536V27.4453Z" fill="#004DD1"/>
</svg>
