<svg width="20" height="20" viewBox="0 0 20 20" fill="none" xmlns="http://www.w3.org/2000/svg">
<path fill-rule="evenodd" clip-rule="evenodd" d="M19.6488 18.2695C18.2209 15.8011 16.0206 14.0311 13.4528 13.192C16.0635 11.6378 17.3141 8.53091 16.5082 5.60143C15.7022 2.67194 13.0383 0.641981 10 0.641981C6.96167 0.641981 4.29779 2.67194 3.49182 5.60143C2.68585 8.53091 3.93645 11.6378 6.54719 13.192C3.97938 14.0302 1.77906 15.8002 0.35125 18.2695C0.208704 18.502 0.203527 18.7934 0.337731 19.0308C0.471935 19.2681 0.724375 19.4139 0.997024 19.4116C1.26967 19.4093 1.51958 19.2591 1.64969 19.0195C3.41594 15.967 6.53781 14.1445 10 14.1445C13.4622 14.1445 16.5841 15.967 18.3503 19.0195C18.4804 19.2591 18.7303 19.4093 19.003 19.4116C19.2756 19.4139 19.5281 19.2681 19.6623 19.0308C19.7965 18.7934 19.7913 18.502 19.6488 18.2695ZM4.75 7.39453C4.75 4.49504 7.1005 2.14453 10 2.14453C12.8995 2.14453 15.25 4.49504 15.25 7.39453C15.25 10.294 12.8995 12.6445 10 12.6445C7.10179 12.6414 4.7531 10.2927 4.75 7.39453Z" fill="#1D2939"/>
</svg>
