<svg width="14" height="14" viewBox="0 0 14 14" fill="none" xmlns="http://www.w3.org/2000/svg">
<path d="M12.7 4.275C12.55 3.75 12.175 3.375 11.65 3.225C10.75 3 6.925 3 6.925 3C6.925 3 3.175 3 2.2 3.225C1.675 3.375 1.3 3.75 1.15 4.275C0.999998 5.25 1 7.2 1 7.2C1 7.2 1 9.15 1.225 10.125C1.375 10.65 1.75 11.025 2.275 11.175C3.175 11.4 7 11.4 7 11.4C7 11.4 10.75 11.4 11.725 11.175C12.25 11.025 12.625 10.65 12.775 10.125C13 9.15 13 7.2 13 7.2C13 7.2 13 5.25 12.7 4.275ZM5.8 9V5.4L8.95 7.2L5.8 9Z" fill="#004DD1"/>
</svg>
