<svg width="55" height="36" viewBox="0 0 55 36" fill="none" xmlns="http://www.w3.org/2000/svg">
<path d="M41.0532 24.3046C41.0532 26.609 39.1768 28.4854 36.8724 28.4854H14.125V11.9269C14.125 9.6225 16.0014 7.74609 18.3058 7.74609H41.0532V24.3046Z" fill="white"/>
<path d="M35.1762 9.14453C33.5302 9.14453 32.1805 10.4778 32.1805 12.1402V15.2511H36.4107C36.5094 15.2511 36.6247 15.2511 36.707 15.2676C37.6616 15.3169 38.3694 15.8107 38.3694 16.6666C38.3694 17.3415 37.8921 17.9176 37.0032 18.0328V18.0657C37.9744 18.1315 38.7151 18.6747 38.7151 19.5142C38.7151 20.4195 37.8921 21.012 36.8057 21.012H32.1641V27.1021H36.5588C38.2048 27.1021 39.5545 25.7689 39.5545 24.1064V9.14453H35.1762Z" fill="url(#paint0_linear_6001_3670)"/>
<path d="M33.6456 20.0573H35.3738C35.3985 20.0573 35.4397 20.0532 35.4808 20.0491C35.522 20.045 35.5631 20.0409 35.5878 20.0409C35.917 19.975 36.1968 19.6788 36.1968 19.2673C36.1968 18.8722 35.917 18.576 35.5878 18.4937C35.5384 18.4772 35.4397 18.4772 35.3738 18.4772H33.6456V20.0573Z" fill="url(#paint1_linear_6001_3670)"/>
<path d="M35.3738 16.1564C35.703 16.2058 35.9828 16.4691 35.9828 16.8642C35.9828 17.2592 35.703 17.5226 35.3738 17.5719C35.3574 17.5884 35.2586 17.5884 35.2092 17.5884H33.6456V16.1399H35.2092C35.2364 16.1399 35.2736 16.1449 35.307 16.1494C35.3343 16.1531 35.359 16.1564 35.3738 16.1564Z" fill="url(#paint2_linear_6001_3670)"/>
<path d="M18.6176 9.14453C16.9716 9.14453 15.6219 10.4778 15.6219 12.1402V19.5306C16.4614 19.9421 17.3337 20.2055 18.2061 20.2055C19.2431 20.2055 19.8027 19.58 19.8027 18.7241V15.2346H22.3704V18.7076C22.3704 20.0573 21.531 21.1601 18.6834 21.1601C16.9552 21.1601 15.6055 20.7816 15.6055 20.7816V27.0856H20.0002C21.6462 27.0856 22.9959 25.7524 22.9959 24.09V9.14453H18.6176Z" fill="url(#paint3_linear_6001_3670)"/>
<path d="M26.898 9.14453C25.252 9.14453 23.9023 10.4778 23.9023 12.1402V16.0576C24.6595 15.4157 25.9763 15.0042 28.0996 15.103C29.2353 15.1523 30.4533 15.4651 30.4533 15.4651V16.7325C29.8443 16.4197 29.1201 16.1399 28.1819 16.0741C26.5688 15.9589 25.5977 16.7489 25.5977 18.1316C25.5977 19.5306 26.5688 20.3207 28.1819 20.189C29.1201 20.1232 29.8443 19.8269 30.4533 19.5306V20.798C30.4533 20.798 29.2518 21.1108 28.0996 21.1601C25.9763 21.2589 24.6595 20.8474 23.9023 20.2055V27.1186H28.2971C29.9431 27.1186 31.2928 25.7853 31.2928 24.1229V9.14453H26.898Z" fill="url(#paint4_linear_6001_3670)"/>
<defs>
<linearGradient id="paint0_linear_6001_3670" x1="32.1777" y1="16.8621" x2="39.5746" y2="16.8621" gradientUnits="userSpaceOnUse">
<stop stop-color="#007940"/>
<stop offset="0.2285" stop-color="#00873F"/>
<stop offset="0.7433" stop-color="#40A737"/>
<stop offset="1" stop-color="#5CB531"/>
</linearGradient>
<linearGradient id="paint1_linear_6001_3670" x1="32.1777" y1="16.8621" x2="39.5746" y2="16.8621" gradientUnits="userSpaceOnUse">
<stop stop-color="#007940"/>
<stop offset="0.2285" stop-color="#00873F"/>
<stop offset="0.7433" stop-color="#40A737"/>
<stop offset="1" stop-color="#5CB531"/>
</linearGradient>
<linearGradient id="paint2_linear_6001_3670" x1="32.1777" y1="16.8621" x2="39.5746" y2="16.8621" gradientUnits="userSpaceOnUse">
<stop stop-color="#007940"/>
<stop offset="0.2285" stop-color="#00873F"/>
<stop offset="0.7433" stop-color="#40A737"/>
<stop offset="1" stop-color="#5CB531"/>
</linearGradient>
<linearGradient id="paint3_linear_6001_3670" x1="15.6184" y1="18.1161" x2="23.1295" y2="18.1161" gradientUnits="userSpaceOnUse">
<stop stop-color="#1F286F"/>
<stop offset="0.4751" stop-color="#004E94"/>
<stop offset="0.8261" stop-color="#0066B1"/>
<stop offset="1" stop-color="#006FBC"/>
</linearGradient>
<linearGradient id="paint4_linear_6001_3670" x1="23.8598" y1="18.1161" x2="31.1548" y2="18.1161" gradientUnits="userSpaceOnUse">
<stop stop-color="#6C2C2F"/>
<stop offset="0.1735" stop-color="#882730"/>
<stop offset="0.5731" stop-color="#BE1833"/>
<stop offset="0.8585" stop-color="#DC0436"/>
<stop offset="1" stop-color="#E60039"/>
</linearGradient>
</defs>
</svg>
