<svg width="55" height="36" viewBox="0 0 55 36" fill="none" xmlns="http://www.w3.org/2000/svg">
<path d="M27.2954 12.4689L24.7584 24.3283H21.6906L24.228 12.4689H27.2954ZM40.2027 20.1265L41.8179 15.6729L42.7473 20.1265H40.2027ZM43.6256 24.3283H46.4633L43.9871 12.4689H41.3678C40.7793 12.4689 40.2827 12.8112 40.0616 13.339L35.459 24.3283H38.6807L39.3203 22.5573H43.2562L43.6256 24.3283ZM35.6189 20.4561C35.632 17.326 31.2903 17.1537 31.3203 15.7555C31.3293 15.3295 31.7351 14.8776 32.6213 14.7616C33.0616 14.7042 34.2721 14.6602 35.6467 15.2927L36.1849 12.7778C35.4466 12.5098 34.4966 12.252 33.315 12.252C30.2828 12.252 28.1486 13.8641 28.1306 16.1725C28.1114 17.8797 29.6541 18.8323 30.8166 19.3999C32.0117 19.9813 32.4134 20.3536 32.4081 20.8735C32.4002 21.6696 31.4547 22.0202 30.5726 22.0341C29.0299 22.0585 28.1347 21.6178 27.4211 21.2853L26.8652 23.8839C27.5818 24.213 28.9049 24.4991 30.2776 24.5137C33.5 24.5137 35.6084 22.9214 35.6189 20.4561ZM22.9116 12.4689L17.9412 24.3283H14.6977L12.2519 14.8637C12.1033 14.2808 11.9741 14.0675 11.5226 13.8217C10.7858 13.4219 9.56773 13.0462 8.49609 12.8135L8.56929 12.4689H13.7894C14.4545 12.4689 15.0532 12.9118 15.2041 13.6779L16.496 20.5409L19.6884 12.4689H22.9116Z" fill="#1434CB"/>
</svg>
