<svg width="55" height="36" viewBox="0 0 55 36" fill="none" xmlns="http://www.w3.org/2000/svg">
<path d="M18.2003 13.5904C18.5631 13.1365 18.8094 12.5271 18.7445 11.9043C18.2132 11.9307 17.565 12.2548 17.1897 12.709C16.8527 13.098 16.5545 13.7329 16.6322 14.3296C17.2285 14.3813 17.8243 14.0315 18.2003 13.5904Z" fill="#000008"/>
<path d="M18.7377 14.4461C17.8717 14.3945 17.1354 14.9376 16.7219 14.9376C16.3081 14.9376 15.6748 14.4721 14.9899 14.4846C14.0984 14.4977 13.2712 15.0018 12.8188 15.8035C11.8883 17.4073 12.5732 19.7863 13.4781 21.0924C13.9175 21.7387 14.4471 22.4502 15.1449 22.4246C15.8042 22.3988 16.0626 21.9977 16.864 21.9977C17.6648 21.9977 17.8976 22.4246 18.5955 22.4117C19.3193 22.3988 19.7718 21.7652 20.2112 21.1183C20.7153 20.3817 20.9217 19.6704 20.9346 19.6313C20.9217 19.6184 19.539 19.088 19.5262 17.4975C19.5132 16.1658 20.6117 15.5324 20.6634 15.4931C20.0431 14.5756 19.0737 14.4721 18.7377 14.4461Z" fill="#000008"/>
<path d="M26.278 12.6439C28.1602 12.6439 29.4708 13.9413 29.4708 15.8302C29.4708 17.7259 28.1332 19.0301 26.2308 19.0301H24.1468V22.3441H22.6412V12.6439L26.278 12.6439ZM24.1468 17.7662H25.8745C27.1854 17.7662 27.9314 17.0605 27.9314 15.837C27.9314 14.6136 27.1854 13.9144 25.8812 13.9144H24.1468V17.7662Z" fill="#000008"/>
<path d="M29.8642 20.3342C29.8642 19.0972 30.812 18.3376 32.4927 18.2435L34.4286 18.1293V17.5848C34.4286 16.7983 33.8975 16.3277 33.0103 16.3277C32.1699 16.3277 31.6455 16.731 31.5179 17.363H30.1466C30.2272 16.0856 31.3162 15.1445 33.064 15.1445C34.7782 15.1445 35.8738 16.052 35.8738 17.4704V22.3441H34.4823V21.1812H34.4488C34.0388 21.9677 33.1447 22.4651 32.2171 22.4651C30.8322 22.4651 29.8642 21.6046 29.8642 20.3342ZM34.4286 19.6956V19.1377L32.6875 19.2452C31.8203 19.3057 31.3296 19.6889 31.3296 20.2939C31.3296 20.9122 31.8405 21.3156 32.6203 21.3156C33.6353 21.3156 34.4286 20.6165 34.4286 19.6956Z" fill="#000008"/>
<path d="M37.1876 24.9457V23.7693C37.2949 23.7961 37.5369 23.7961 37.658 23.7961C38.3302 23.7961 38.6932 23.5138 38.915 22.7878C38.915 22.7743 39.0428 22.3576 39.0428 22.3509L36.4884 15.2722H38.0613L39.8496 21.0266H39.8763L41.6646 15.2722H43.1972L40.5485 22.7138C39.9437 24.4281 39.2446 24.9793 37.7791 24.9793C37.658 24.9793 37.295 24.9658 37.1876 24.9457Z" fill="#000008"/>
</svg>
