<svg width="55" height="36" viewBox="0 0 55 36" fill="none" xmlns="http://www.w3.org/2000/svg">
<path d="M13.5944 23.4356C13.5944 23.9247 13.9438 23.9812 14.2545 23.9812C15.6257 23.9812 16.0753 22.9473 16.0753 22.0015C16.0753 20.8154 15.3142 19.9587 14.0895 19.9587C13.8292 19.9587 13.7093 19.9769 13.5944 19.9838V23.4356ZM12.9729 20.4592C12.9729 19.8885 12.6743 19.9261 12.3894 19.9197V19.7557C12.6363 19.7672 12.8902 19.7672 13.1379 19.7672C13.4043 19.7672 13.7662 19.7557 14.236 19.7557C15.8788 19.7557 16.7738 20.8526 16.7738 21.9765C16.7738 22.6047 16.4061 24.1846 14.1597 24.1846C13.8368 24.1846 13.5375 24.1724 13.2397 24.1724C12.954 24.1724 12.6743 24.1789 12.3894 24.1846V24.0191C12.7691 23.9812 12.954 23.9686 12.9729 23.5374V20.4592Z" fill="#231F20"/>
<path d="M17.6757 20.3076C17.5099 20.3076 17.3642 20.155 17.3642 19.9904C17.3642 19.8314 17.5164 19.685 17.6757 19.685C17.84 19.685 17.9868 19.8185 17.9868 19.9904C17.9868 20.1615 17.8468 20.3076 17.6757 20.3076ZM16.9962 24.0193H17.1169C17.2944 24.0193 17.4211 24.0193 17.4211 23.8091V22.0904C17.4211 21.8112 17.3266 21.7729 17.091 21.6468V21.5452C17.3897 21.4557 17.7448 21.3361 17.7706 21.316C17.815 21.2913 17.8525 21.2849 17.8848 21.2849C17.9163 21.2849 17.9288 21.3225 17.9288 21.3734V23.8091C17.9288 24.0193 18.0691 24.0193 18.2459 24.0193H18.3541V24.1847C18.1382 24.1847 17.9163 24.1722 17.6879 24.1722C17.4594 24.1722 17.231 24.1787 16.9962 24.1847V24.0193Z" fill="#231F20"/>
<path d="M18.957 22.1281C18.957 21.8941 18.8872 21.8303 18.5894 21.7104V21.589C18.8618 21.5003 19.1216 21.4171 19.4267 21.2847C19.4457 21.2847 19.4643 21.2973 19.4643 21.3473V21.7609C19.8266 21.5003 20.1378 21.2847 20.5631 21.2847C21.1022 21.2847 21.2927 21.6778 21.2927 22.1729V23.8093C21.2927 24.0195 21.4327 24.0195 21.6098 24.0195H21.724V24.1845C21.5013 24.1845 21.2794 24.1724 21.0517 24.1724C20.8229 24.1724 20.5945 24.1789 20.3661 24.1845V24.0195H20.4803C20.6583 24.0195 20.7843 24.0195 20.7843 23.8093V22.1669C20.7843 21.8045 20.5631 21.6273 20.2007 21.6273C19.9978 21.6273 19.6745 21.792 19.4643 21.932V23.8093C19.4643 24.0195 19.605 24.0195 19.7825 24.0195H19.8968V24.1845C19.6745 24.1845 19.4518 24.1724 19.223 24.1724C18.9953 24.1724 18.7666 24.1789 18.5381 24.1845V24.0195H18.6531C18.8303 24.0195 18.957 24.0195 18.957 23.8093V22.1281Z" fill="#231F20"/>
<path d="M23.3302 22.2299C23.488 22.2299 23.5066 22.1476 23.5066 22.0717C23.5066 21.7473 23.3101 21.4874 22.955 21.4874C22.5683 21.4874 22.3017 21.7727 22.2254 22.2299H23.3302ZM22.2068 22.4336C22.1935 22.4906 22.1935 22.5855 22.2068 22.8013C22.244 23.4046 22.6317 23.8993 23.1389 23.8993C23.488 23.8993 23.762 23.7084 23.996 23.474L24.0849 23.5627C23.7927 23.9498 23.4316 24.2794 22.9113 24.2794C21.9017 24.2794 21.6991 23.3025 21.6991 22.8965C21.6991 21.6528 22.5365 21.2848 22.98 21.2848C23.4945 21.2848 24.0473 21.6081 24.053 22.2803C24.053 22.3195 24.053 22.357 24.0473 22.3954L23.9892 22.4336H22.2068Z" fill="#231F20"/>
<path d="M24.1988 24.0193H24.3707C24.5482 24.0193 24.6743 24.0193 24.6743 23.8091V22.0267C24.6743 21.8306 24.4401 21.7922 24.3449 21.741V21.6469C24.8076 21.4496 25.0624 21.285 25.1196 21.285C25.1572 21.285 25.1761 21.3032 25.1761 21.3673V21.9379H25.1898C25.3476 21.6909 25.6143 21.285 26.0014 21.285C26.1599 21.285 26.3626 21.392 26.3626 21.6208C26.3626 21.7922 26.243 21.9451 26.0647 21.9451C25.8674 21.9451 25.8674 21.7922 25.6459 21.7922C25.5381 21.7922 25.1826 21.9379 25.1826 22.3196V23.8091C25.1826 24.0193 25.3093 24.0193 25.4869 24.0193H25.8423V24.1848C25.4934 24.1788 25.2274 24.1722 24.9546 24.1722C24.6939 24.1722 24.4276 24.1788 24.1988 24.1848V24.0193Z" fill="#231F20"/>
<path d="M26.6416 23.3026C26.7247 23.7211 26.9786 24.0769 27.4419 24.0769C27.8158 24.0769 27.9548 23.8483 27.9548 23.6262C27.9548 22.8777 26.5726 23.1178 26.5726 22.0969C26.5726 21.741 26.8583 21.2849 27.5564 21.2849C27.759 21.2849 28.0318 21.3418 28.2792 21.4686L28.3239 22.1158H28.1783C28.1149 21.7164 27.8921 21.4871 27.4862 21.4871C27.232 21.4871 26.9914 21.6336 26.9914 21.9064C26.9914 22.6493 28.4632 22.4205 28.4632 23.4168C28.4632 23.8353 28.127 24.2795 27.3723 24.2795C27.1174 24.2795 26.8196 24.1912 26.5976 24.0645L26.5279 23.3345L26.6416 23.3026Z" fill="#231F20"/>
<path d="M34.1932 20.9036H34.0346C33.9143 20.1615 33.3873 19.8633 32.6774 19.8633C31.9467 19.8633 30.8866 20.3516 30.8866 21.8738C30.8866 23.1566 31.8022 24.0769 32.7784 24.0769C33.4066 24.0769 33.9272 23.6456 34.0543 22.979L34.1997 23.0166L34.0543 23.9434C33.7876 24.1088 33.0698 24.2795 32.6509 24.2795C31.1663 24.2795 30.2279 23.3216 30.2279 21.8939C30.2279 20.5929 31.3886 19.6599 32.6326 19.6599C33.1468 19.6599 33.6412 19.825 34.1299 19.996L34.1932 20.9036Z" fill="#231F20"/>
<path d="M34.4215 24.0193H34.5426C34.7205 24.0193 34.8475 24.0193 34.8475 23.8091V20.2765C34.8475 19.8633 34.7523 19.8505 34.511 19.781V19.6793C34.7645 19.5967 35.0313 19.4833 35.1647 19.4061C35.2342 19.3682 35.2854 19.3359 35.3041 19.3359C35.3427 19.3359 35.3549 19.3743 35.3549 19.4254V23.8091C35.3549 24.0193 35.4949 24.0193 35.6725 24.0193H35.7802V24.1848C35.5655 24.1848 35.3427 24.1722 35.1136 24.1722C34.8859 24.1722 34.6575 24.1788 34.4215 24.1848V24.0193Z" fill="#231F20"/>
<path d="M38.4967 23.8352C38.4967 23.9502 38.5657 23.9559 38.6741 23.9559C38.7497 23.9559 38.8458 23.9502 38.9284 23.9502V24.0837C38.6544 24.1088 38.1347 24.2419 38.0132 24.2798L37.9822 24.2609V23.7476C37.602 24.0583 37.3091 24.2798 36.858 24.2798C36.5158 24.2798 36.1611 24.0583 36.1611 23.5256V21.9006C36.1611 21.7351 36.1352 21.5762 35.7809 21.5451V21.4244C36.0096 21.4176 36.5158 21.3804 36.5988 21.3804C36.6695 21.3804 36.6695 21.4244 36.6695 21.564V23.2008C36.6695 23.3909 36.6695 23.9368 37.2211 23.9368C37.4362 23.9368 37.7219 23.7714 37.9883 23.551V21.8425C37.9883 21.7162 37.684 21.6467 37.4559 21.5827V21.4685C38.027 21.4301 38.3829 21.3804 38.4458 21.3804C38.4967 21.3804 38.4967 21.4244 38.4967 21.4946V23.8352Z" fill="#231F20"/>
<path d="M39.7588 23.4675C39.7588 23.7087 39.9873 24.1147 40.4129 24.1147C41.0925 24.1147 41.3778 23.448 41.3778 22.8831C41.3778 22.1983 40.8573 21.6273 40.3624 21.6273C40.1265 21.6273 39.9304 21.7798 39.7588 21.9263V23.4675ZM39.7588 21.7411C40.0126 21.526 40.3561 21.2851 40.7048 21.2851C41.4408 21.2851 41.8851 21.9263 41.8851 22.6172C41.8851 23.448 41.2761 24.2797 40.3678 24.2797C39.8981 24.2797 39.6514 24.1276 39.486 24.0582L39.2959 24.2035L39.1631 24.134C39.2189 23.76 39.2511 23.3912 39.2511 23.0045V20.2765C39.2511 19.8634 39.1563 19.8502 38.915 19.7807V19.6791C39.1697 19.5967 39.4352 19.4833 39.5687 19.4059C39.6383 19.3683 39.689 19.3361 39.7087 19.3361C39.7467 19.3361 39.7588 19.3744 39.7588 19.4256V21.7411Z" fill="#231F20"/>
<path d="M12.3822 27.8738H12.4305C12.5545 27.8738 12.6862 27.8575 12.6862 27.6773V25.8687C12.6862 25.6885 12.5545 25.6721 12.4305 25.6721H12.3822V25.567C12.5173 25.567 12.7241 25.5815 12.8937 25.5815C13.0663 25.5815 13.2731 25.567 13.4352 25.567V25.6721H13.3869C13.2628 25.6721 13.1312 25.6885 13.1312 25.8687V27.6773C13.1312 27.8575 13.2628 27.8738 13.3869 27.8738H13.4352V27.9782C13.2697 27.9782 13.0621 27.9645 12.8899 27.9645C12.7203 27.9645 12.5173 27.9782 12.3822 27.9782V27.8738Z" fill="#231F20"/>
<path d="M13.4203 27.9633L13.4207 27.8896H13.3874C13.2641 27.8896 13.1169 27.8681 13.1161 27.6772V25.8685C13.1169 25.6777 13.2641 25.6565 13.3874 25.6565H13.4203V25.5833C13.261 25.5833 13.0611 25.5966 12.8938 25.5966C12.7299 25.5966 12.531 25.5836 12.3975 25.5833V25.6565H12.4305C12.5535 25.6565 12.7006 25.6777 12.7006 25.8685V27.6772C12.7006 27.8681 12.5535 27.8896 12.4305 27.8896H12.3975V27.9633C12.531 27.9613 12.7264 27.9492 12.89 27.9492C13.058 27.9492 13.258 27.9621 13.4203 27.9633ZM13.4352 27.9929C13.2686 27.9929 13.0615 27.9792 12.89 27.9792C12.7208 27.9792 12.5178 27.9929 12.3823 27.9929H12.3672V27.8597H12.4305C12.5558 27.8566 12.6699 27.8464 12.6707 27.6772V25.8685C12.6699 25.6997 12.5558 25.6883 12.4305 25.6861H12.3672V25.5533H12.3823C12.5178 25.5533 12.7245 25.5666 12.8938 25.5666C13.0656 25.5666 13.2721 25.5533 13.4352 25.5533H13.4503V25.6861H13.3874C13.2618 25.6883 13.1469 25.6997 13.1465 25.8685V27.6772C13.1469 27.8464 13.2618 27.8566 13.3874 27.8597H13.4503V27.9929H13.4352Z" fill="#231F20"/>
<path d="M15.8076 27.2977L15.8145 27.2909V25.996C15.8145 25.713 15.6175 25.6719 15.5136 25.6719H15.4381V25.5673C15.6 25.5673 15.7595 25.5814 15.9215 25.5814C16.0626 25.5814 16.2049 25.5673 16.3457 25.5673V25.6719H16.2948C16.1491 25.6719 15.9863 25.699 15.9863 26.1099V27.6813C15.9863 27.802 15.9904 27.9226 16.0076 28.0296H15.8763L14.098 26.048V27.47C14.098 27.7712 14.1565 27.8736 14.4224 27.8736H14.4808V27.978C14.3329 27.978 14.1841 27.9643 14.0354 27.9643C13.881 27.9643 13.7216 27.978 13.5664 27.978V27.8736H13.6146C13.8529 27.8736 13.9258 27.7125 13.9258 27.4358V25.982C13.9258 25.7885 13.766 25.6719 13.6112 25.6719H13.5664V25.5673C13.697 25.5673 13.832 25.5814 13.9629 25.5814C14.0668 25.5814 14.1674 25.5673 14.2706 25.5673L15.8076 27.2977Z" fill="#231F20"/>
<path d="M15.7994 27.2907V27.2896L15.7963 27.2873L15.7994 27.2907ZM15.876 28.0146H15.9906C15.9751 27.911 15.9724 27.7957 15.9724 27.6815V26.1097C15.9724 25.6953 16.1458 25.6567 16.2945 25.6567H16.3309V25.583C16.1947 25.5838 16.0585 25.5966 15.9216 25.5966C15.7634 25.5966 15.6093 25.5838 15.453 25.583V25.6567H15.5133C15.6199 25.6567 15.829 25.7037 15.829 25.9962L15.8248 27.3014L15.8176 27.3078L15.8058 27.3188L14.2708 25.583C14.1679 25.583 14.0678 25.5966 13.9631 25.5966C13.8367 25.5966 13.7065 25.5838 13.5814 25.583L13.581 25.6567H13.6113C13.7733 25.6567 13.9403 25.7803 13.9403 25.9822V27.436C13.9403 27.7127 13.8633 27.8886 13.6148 27.8898L13.5814 27.8886V27.9634C13.7308 27.9615 13.8845 27.949 14.0355 27.949C14.1801 27.949 14.3235 27.9615 14.4657 27.9634V27.8898H14.4221C14.1505 27.8886 14.0829 27.771 14.0829 27.4701V26.0091L15.876 28.0146ZM16.0073 28.045L15.865 28.0396L14.1125 26.0869V27.4701C14.117 27.771 14.1626 27.856 14.4221 27.8598H14.4965V27.9926H14.4809C14.3319 27.9926 14.1831 27.9793 14.0355 27.9793C13.8814 27.9793 13.7229 27.9926 13.5658 27.9926H13.5506V27.8598H13.6148C13.8432 27.858 13.9081 27.7115 13.9111 27.436V25.9822C13.9103 25.7985 13.7593 25.6866 13.6113 25.6862H13.5506V25.5531H13.5658C13.6982 25.5531 13.8329 25.5667 13.9631 25.5667C14.0655 25.5667 14.1657 25.5531 14.2821 25.5584L15.7994 27.2661V25.9962C15.7975 25.7215 15.6146 25.6885 15.5133 25.6862H15.4222V25.5531H15.4378C15.6006 25.5531 15.7599 25.5667 15.9216 25.5667C16.0616 25.5667 16.2034 25.5531 16.3458 25.5531H16.3612V25.6862H16.2945C16.1515 25.6904 16.0058 25.7033 16.0016 26.1097V27.6815C16.0016 27.8014 16.0051 27.922 16.0217 28.0275L16.0248 28.045H16.0073Z" fill="#231F20"/>
<path d="M16.8627 25.7402C16.6036 25.7402 16.5941 25.8024 16.5418 26.0543H16.4386C16.4526 25.958 16.4693 25.8612 16.4803 25.7607C16.4936 25.6643 16.5007 25.5672 16.5007 25.4678H16.5839C16.6116 25.5714 16.6976 25.5672 16.791 25.5672H18.5727C18.6657 25.5672 18.7522 25.5641 18.7594 25.4606L18.8414 25.475C18.8288 25.5672 18.8147 25.6609 18.8041 25.7543C18.7969 25.8471 18.7969 25.9409 18.7969 26.0339L18.6938 26.0725C18.6869 25.9443 18.669 25.7402 18.438 25.7402H17.872V27.5773C17.872 27.844 17.993 27.8739 18.1584 27.8739H18.2236V27.9779C18.0894 27.9779 17.8472 27.9643 17.661 27.9643C17.4542 27.9643 17.2118 27.9779 17.0771 27.9779V27.8739H17.1428C17.3332 27.8739 17.4291 27.8573 17.4291 27.5849V25.7402H16.8627Z" fill="#231F20"/>
<path d="M18.2244 27.9927C18.0882 27.9927 17.8465 27.979 17.661 27.979C17.4543 27.979 17.2133 27.9927 17.0772 27.9927H17.0627V27.8595H17.1431C17.3336 27.855 17.4103 27.8527 17.414 27.5848V25.7549H16.8627V25.7257H17.4444V27.5848C17.4444 27.8614 17.3328 27.8899 17.1431 27.8899H17.0922V27.9627C17.2289 27.9615 17.4606 27.9491 17.661 27.9491C17.8412 27.9491 18.0719 27.9615 18.2085 27.9627V27.8899H18.1584C17.9915 27.8899 17.8564 27.8492 17.8564 27.5773V25.7257H18.438C18.6699 25.7261 18.7003 25.9226 18.7075 26.0509L18.783 26.0232C18.783 25.9337 18.7833 25.8434 18.789 25.7519C18.7988 25.6639 18.8118 25.5755 18.8247 25.4871L18.7723 25.4784C18.7553 25.5786 18.6584 25.5842 18.5724 25.5831H16.7732C16.6916 25.5831 16.6036 25.579 16.5729 25.4829H16.5152C16.5152 25.5786 16.5084 25.6707 16.4947 25.7633C16.4848 25.8578 16.4697 25.9492 16.4567 26.0395H16.5304C16.5763 25.7997 16.6055 25.7216 16.8627 25.7257V25.7549C16.6078 25.7602 16.6135 25.8027 16.5565 26.0581L16.5547 26.0699H16.4211L16.4234 26.0521C16.4367 25.9557 16.4549 25.8589 16.4655 25.7584C16.4791 25.6628 16.486 25.5667 16.486 25.4677V25.4526H16.5957L16.5979 25.4636C16.6218 25.5509 16.6852 25.5513 16.7732 25.5531H18.5724C18.6679 25.5513 18.7385 25.5497 18.7442 25.4593L18.7454 25.4435L18.7609 25.4465L18.8581 25.4616L18.8565 25.4764C18.8429 25.5694 18.8292 25.6628 18.8193 25.7549C18.8122 25.8475 18.8122 25.9409 18.8122 26.0338V26.0444L18.8023 26.0486L18.6798 26.0934L18.6794 26.0725C18.6699 25.9431 18.6562 25.7549 18.438 25.7549H17.8868V27.5773C17.8902 27.8379 17.9938 27.8561 18.1584 27.8595H18.2385V27.9927H18.2244Z" fill="#231F20"/>
<path d="M18.9523 27.8738H19.0005C19.1245 27.8738 19.2558 27.8575 19.2558 27.6773V25.8687C19.2558 25.6885 19.1245 25.6721 19.0005 25.6721H18.9523V25.567C19.1621 25.567 19.5225 25.5815 19.8117 25.5815C20.1023 25.5815 20.4609 25.567 20.6949 25.567C20.6892 25.7161 20.6926 25.9446 20.7029 26.0963L20.5986 26.124C20.5822 25.8997 20.5405 25.7203 20.1778 25.7203H19.699V26.624H20.1087C20.3162 26.624 20.3614 26.5076 20.3815 26.3209H20.4847C20.4783 26.4556 20.4745 26.5899 20.4745 26.7246C20.4745 26.8563 20.4783 26.9871 20.4847 27.118L20.3815 27.1389C20.3614 26.9317 20.3508 26.7971 20.1122 26.7971H19.699V27.6014C19.699 27.826 19.8985 27.826 20.1189 27.826C20.534 27.826 20.7166 27.7983 20.8201 27.4049L20.9165 27.4292C20.8718 27.6128 20.8303 27.7945 20.7993 27.9782C20.5789 27.9782 20.1812 27.9645 19.8704 27.9645C19.5594 27.9645 19.1488 27.9782 18.9523 27.9782V27.8738Z" fill="#231F20"/>
<path d="M20.7868 27.9627C20.8163 27.7885 20.8558 27.614 20.8987 27.4402L20.8303 27.4231C20.7268 27.8098 20.5268 27.8439 20.1189 27.8409C19.9012 27.8409 19.6838 27.8409 19.6826 27.6015V26.7823H20.1122C20.3535 26.7793 20.3773 26.9254 20.3944 27.122L20.4692 27.1064C20.4631 26.9792 20.4597 26.8511 20.4597 26.7247C20.4597 26.5953 20.4631 26.4659 20.4692 26.335H20.3944C20.3755 26.5157 20.3197 26.6415 20.1083 26.6393H19.6826V25.7044H20.1778C20.5371 25.7025 20.597 25.8881 20.6118 26.1043L20.6862 26.0842C20.6805 25.9867 20.6771 25.8626 20.6771 25.7473C20.6771 25.687 20.6782 25.6319 20.6797 25.5831C20.4453 25.5838 20.0955 25.5967 19.8117 25.5967C19.5282 25.5967 19.1785 25.5838 18.9671 25.5831V25.6567H19.0005C19.1237 25.6567 19.2706 25.6779 19.2715 25.8683V27.6774C19.2706 27.8678 19.1237 27.8884 19.0005 27.8898H18.9671V27.9627C19.1678 27.9619 19.5673 27.949 19.8704 27.949C20.1751 27.949 20.5637 27.9619 20.7868 27.9627ZM20.7993 27.9927C20.5777 27.9927 20.1808 27.9786 19.8704 27.9786C19.5594 27.9786 19.1496 27.9927 18.9523 27.9927H18.9371V27.8599H19.0005C19.1253 27.8576 19.2395 27.8462 19.2407 27.6774V25.8683C19.2395 25.7003 19.1253 25.6889 19.0005 25.6859H18.9371V25.5531H18.9523C19.1625 25.5531 19.5225 25.5667 19.8117 25.5667C20.1015 25.5667 20.4601 25.5531 20.6949 25.5531H20.7105V25.5683C20.7074 25.6202 20.7063 25.6814 20.7063 25.7473C20.7063 25.8661 20.7105 25.9966 20.7169 26.0949V26.1074L20.7059 26.1108L20.5845 26.1426L20.5841 26.1245C20.5637 25.901 20.534 25.7378 20.1778 25.7348H19.7126V26.6089H20.1083C20.3079 26.6074 20.3429 26.5054 20.3663 26.3191L20.3679 26.3058H20.5007V26.3209C20.4935 26.4557 20.4893 26.59 20.4893 26.7247C20.4893 26.8552 20.4935 26.9865 20.5007 27.1181V27.1299L20.4882 27.1329L20.3679 27.1565L20.3663 27.1405C20.3429 26.9299 20.3417 26.8146 20.1122 26.8119L19.7126 26.8112V27.6015C19.713 27.8113 19.8936 27.8102 20.1189 27.8113C20.5352 27.809 20.7014 27.7885 20.8053 27.4007L20.8088 27.3867L20.8236 27.3898L20.934 27.4182L20.9309 27.4326C20.8862 27.6148 20.8451 27.7981 20.8141 27.9801L20.8118 27.9927H20.7993Z" fill="#231F20"/>
<path d="M21.825 26.7346H21.9936C22.3392 26.7346 22.5254 26.6041 22.5254 26.1963C22.5254 25.8897 22.3285 25.692 22.0213 25.692C21.9168 25.692 21.8728 25.703 21.825 25.7061V26.7346ZM21.383 25.9337C21.383 25.6814 21.2449 25.6718 21.1379 25.6718H21.0749V25.5672C21.1853 25.5672 21.3997 25.5813 21.6107 25.5813C21.817 25.5813 21.9832 25.5672 22.1669 25.5672C22.6009 25.5672 22.9876 25.6848 22.9876 26.1757C22.9876 26.4861 22.7811 26.6758 22.5084 26.7839L23.0991 27.6668C23.1955 27.8133 23.2638 27.8538 23.4334 27.8739V27.9779C23.3195 27.9779 23.2091 27.9643 23.0953 27.9643C22.9876 27.9643 22.8775 27.9779 22.7706 27.9779C22.505 27.6297 22.2766 27.2563 22.0523 26.8587H21.825V27.5978C21.825 27.8645 21.9487 27.8739 22.1073 27.8739H22.1703V27.9779C21.9726 27.9779 21.7727 27.9643 21.5758 27.9643C21.4104 27.9643 21.2479 27.9779 21.0749 27.9779V27.8739H21.1379C21.2647 27.8739 21.383 27.8159 21.383 27.6877V25.9337Z" fill="#231F20"/>
<path d="M21.9937 26.7199C22.3351 26.7165 22.5077 26.5982 22.5107 26.1967C22.5093 25.8955 22.3215 25.7084 22.021 25.7066C21.9276 25.7066 21.884 25.7149 21.8399 25.7198V26.7199H21.9937ZM21.9937 26.7491H21.8096V25.6918L21.8225 25.6906C21.8699 25.6868 21.9162 25.6777 22.021 25.6777C22.3351 25.6777 22.54 25.8822 22.5407 26.1967C22.5396 26.6087 22.3416 26.7491 21.9937 26.7491ZM21.8096 26.844H22.0604L22.0645 26.8515C22.2892 27.2488 22.5165 27.6214 22.7707 27.9633C22.8761 27.9633 22.9873 27.9492 23.0943 27.9492C23.2047 27.9492 23.3114 27.961 23.4187 27.9625V27.8866C23.2563 27.8672 23.1808 27.8187 23.0867 27.6756L22.4853 26.7764L22.5027 26.7692C22.773 26.6631 22.9729 26.4786 22.9733 26.1751C22.9729 25.6967 22.6004 25.5847 22.1671 25.5833C21.9845 25.5833 21.8179 25.5966 21.6108 25.5966C21.407 25.5966 21.2028 25.5836 21.0899 25.5833V25.6568H21.1376C21.2447 25.6568 21.3968 25.6743 21.3968 25.9338V27.6878C21.3968 27.8267 21.2678 27.8896 21.1376 27.8896H21.0899V27.9625C21.2564 27.9621 21.4131 27.9492 21.5751 27.9492C21.7686 27.9492 21.9633 27.9621 22.1545 27.9625V27.8896H22.1074C21.9499 27.8896 21.8096 27.8703 21.8096 27.5979V26.844ZM23.4335 27.9925C23.3178 27.9925 23.2081 27.9792 23.0943 27.9792C22.9895 27.9792 22.8788 27.9925 22.7582 27.9875C22.4941 27.6396 22.2672 27.2689 22.0438 26.874H21.8399V27.5979C21.8434 27.8578 21.9477 27.8555 22.1074 27.8597H22.1848V27.9925H22.1693C21.9716 27.9925 21.7709 27.9792 21.5751 27.9792C21.4101 27.9792 21.2484 27.9925 21.0747 27.9925H21.0606V27.8597H21.1376C21.2621 27.8585 21.366 27.8043 21.3672 27.6878V25.9338C21.365 25.6891 21.2447 25.6894 21.1376 25.6861H21.0606V25.5533H21.0747C21.1874 25.5533 21.4002 25.5666 21.6108 25.5666C21.8164 25.5666 21.9826 25.5533 22.1671 25.5533C22.6014 25.5533 23.0025 25.6743 23.0036 26.1751C23.0036 26.487 22.7972 26.6816 22.5312 26.7901L23.111 27.6586C23.2074 27.802 23.2673 27.8381 23.4354 27.8597L23.4479 27.8609V27.9925H23.4335Z" fill="#231F20"/>
<path d="M25.7775 27.2977L25.784 27.2909V25.996C25.784 25.713 25.5874 25.6719 25.4842 25.6719H25.408V25.5673C25.5708 25.5673 25.7286 25.5814 25.8918 25.5814C26.0336 25.5814 26.1748 25.5673 26.3167 25.5673V25.6719H26.2654C26.1201 25.6719 25.9573 25.699 25.9573 26.1099V27.6813C25.9573 27.802 25.9604 27.9226 25.9774 28.0296H25.8469L24.0686 26.048V27.47C24.0686 27.7712 24.1275 27.8736 24.3935 27.8736H24.4526V27.978C24.3036 27.978 24.1548 27.9643 24.0064 27.9643C23.8509 27.9643 23.6923 27.978 23.5371 27.978V27.8736H23.5845C23.8235 27.8736 23.8956 27.7125 23.8956 27.4358V25.982C23.8956 25.7885 23.7367 25.6719 23.5819 25.6719H23.5371V25.5673C23.6676 25.5673 23.8034 25.5814 23.934 25.5814C24.0372 25.5814 24.1374 25.5673 24.241 25.5673L25.7775 27.2977Z" fill="#231F20"/>
<path d="M25.7692 27.2907V27.2896L25.7673 27.2873L25.7692 27.2907ZM25.847 28.0146H25.9597C25.9453 27.9114 25.9422 27.7957 25.9422 27.6815V26.1097C25.9422 25.6953 26.1172 25.6574 26.2651 25.6567H26.3011V25.583C26.1653 25.5838 26.0287 25.5966 25.8918 25.5966C25.7336 25.5966 25.5787 25.5838 25.4233 25.583V25.6567H25.4843C25.5905 25.6574 25.8 25.7037 25.8 25.9962L25.795 27.3014L25.7886 27.3078L25.7776 27.3196L24.241 25.583C24.1385 25.583 24.0376 25.5966 23.934 25.5966C23.8058 25.5966 23.6768 25.5838 23.5516 25.583V25.6567H23.5816C23.744 25.6574 23.9105 25.7795 23.9105 25.9822V27.4356C23.9105 27.7127 23.832 27.8886 23.5843 27.8898H23.5516V27.9627C23.7011 27.9615 23.8548 27.949 24.0065 27.949C24.1507 27.949 24.2941 27.9615 24.4371 27.9627V27.8898H24.3936C24.1214 27.8898 24.0535 27.7714 24.0528 27.4701V26.0091L25.847 28.0146ZM25.9775 28.045L25.8356 28.0396L24.0835 26.0869V27.4701C24.0877 27.7714 24.1333 27.856 24.3936 27.8598H24.4667V27.9926H24.4519C24.3024 27.9926 24.1541 27.9786 24.0065 27.9786C23.8521 27.9786 23.692 27.9926 23.5372 27.9926H23.5208V27.8598H23.5843C23.8123 27.8587 23.8782 27.7115 23.8805 27.4356V25.9822C23.8798 25.7977 23.73 25.6866 23.5816 25.6862H23.5208V25.5531H23.5372C23.6685 25.5531 23.8039 25.5667 23.934 25.5667C24.0357 25.5667 24.1355 25.5531 24.2512 25.5572L25.7692 27.2661V25.9962C25.7689 25.7215 25.5844 25.6877 25.4843 25.6862H25.3929V25.5531H25.4081C25.5715 25.5531 25.7305 25.5667 25.8918 25.5667C26.0321 25.5667 26.1741 25.5531 26.3163 25.5531H26.3311V25.6862H26.2651C26.1228 25.6896 25.976 25.7033 25.9722 26.1097V27.6815C25.9722 27.8014 25.9752 27.921 25.9927 28.0275L25.9943 28.045H25.9775Z" fill="#231F20"/>
<path d="M27.3763 25.9544H27.3695L27.0481 26.9317H27.6934L27.3763 25.9544ZM26.8728 27.4842C26.8375 27.6014 26.7954 27.6921 26.7954 27.7532C26.7954 27.8572 26.9414 27.8738 27.0549 27.8738H27.0932V27.9778C26.9543 27.971 26.8133 27.9645 26.6747 27.9645C26.5503 27.9645 26.4266 27.971 26.3026 27.9778V27.8738H26.3226C26.4573 27.8738 26.5719 27.7945 26.6224 27.6496L27.1755 26.0656C27.2203 25.9373 27.2833 25.7651 27.3034 25.6365C27.4139 25.599 27.5523 25.5302 27.6179 25.4885C27.6285 25.4847 27.6339 25.482 27.6452 25.482C27.6552 25.482 27.6624 25.482 27.6696 25.4919C27.6798 25.5196 27.6901 25.5507 27.701 25.5784L28.3358 27.3844C28.3771 27.5051 28.4189 27.6332 28.4633 27.7369C28.5049 27.8333 28.5778 27.8738 28.6917 27.8738H28.7118V27.9778C28.5569 27.971 28.4014 27.9645 28.2361 27.9645C28.0672 27.9645 27.8942 27.971 27.7185 27.9778V27.8738H27.7564C27.8354 27.8738 27.9701 27.861 27.9701 27.7744C27.9701 27.7293 27.9393 27.6359 27.9002 27.5255L27.7659 27.1248H26.9821L26.8728 27.4842Z" fill="#231F20"/>
<path d="M27.0681 26.9171H27.6725L27.372 25.9913L27.0681 26.9171ZM27.0267 26.947L27.3575 25.9398H27.3864L27.7142 26.947H27.0267ZM27.7328 27.9615C27.9031 27.9562 28.0712 27.9491 28.236 27.9491C28.3967 27.9491 28.5467 27.9562 28.6969 27.9615V27.8899H28.6916C28.5739 27.8911 28.4927 27.8435 28.4494 27.7427C28.4046 27.638 28.3626 27.5097 28.322 27.3891L27.6865 25.5831C27.6758 25.5554 27.6652 25.5242 27.6569 25.4996C27.6535 25.4962 27.6547 25.4962 27.6516 25.4962H27.6451C27.6383 25.4962 27.6342 25.4981 27.6254 25.5008C27.5587 25.5436 27.4197 25.6119 27.3173 25.6389C27.2965 25.7701 27.2343 25.942 27.1892 26.0699L26.6371 27.655C26.5843 27.8049 26.4633 27.8899 26.3226 27.8899H26.3172V27.9615C26.4353 27.9562 26.5552 27.9491 26.675 27.9491C26.8085 27.9491 26.9447 27.9562 27.0767 27.9615V27.8899H27.0548C26.9421 27.8884 26.785 27.8762 26.7812 27.7536C26.7812 27.685 26.823 27.5962 26.8575 27.4802L26.8728 27.4842L26.8575 27.4798L26.9713 27.1106H27.7756L27.9141 27.5207C27.9532 27.6319 27.9847 27.7237 27.9847 27.7745C27.9794 27.8804 27.8341 27.888 27.7563 27.8899H27.7328V27.9615ZM28.7109 27.9927C28.5566 27.9862 28.4013 27.9787 28.236 27.9787C28.0671 27.9787 27.8952 27.9862 27.7184 27.9927L27.7028 27.9938V27.8584H27.7563C27.8355 27.8584 27.954 27.841 27.954 27.7745C27.9548 27.7351 27.9248 27.6403 27.8865 27.5306L27.7553 27.1401H26.9934L26.8856 27.4885C26.8503 27.6068 26.8097 27.6979 26.8097 27.7536C26.8109 27.8379 26.9402 27.8584 27.0548 27.8584H27.1075V27.9938L27.0919 27.9927C26.9538 27.9862 26.8123 27.9787 26.675 27.9787C26.5509 27.9787 26.4265 27.9862 26.3028 27.9927L26.2876 27.9938V27.8584H26.3226C26.4512 27.8584 26.5581 27.7848 26.6079 27.6448L27.1611 26.0603C27.2066 25.9322 27.2684 25.7602 27.2984 25.6229C27.4066 25.5854 27.5449 25.5159 27.6121 25.4742C27.622 25.4708 27.6311 25.4659 27.6451 25.4659C27.6535 25.4655 27.6725 25.4681 27.6827 25.4867C27.6933 25.5148 27.7039 25.5455 27.7142 25.5733L28.3505 27.3796C28.3911 27.5003 28.4324 27.6277 28.4771 27.7294C28.5169 27.822 28.5808 27.8584 28.6916 27.8584H28.7273V27.9938L28.7109 27.9927Z" fill="#231F20"/>
<path d="M28.8645 25.7402C28.6048 25.7402 28.595 25.8024 28.5431 26.0543H28.4391C28.4531 25.958 28.4706 25.8612 28.4808 25.7607C28.4948 25.6643 28.5017 25.5672 28.5017 25.4678H28.5844C28.6121 25.5714 28.6986 25.5672 28.7916 25.5672H30.5733C30.6662 25.5672 30.752 25.5641 30.7592 25.4606L30.8422 25.475C30.8289 25.5672 30.8158 25.6609 30.8043 25.7543C30.796 25.8471 30.796 25.9409 30.796 26.0339L30.6935 26.0725C30.6879 25.9443 30.6696 25.7402 30.4386 25.7402H29.8721V27.5773C29.8721 27.844 29.9931 27.8739 30.159 27.8739H30.2242V27.9779C30.0899 27.9779 29.8482 27.9643 29.6615 27.9643C29.4547 27.9643 29.2124 27.9779 29.0773 27.9779V27.8739H29.1432C29.3341 27.8739 29.4309 27.8573 29.4309 27.5849V25.7402H28.8645Z" fill="#231F20"/>
<path d="M30.2238 27.9927C30.0892 27.9927 29.8475 27.979 29.6617 27.979C29.4552 27.979 29.2139 27.9927 29.0774 27.9927H29.0629V27.8595H29.1434C29.3339 27.855 29.4097 27.8527 29.4146 27.5848V25.7549H28.8641V25.7257H29.4446V27.5848C29.4446 27.8614 29.3335 27.8884 29.1434 27.8899H29.0925V27.9631C29.2292 27.9615 29.4609 27.9491 29.6617 27.9491C29.8419 27.9491 30.0729 27.9615 30.2095 27.9631L30.2087 27.8899H30.1583C29.9921 27.8884 29.8579 27.8492 29.8575 27.5773V25.7257H30.4383C30.6709 25.7261 30.7004 25.9226 30.7073 26.0509L30.7824 26.0232C30.7824 25.9337 30.7824 25.8434 30.7896 25.7527C30.7991 25.6639 30.8127 25.5755 30.8248 25.4878L30.7733 25.4784C30.7566 25.5786 30.6599 25.5842 30.5729 25.5831H28.7738C28.6923 25.5835 28.6047 25.579 28.573 25.4817H28.5166C28.5154 25.5786 28.5094 25.6707 28.4953 25.7633C28.4858 25.8585 28.4691 25.9492 28.4563 26.0395H28.5306C28.5762 25.7997 28.6054 25.7208 28.8641 25.7257V25.7549C28.6077 25.7595 28.6137 25.8027 28.5576 26.0581L28.5549 26.0699H28.4213L28.4236 26.0521C28.4376 25.9557 28.4552 25.8589 28.4653 25.7595C28.4794 25.6628 28.4858 25.5667 28.4858 25.4677V25.4526H28.5952L28.5981 25.4636C28.6225 25.5509 28.6861 25.5513 28.7738 25.5531H30.5729C30.6686 25.5513 30.7388 25.5497 30.7445 25.4593L30.7448 25.4435L30.7615 25.4465L30.8598 25.4616L30.8568 25.4764C30.842 25.5694 30.8295 25.6628 30.8193 25.7549C30.8127 25.8475 30.8127 25.9409 30.8127 26.0338V26.0444L30.8022 26.0486L30.6796 26.0934V26.0725C30.6709 25.9431 30.6568 25.7549 30.4383 25.7549H29.887V27.5773C29.8904 27.8379 29.994 27.8561 30.1583 27.8595H30.2391V27.9927H30.2238Z" fill="#231F20"/>
<path d="M30.9695 27.8738H31.0177C31.1429 27.8738 31.2734 27.8575 31.2734 27.6773V25.8687C31.2734 25.6885 31.1429 25.6721 31.0177 25.6721H30.9695V25.567C31.1043 25.567 31.311 25.5815 31.4802 25.5815C31.6529 25.5815 31.86 25.567 32.0231 25.567V25.6721H31.9749C31.8498 25.6721 31.718 25.6885 31.718 25.8687V27.6773C31.718 27.8575 31.8498 27.8738 31.9749 27.8738H32.0231V27.9782C31.857 27.9782 31.6499 27.9645 31.4772 27.9645C31.3075 27.9645 31.1043 27.9782 30.9695 27.9782V27.8738Z" fill="#231F20"/>
<path d="M32.0071 27.9627V27.8898H31.9749C31.8508 27.8898 31.704 27.8678 31.704 27.6774V25.8683C31.704 25.6779 31.8508 25.6567 31.9749 25.6567H32.0071V25.5831C31.8478 25.5838 31.6486 25.5967 31.4801 25.5967C31.3163 25.5967 31.1182 25.5838 30.9847 25.5831V25.6567H31.0176C31.1402 25.6567 31.2882 25.6779 31.2882 25.8683V27.6774C31.2882 27.8678 31.1402 27.8898 31.0176 27.8898H30.9847V27.9627C31.1182 27.9608 31.3129 27.949 31.4772 27.949C31.6449 27.949 31.8448 27.9615 32.0071 27.9627ZM32.0231 27.9927C31.8561 27.9927 31.6494 27.9786 31.4772 27.9786C31.3083 27.9786 31.1042 27.9927 30.9694 27.9927H30.9551V27.8599H31.0176C31.1428 27.8576 31.2571 27.8462 31.2574 27.6774V25.8683C31.2571 25.7003 31.1428 25.6885 31.0176 25.6859H30.9551V25.5531H30.9694C31.1042 25.5531 31.3117 25.5667 31.4801 25.5667C31.6528 25.5667 31.8595 25.5531 32.0231 25.5531H32.0371V25.6859H31.9749C31.8485 25.6885 31.7347 25.7003 31.7336 25.8683V27.6774C31.7347 27.8462 31.8485 27.8576 31.9749 27.8599H32.0371V27.9927H32.0231Z" fill="#231F20"/>
<path d="M33.4517 27.8779C34.1225 27.8779 34.2383 27.2872 34.2383 26.784C34.2383 26.2791 33.9666 25.6683 33.3933 25.6683C32.7893 25.6683 32.6098 26.2066 32.6098 26.6687C32.6098 27.2872 32.8928 27.8779 33.4517 27.8779ZM33.4002 25.5161C34.1358 25.5161 34.7228 25.9722 34.7228 26.7078C34.7228 27.502 34.1533 28.0297 33.4176 28.0297C32.6846 28.0297 32.1268 27.533 32.1268 26.7898C32.1268 26.0727 32.6824 25.5161 33.4002 25.5161Z" fill="#231F20"/>
<path d="M32.5942 26.6687C32.5953 26.2044 32.7774 25.6527 33.3932 25.6527C33.9801 25.6538 34.2533 26.2764 34.2537 26.784C34.2533 27.2872 34.1345 27.8923 33.4516 27.8923V27.8632C34.1092 27.8627 34.2226 27.2872 34.2241 26.784C34.2241 26.2832 33.9543 25.6838 33.3932 25.683C32.8009 25.6838 32.6256 26.2093 32.6245 26.6687C32.6252 27.2845 32.9056 27.8615 33.4516 27.8632V27.8923C32.8791 27.8915 32.5953 27.2905 32.5942 26.6687ZM32.1108 26.7901C32.1127 26.064 32.6746 25.502 33.4 25.5005V25.5313C32.6894 25.5313 32.14 26.0799 32.14 26.7901C32.1412 27.5243 32.6924 28.0141 33.4174 28.0145C34.1455 28.0141 34.7067 27.4935 34.7086 26.707C34.7082 25.9808 34.1301 25.532 33.4 25.5313V25.5005C34.1414 25.502 34.7359 25.9626 34.737 26.707C34.7366 27.5095 34.1603 28.0434 33.4174 28.0448C32.6792 28.0434 32.1127 27.5403 32.1108 26.7901Z" fill="#231F20"/>
<path d="M37.0501 27.2977L37.0567 27.2909V25.996C37.0567 25.713 36.8599 25.6719 36.7552 25.6719H36.6808V25.5673C36.8422 25.5673 37.0018 25.5814 37.1635 25.5814C37.3062 25.5814 37.4473 25.5673 37.5884 25.5673V25.6719H37.5367C37.3912 25.6719 37.2287 25.699 37.2287 26.1099V27.6813C37.2287 27.802 37.2329 27.9226 37.25 28.0296H37.1184L35.3403 26.048V27.47C35.3403 27.7712 35.3988 27.8736 35.6652 27.8736H35.7236V27.978C35.5753 27.978 35.4273 27.9643 35.2782 27.9643C35.123 27.9643 34.9636 27.978 34.8081 27.978V27.8736H34.857C35.096 27.8736 35.1671 27.7125 35.1671 27.4358V25.982C35.1671 25.7885 35.0092 25.6719 34.8529 25.6719H34.8081V25.5673C34.9397 25.5673 35.0741 25.5814 35.2057 25.5814C35.3089 25.5814 35.4091 25.5673 35.5127 25.5673L37.0501 27.2977Z" fill="#231F20"/>
<path d="M37.0411 27.2907V27.2896L37.0381 27.2873L37.0411 27.2907ZM37.1183 28.0146H37.2324C37.2171 27.911 37.2142 27.7957 37.2142 27.6815V26.1097C37.2142 25.6949 37.3887 25.6574 37.5367 25.6567H37.5739V25.583C37.4367 25.5838 37.3007 25.5966 37.1626 25.5966C37.0063 25.5966 36.8518 25.5838 36.6951 25.583V25.6567H36.7551C36.8629 25.6574 37.0711 25.7044 37.0711 25.9962L37.067 27.3014L37.0608 27.3078L37.0499 27.3196L35.5125 25.583C35.4109 25.583 35.3099 25.5966 35.2056 25.5966C35.0781 25.5966 34.9479 25.5838 34.8232 25.583V25.6567H34.8527C35.0156 25.6574 35.1824 25.7795 35.1824 25.9822V27.436C35.1824 27.7127 35.1054 27.8886 34.8569 27.8898H34.8232V27.9627C34.973 27.9615 35.1263 27.949 35.2784 27.949C35.4226 27.949 35.566 27.9615 35.7087 27.9627V27.8898H35.6639C35.393 27.8898 35.3255 27.7714 35.3255 27.4701V26.0091L37.1183 28.0146ZM37.2498 28.045L37.1068 28.0396L35.3548 26.0869V27.4701C35.3589 27.7714 35.4048 27.8557 35.6639 27.8587H35.739V27.9926H35.7239C35.5744 27.9926 35.426 27.9793 35.2784 27.9793C35.1237 27.9793 34.965 27.9926 34.808 27.9926H34.7939V27.8587H34.8569C35.0845 27.858 35.1502 27.7115 35.1521 27.436V25.9822C35.1521 25.7977 35.0019 25.6866 34.8527 25.6862H34.7939V25.5531H34.808C34.9404 25.5531 35.0751 25.5667 35.2056 25.5667C35.3077 25.5667 35.4071 25.5531 35.5247 25.5584L37.0411 27.2661V25.9962C37.0404 25.7215 36.8572 25.6885 36.7551 25.6862H36.6652V25.5531H36.6803C36.8427 25.5531 37.0028 25.5667 37.1626 25.5667C37.3048 25.5667 37.4448 25.5531 37.5882 25.5531H37.6031V25.6862H37.5367C37.3948 25.6904 37.2475 25.7033 37.2444 26.1097V27.6815C37.2444 27.8014 37.2475 27.922 37.2635 28.0275L37.2664 28.045H37.2498Z" fill="#231F20"/>
<path d="M38.6475 25.9544H38.6408L38.3194 26.9317H38.9662L38.6475 25.9544ZM38.1433 27.4842C38.1095 27.6014 38.0678 27.6921 38.0678 27.7532C38.0678 27.8572 38.2138 27.8738 38.3261 27.8738H38.3649V27.9778C38.2264 27.971 38.0853 27.9645 37.9468 27.9645C37.8212 27.9645 37.6979 27.971 37.5746 27.9778V27.8738H37.5936C37.729 27.8738 37.8436 27.7945 37.8949 27.6496L38.448 26.0656C38.4928 25.9373 38.5546 25.7651 38.5751 25.6365C38.6855 25.599 38.8236 25.5302 38.8893 25.4885C38.8998 25.4847 38.907 25.482 38.9173 25.482C38.9271 25.482 38.9337 25.482 38.9413 25.4919C38.9519 25.5196 38.9618 25.5507 38.9731 25.5784L39.6078 27.3844C39.6484 27.5051 39.6909 27.6332 39.7357 27.7369C39.7766 27.8333 39.8499 27.8738 39.9638 27.8738H39.9841V27.9778C39.829 27.971 39.6731 27.9645 39.5077 27.9645C39.3385 27.9645 39.1654 27.971 38.9895 27.9778V27.8738H39.0277C39.1066 27.8738 39.2421 27.861 39.2421 27.7744C39.2421 27.7293 39.2106 27.6359 39.1723 27.5255L39.0383 27.1248H38.2553L38.1433 27.4842Z" fill="#231F20"/>
<path d="M38.3407 26.9163H38.945L38.6438 25.9921L38.3407 26.9163ZM38.2984 26.9459L38.6313 25.9398H38.6589L38.9852 26.9459H38.2984ZM39.0046 27.9619C39.1749 27.9562 39.3433 27.9491 39.508 27.9491C39.6682 27.9491 39.8185 27.9562 39.9687 27.9615V27.8899H39.9634C39.8465 27.8899 39.7645 27.8435 39.7216 27.7427C39.6754 27.638 39.6344 27.5097 39.5934 27.3891L38.9586 25.5831C38.9484 25.5554 38.937 25.5242 38.9287 25.5008C38.9261 25.4962 38.9261 25.4962 38.9234 25.4962H38.9173C38.9101 25.4962 38.9063 25.4981 38.8972 25.5008C38.8304 25.5429 38.6927 25.6123 38.5891 25.6389C38.5687 25.7701 38.5056 25.942 38.4616 26.0699L37.9084 27.655C37.8557 27.8049 37.7362 27.8899 37.594 27.8899H37.5882V27.9615C37.7078 27.9562 37.8269 27.9491 37.9472 27.9491C38.0807 27.9491 38.2166 27.9562 38.3505 27.9615V27.8899H38.3261C38.2143 27.8884 38.0568 27.8762 38.0527 27.7533C38.0533 27.685 38.0963 27.5966 38.1301 27.4802L38.1433 27.4842L38.1301 27.4798L38.2431 27.1106H39.049L39.1867 27.5207C39.2254 27.6319 39.2561 27.7237 39.2561 27.7745C39.2512 27.8804 39.1063 27.888 39.027 27.8899H39.0046V27.9619ZM39.9835 27.9927C39.8279 27.9866 39.6719 27.979 39.508 27.979C39.3392 27.979 39.1662 27.9866 38.9902 27.9927L38.9749 27.9938V27.8599H39.027C39.1073 27.8599 39.2266 27.8409 39.2273 27.7745C39.2276 27.7351 39.197 27.6406 39.1575 27.5306L39.0266 27.1401H38.2644L38.1581 27.4885C38.1236 27.6072 38.0818 27.6979 38.083 27.7533C38.083 27.8379 38.2124 27.8599 38.3261 27.8599H38.3793V27.9938L38.3637 27.9927C38.226 27.9866 38.0842 27.979 37.9472 27.979C37.8227 27.979 37.6991 27.9866 37.5746 27.9927L37.5594 27.9938V27.8599H37.594C37.7225 27.8584 37.8307 27.7844 37.8807 27.6448L38.4335 26.0603C38.4775 25.9322 38.5398 25.7602 38.5697 25.6229C38.6787 25.5854 38.8176 25.5159 38.884 25.4742C38.8931 25.4708 38.9037 25.4666 38.9173 25.4666C38.9261 25.4655 38.9443 25.4681 38.9552 25.4871C38.9651 25.5144 38.9753 25.5455 38.9863 25.5733L39.6219 27.3796C39.6629 27.5002 39.7046 27.6277 39.7497 27.7302C39.7904 27.822 39.8521 27.8584 39.9634 27.8599H39.9987V27.9938L39.9835 27.9927Z" fill="#231F20"/>
<path d="M40.8547 27.6396C40.8547 27.7777 40.9507 27.8191 41.0611 27.8332C41.2025 27.8437 41.3578 27.8437 41.5176 27.8263C41.6617 27.8096 41.7869 27.7261 41.8484 27.6396C41.9034 27.5633 41.9337 27.4674 41.9557 27.3907H42.0559C42.0172 27.5877 41.969 27.7815 41.9272 27.9781C41.6237 27.9781 41.3195 27.9644 41.0168 27.9644C40.7125 27.9644 40.4082 27.9781 40.1046 27.9781V27.8737H40.1521C40.2776 27.8737 40.412 27.8574 40.412 27.6427V25.8685C40.412 25.6883 40.2776 25.672 40.1521 25.672H40.1046V25.5673C40.2875 25.5673 40.4673 25.5814 40.6498 25.5814C40.8263 25.5814 40.9989 25.5673 41.1753 25.5673V25.672H41.0884C40.9575 25.672 40.8547 25.6754 40.8547 25.8587V27.6396Z" fill="#231F20"/>
<path d="M41.9156 27.9627C41.9555 27.7757 42.001 27.592 42.0371 27.4053H41.9662C41.9453 27.4816 41.9146 27.5738 41.8599 27.6485C41.7958 27.7384 41.6675 27.8227 41.5177 27.8409C41.4269 27.8508 41.3375 27.855 41.2533 27.855C41.1864 27.855 41.1209 27.8519 41.0586 27.8477C40.9471 27.8352 40.8378 27.7874 40.8389 27.6398V25.8585C40.8389 25.6661 40.96 25.6567 41.0886 25.6567H41.1599V25.5831C40.9899 25.5838 40.8214 25.5967 40.65 25.5967C40.4705 25.5967 40.2956 25.5838 40.1193 25.5831V25.6567H40.1522C40.2759 25.6567 40.4265 25.6779 40.4265 25.8679V27.6425C40.4265 27.8659 40.2763 27.8898 40.1522 27.8898H40.1193V27.9627C40.417 27.9619 40.7164 27.949 41.0169 27.949C41.3166 27.949 41.6159 27.9619 41.9156 27.9627ZM41.9275 27.9927C41.6231 27.9927 41.3196 27.979 41.0169 27.979C40.7127 27.979 40.4083 27.9927 40.1041 27.9927H40.09V27.8599H40.1522C40.2774 27.8568 40.3966 27.8477 40.3976 27.6425V25.8679C40.3966 25.7003 40.2786 25.6885 40.1522 25.6859H40.09V25.5531H40.1041C40.2881 25.5531 40.4675 25.5667 40.65 25.5667C40.8257 25.5667 40.9983 25.5531 41.1755 25.5531H41.1891V25.6859H41.0886C40.9546 25.6896 40.8712 25.6836 40.8682 25.8585V27.6398C40.8696 27.7684 40.9535 27.8026 41.0624 27.8185C41.1223 27.8227 41.1872 27.825 41.2533 27.825C41.3375 27.825 41.4251 27.8209 41.5154 27.8113C41.6558 27.7946 41.7765 27.7138 41.8364 27.6314C41.8896 27.5571 41.9199 27.4626 41.94 27.3872L41.9437 27.3753H42.0739L42.0706 27.3944C42.0318 27.5912 41.9844 27.7844 41.9427 27.9816L41.9389 27.9927H41.9275Z" fill="#231F20"/>
<path d="M41.9557 25.8344H41.9982C42.0453 25.8344 42.0669 25.7991 42.0669 25.7418C42.0669 25.6837 42.0324 25.6636 41.9955 25.6636H41.9557V25.8344ZM41.8328 26.0263V26.0081C41.8768 26.0021 41.8855 26.004 41.8855 25.9754V25.7069C41.8855 25.6685 41.8814 25.6556 41.834 25.6579V25.639H42.0205C42.0835 25.639 42.1428 25.67 42.1428 25.7357C42.1428 25.7903 42.1075 25.8295 42.057 25.8453L42.1162 25.9292C42.1447 25.966 42.1761 26.0021 42.197 26.0146V26.0263H42.1261C42.0923 26.0263 42.0628 25.9542 41.9955 25.859H41.9557V25.9793C41.9557 26.004 41.964 26.0021 42.008 26.0081V26.0263H41.8328ZM42.0134 26.1291C42.1761 26.1291 42.3009 25.991 42.3009 25.8344C42.3009 25.6776 42.1784 25.5376 42.0134 25.5376C41.8495 25.5376 41.725 25.6776 41.725 25.8344C41.725 25.991 41.8495 26.1291 42.0134 26.1291ZM42.0134 25.4701C42.2213 25.4701 42.3768 25.6302 42.3768 25.8344C42.3768 26.0384 42.2213 26.1966 42.0134 26.1966C41.8059 26.1966 41.6496 26.0384 41.6496 25.8344C41.6496 25.6302 41.8059 25.4701 42.0134 25.4701Z" fill="#231F20"/>
<path d="M20.4576 13.2869C20.4576 10.0569 23.0759 7.43877 26.3059 7.43877C29.5359 7.43877 32.1541 10.0569 32.1541 13.2869C32.1541 16.5169 29.5359 19.1351 26.3059 19.1351C23.0759 19.1351 20.4576 16.5169 20.4576 13.2869Z" fill="white"/>
<path d="M29.8429 13.1717C29.8402 11.6739 28.9043 10.397 27.585 9.89107V16.4524C28.9043 15.9457 29.8402 14.67 29.8429 13.1717ZM25.0686 16.4509V9.89145C23.7509 10.3993 22.816 11.6747 22.8127 13.1717C22.816 14.6684 23.7509 15.9442 25.0686 16.4509ZM26.3276 7.626C23.2648 7.62715 20.7833 10.109 20.7829 13.1717C20.7833 16.2341 23.2648 18.7156 26.3276 18.716C29.3904 18.7156 31.8726 16.2341 31.8733 13.1717C31.8726 10.109 29.3904 7.62715 26.3276 7.626ZM26.3139 19.2397C22.9624 19.2553 20.2039 16.5404 20.2039 13.235C20.2039 9.62288 22.9624 7.12433 26.3139 7.125H27.8849C31.1965 7.12433 34.2192 9.62134 34.2192 13.235C34.2192 16.5389 31.1965 19.2397 27.8849 19.2397H26.3139Z" fill="#006699"/>
</svg>
