<svg width="56" height="36" viewBox="0 0 56 36" fill="none" xmlns="http://www.w3.org/2000/svg">
<path d="M19.8049 18.27C19.8049 20.2067 21.326 21.7081 23.2825 21.7081C23.836 21.7081 24.3091 21.599 24.8935 21.3244V19.8118C24.3799 20.3254 23.9249 20.533 23.3421 20.533C22.0477 20.533 21.1291 19.5947 21.1291 18.2604C21.1291 16.9959 22.0775 15.9979 23.2825 15.9979C23.8956 15.9979 24.3597 16.2162 24.8935 16.7388V15.2268C24.3299 14.941 23.8658 14.8223 23.3128 14.8223C21.3659 14.8223 19.8049 16.3545 19.8049 18.27Z" fill="#251F1F"/>
<path d="M16.5068 16.6701C16.5068 17.0257 16.7335 17.2141 17.5047 17.4993C18.9667 18.0342 19.3999 18.5079 19.3999 19.5548C19.3999 20.83 18.4627 21.7177 17.1273 21.7177C16.1496 21.7177 15.4386 21.3329 14.8462 20.4638L15.6765 19.6644C15.9724 20.2365 16.4663 20.5431 17.0789 20.5431C17.6526 20.5431 18.0768 20.1477 18.0768 19.6138C18.0768 19.3371 17.948 19.0992 17.6915 18.9321C17.5621 18.8528 17.3061 18.7341 16.8032 18.5569C15.5961 18.1226 15.1821 17.6579 15.1821 16.75C15.1821 15.6717 16.0714 14.8622 17.237 14.8622C17.9592 14.8622 18.6202 15.1091 19.1732 15.5929L18.5004 16.4732C18.1657 16.098 17.8495 15.9394 17.4642 15.9394C16.9102 15.9394 16.5068 16.255 16.5068 16.6701Z" fill="#251F1F"/>
<path fill-rule="evenodd" clip-rule="evenodd" d="M8.94922 14.9713H7.0625V21.5597H8.93911C9.93649 21.5597 10.6577 21.3244 11.2899 20.7991C12.0414 20.1769 12.4858 19.2392 12.4858 18.27C12.4858 16.3258 11.0329 14.9713 8.94922 14.9713ZM10.4501 19.9209C10.0461 20.285 9.52189 20.4441 8.69163 20.4441H8.34675V16.0879H8.69163C9.52189 16.0879 10.0254 16.2359 10.4501 16.6206C10.895 17.0161 11.1617 17.6292 11.1617 18.2604C11.1617 18.8927 10.895 19.5255 10.4501 19.9209Z" fill="#251F1F"/>
<path d="M14.3625 14.9713H13.0771V21.5597H14.3625V14.9713Z" fill="#251F1F"/>
<path d="M33.326 14.9713L35.0834 19.3962L36.8631 14.9713H38.256L35.4097 21.7289H34.7183L31.9225 14.9713H33.326Z" fill="#251F1F"/>
<path d="M38.8371 21.5597H42.4818V20.4441H40.1214V18.666H42.3945V17.5499H40.1214V16.0879H42.4818V14.9713H38.8371V21.5597Z" fill="#251F1F"/>
<path fill-rule="evenodd" clip-rule="evenodd" d="M45.2382 14.9713C46.7204 14.9713 47.5709 15.6829 47.5709 16.916C47.5709 17.9251 47.0371 18.5872 46.0689 18.7841L48.143 21.5597H46.5628L44.7842 18.9129H44.616V21.5597H43.3328V14.9713H45.2382ZM44.616 18.0044H44.9923C45.813 18.0044 46.2478 17.6478 46.2478 16.9858C46.2478 16.3444 45.813 16.0086 45.012 16.0086H44.616V18.0044Z" fill="#251F1F"/>
<path fill-rule="evenodd" clip-rule="evenodd" d="M48.5949 15.3167C48.5949 15.2007 48.5145 15.1374 48.3745 15.1374H48.1883V15.7185H48.3266V15.4934L48.489 15.7185H48.6588L48.4677 15.479C48.5491 15.4567 48.5949 15.3971 48.5949 15.3167ZM48.3501 15.396H48.3266V15.2438H48.3517C48.4203 15.2438 48.456 15.2688 48.456 15.3188C48.456 15.3699 48.4198 15.396 48.3501 15.396Z" fill="#251F1F"/>
<path fill-rule="evenodd" clip-rule="evenodd" d="M47.8961 15.4269C47.8961 15.1453 48.1207 14.9202 48.4022 14.9202C48.6768 14.9202 48.9025 15.1496 48.9025 15.4269C48.9025 15.7057 48.6768 15.9335 48.4022 15.9335C48.1228 15.9335 47.8961 15.7079 47.8961 15.4269ZM47.9967 15.4274C47.9967 15.6584 48.1781 15.8431 48.4001 15.8431C48.6215 15.8431 48.8014 15.6562 48.8014 15.4274C48.8014 15.2007 48.6215 15.0112 48.4001 15.0112C48.1765 15.0112 47.9967 15.1964 47.9967 15.4274Z" fill="#251F1F"/>
<g filter="url(#filter0_i_6001_3676)">
<path d="M28.7879 21.7602C26.8623 21.7602 25.3008 20.1986 25.3008 18.2731V18.2683C25.3008 17.3103 25.6887 16.4386 26.3162 15.8111C26.3162 15.8062 26.3211 15.8062 26.3211 15.8015C26.3258 15.8015 26.3258 15.7967 26.3306 15.7967C26.9581 15.1692 27.8299 14.7812 28.7879 14.7812H28.7927C30.7183 14.7812 32.2798 16.3428 32.2798 18.2683V18.2731C32.2798 19.2311 31.8917 20.0981 31.2643 20.7304C31.2643 20.7352 31.2596 20.7352 31.2596 20.74C31.2547 20.74 31.2547 20.7447 31.25 20.7447C30.6177 21.3722 29.7507 21.7602 28.7927 21.7602H28.7879Z" fill="url(#paint0_linear_6001_3676)"/>
</g>
<defs>
<filter id="filter0_i_6001_3676" x="25.3008" y="14.7812" width="7.23593" height="7.36171" filterUnits="userSpaceOnUse" color-interpolation-filters="sRGB">
<feFlood flood-opacity="0" result="BackgroundImageFix"/>
<feBlend mode="normal" in="SourceGraphic" in2="BackgroundImageFix" result="shape"/>
<feColorMatrix in="SourceAlpha" type="matrix" values="0 0 0 0 0 0 0 0 0 0 0 0 0 0 0 0 0 0 127 0" result="hardAlpha"/>
<feOffset dx="0.255466" dy="0.383198"/>
<feGaussianBlur stdDeviation="0.255466"/>
<feComposite in2="hardAlpha" operator="arithmetic" k2="-1" k3="1"/>
<feColorMatrix type="matrix" values="0 0 0 0 0 0 0 0 0 0 0 0 0 0 0 0 0 0 0.35 0"/>
<feBlend mode="normal" in2="shape" result="effect1_innerShadow_6001_3676"/>
</filter>
<linearGradient id="paint0_linear_6001_3676" x1="26.9613" y1="14.7812" x2="32.6958" y2="19.6337" gradientUnits="userSpaceOnUse">
<stop stop-color="#EF3823"/>
<stop offset="0.489583" stop-color="#F04D22"/>
<stop offset="1" stop-color="#F7911D"/>
</linearGradient>
</defs>
</svg>
