<svg width="55" height="36" viewBox="0 0 55 36" fill="none" xmlns="http://www.w3.org/2000/svg">
<path fill-rule="evenodd" clip-rule="evenodd" d="M54.6326 7.26429H50.1305L47.7773 14.0174L45.3216 7.26429H40.7173V17.7794L36.0106 7.26429H32.225L27.5182 18.0077H30.7923L31.7131 15.8591H36.6246L37.5454 18.0077H43.6846V10.5384L46.4471 18.0077H49.005L51.7676 10.5384V18.0077H54.6326V19.6447H50.8467L47.7773 23.0213L44.6054 19.6447H31.611V30.3882H44.5032L47.6748 26.9094L50.8467 30.3882H54.6326V31.718H50.1305L47.6748 29.058L45.2191 31.718H29.9739V19.4401H25.0625L31.2016 5.62695H37.1361L39.2846 10.3337V5.62695H46.6518L47.8795 9.20819L49.1075 5.62695H54.6326V7.26429ZM54.6326 21.998L51.8701 24.9652L54.6326 27.9324V30.3882L49.619 24.9652L54.6326 19.6447V21.998ZM40.7173 30.3882V27.8303H34.5782V26.1932H40.6148V23.7375H34.5782V22.1005H40.7173V19.6447L45.8331 24.9652L40.7173 30.3882ZM32.634 13.5056L34.0667 10.0269L35.4991 13.5056H32.634Z" fill="#006FCF"/>
</svg>
