<svg width="50" height="50" viewBox="0 0 50 50" fill="none" xmlns="http://www.w3.org/2000/svg">
<circle cx="25" cy="25" r="25" fill="white"/>
<g clip-path="url(#clip0_4036_25465)">
<path d="M25 10C16.5512 10 10 16.1913 10 24.55C10 28.9225 11.7925 32.7025 14.71 35.3125C14.9538 35.53 15.1038 35.8375 15.1113 36.1675L15.1938 38.8375C15.1998 39.034 15.2539 39.2259 15.3515 39.3965C15.4491 39.5672 15.5871 39.7112 15.7533 39.816C15.9196 39.9208 16.1091 39.9832 16.3051 39.9976C16.5011 40.012 16.6977 39.9781 16.8775 39.8988L19.855 38.5863C20.1062 38.4738 20.3913 38.455 20.6575 38.5263C22.0263 38.9013 23.4813 39.1038 25 39.1038C33.4488 39.1038 40 32.9125 40 24.5538C40 16.195 33.4488 10 25 10Z" fill="url(#paint0_radial_4036_25465)"/>
<path d="M15.9912 28.8064L20.3975 21.8164C20.5632 21.5532 20.7817 21.3273 21.0392 21.1528C21.2967 20.9783 21.5875 20.8592 21.8934 20.8028C22.1993 20.7464 22.5135 20.754 22.8163 20.8252C23.119 20.8964 23.4038 21.0296 23.6525 21.2164L27.1587 23.8451C27.3152 23.9623 27.5057 24.0253 27.7012 24.0247C27.8967 24.024 28.0867 23.9596 28.2425 23.8414L32.975 20.2489C33.6049 19.7689 34.43 20.5264 34.01 21.1976L29.6 28.1839C29.4342 28.447 29.2157 28.673 28.9582 28.8474C28.7007 29.0219 28.4099 29.1411 28.104 29.1975C27.7981 29.2538 27.4839 29.2462 27.1811 29.175C26.8784 29.1038 26.5936 28.9706 26.345 28.7839L22.8387 26.1551C22.6822 26.0379 22.4917 25.9749 22.2962 25.9756C22.1007 25.9763 21.9107 26.0406 21.755 26.1589L17.0225 29.7514C16.3925 30.2314 15.5675 29.4776 15.9912 28.8064Z" fill="white"/>
</g>
<defs>
<radialGradient id="paint0_radial_4036_25465" cx="0" cy="0" r="1" gradientUnits="userSpaceOnUse" gradientTransform="translate(15.025 40) scale(33 33)">
<stop stop-color="#0099FF"/>
<stop offset="0.6" stop-color="#A033FF"/>
<stop offset="0.9" stop-color="#FF5280"/>
<stop offset="1" stop-color="#FF7061"/>
</radialGradient>
<clipPath id="clip0_4036_25465">
<rect width="30" height="30" fill="white" transform="translate(10 10)"/>
</clipPath>
</defs>
</svg>
