<svg width="28" height="29" viewBox="0 0 28 29" fill="none" xmlns="http://www.w3.org/2000/svg">
<rect y="0.555664" width="28" height="28" rx="14" fill="#004DD1"/>
<path d="M17.3788 9.86827C18.7588 7.24537 20.6987 7.07423 22.9435 7.24564C19.4516 9.67674 19.4297 12.5281 18.7588 14.826C17.7969 18.1205 17.3648 19.6922 15.7019 20.2182C14.7065 20.5331 13.6455 20.0815 13.082 19.2362C16.4631 14.3055 15.776 12.9149 17.3788 9.86827Z" fill="#FCFCFD"/>
<path d="M12.8569 19.671C14.1391 21.2592 15.7944 20.7736 16.1813 20.4335C14.6061 22.4739 10.0359 22.9892 8.43301 18.109C7.15068 14.2049 6.87762 13.06 4.41797 12.4034C10.8984 11.136 10.2878 16.489 12.8569 19.671Z" fill="#FCFCFD"/>
</svg>
