<svg width="55" height="36" viewBox="0 0 55 36" fill="none" xmlns="http://www.w3.org/2000/svg">
<rect width="54.392" height="35.041" fill="white"/>
<path d="M26.8618 11.8088L24.3248 23.6681H21.257L23.7944 11.8088H26.8618ZM39.7691 19.4664L41.3843 15.0128L42.3137 19.4664H39.7691ZM43.192 23.6681H46.0297L43.5535 11.8088H40.9342C40.3457 11.8088 39.8491 12.1511 39.628 12.6788L35.0254 23.6681H38.2471L38.8867 21.8972H42.8227L43.192 23.6681ZM35.1853 19.7959C35.1984 16.6659 30.8567 16.4936 30.8867 15.0954C30.8957 14.6693 31.3015 14.2174 32.1877 14.1014C32.628 14.044 33.8385 14.0001 35.2131 14.6326L35.7513 12.1177C35.013 11.8497 34.063 11.5918 32.8814 11.5918C29.8492 11.5918 27.715 13.204 27.697 15.5124C27.6778 17.2195 29.2205 18.1722 30.383 18.7397C31.5781 19.3211 31.9798 19.6935 31.9745 20.2133C31.9666 21.0095 31.0211 21.3601 30.139 21.3739C28.5963 21.3983 27.7011 20.9577 26.9875 20.6251L26.4316 23.2237C27.1482 23.5529 28.4713 23.8389 29.844 23.8535C33.0664 23.8535 35.1748 22.2613 35.1853 19.7959ZM22.478 11.8088L17.5076 23.6681H14.2641L11.8183 14.2035C11.6697 13.6206 11.5405 13.4074 11.089 13.1615C10.3522 12.7618 9.13414 12.386 8.0625 12.1533L8.13569 11.8088H13.3558C14.0209 11.8088 14.6196 12.2517 14.7705 13.0178L16.0624 19.8808L19.2548 11.8088H22.478Z" fill="#1434CB"/>
</svg>
