<svg width="56" height="36" viewBox="0 0 56 36" fill="none" xmlns="http://www.w3.org/2000/svg">
<rect x="0.828125" y="0.0820312" width="54.392" height="35.041" rx="6.276" fill="white"/>
<path d="M41.4907 23.7265C41.4907 26.0308 39.6143 27.9072 37.3099 27.9072H14.5625V11.3487C14.5625 9.04438 16.4389 7.16797 18.7433 7.16797H41.4907V23.7265Z" fill="white"/>
<path d="M35.6137 8.56641C33.9677 8.56641 32.618 9.89965 32.618 11.5621V14.673H36.8482C36.9469 14.673 37.0622 14.673 37.1445 14.6894C38.0991 14.7388 38.8069 15.2326 38.8069 16.0885C38.8069 16.7634 38.3296 17.3394 37.4407 17.4547V17.4876C38.4119 17.5534 39.1526 18.0966 39.1526 18.936C39.1526 19.8413 38.3296 20.4339 37.2432 20.4339H32.6016V26.524H36.9963C38.6423 26.524 39.992 25.1907 39.992 23.5283V8.56641H35.6137Z" fill="url(#paint0_linear_6001_25525)"/>
<path d="M34.0831 19.4792H35.8113C35.836 19.4792 35.8772 19.4751 35.9183 19.471C35.9595 19.4669 36.0006 19.4628 36.0253 19.4628C36.3545 19.3969 36.6343 19.1006 36.6343 18.6892C36.6343 18.2941 36.3545 17.9978 36.0253 17.9155C35.9759 17.8991 35.8772 17.8991 35.8113 17.8991H34.0831V19.4792Z" fill="url(#paint1_linear_6001_25525)"/>
<path d="M35.8113 15.5783C36.1405 15.6277 36.4203 15.891 36.4203 16.286C36.4203 16.6811 36.1405 16.9444 35.8113 16.9938C35.7949 17.0103 35.6961 17.0103 35.6467 17.0103H34.0831V15.5618H35.6467C35.6739 15.5618 35.7111 15.5668 35.7445 15.5713C35.7718 15.5749 35.7965 15.5783 35.8113 15.5783Z" fill="url(#paint2_linear_6001_25525)"/>
<path d="M19.059 8.56641C17.413 8.56641 16.0633 9.89965 16.0633 11.5621V18.9525C16.9028 19.364 17.7752 19.6274 18.6475 19.6274C19.6845 19.6274 20.2441 19.0019 20.2441 18.146V14.6565H22.8118V18.1295C22.8118 19.4792 21.9724 20.582 19.1249 20.582C17.3966 20.582 16.0469 20.2034 16.0469 20.2034V26.5075H20.4416C22.0876 26.5075 23.4373 25.1743 23.4373 23.5119V8.56641H19.059Z" fill="url(#paint3_linear_6001_25525)"/>
<path d="M27.3316 8.56641C25.6856 8.56641 24.3359 9.89965 24.3359 11.5621V15.4795C25.0931 14.8376 26.4099 14.4261 28.5332 14.5248C29.6689 14.5742 30.8869 14.8869 30.8869 14.8869V16.1543C30.2779 15.8416 29.5537 15.5618 28.6155 15.496C27.0024 15.3807 26.0313 16.1708 26.0313 17.5534C26.0313 18.9525 27.0024 19.7426 28.6155 19.6109C29.5537 19.5451 30.2779 19.2488 30.8869 18.9525V20.2199C30.8869 20.2199 29.6854 20.5326 28.5332 20.582C26.4099 20.6808 25.0931 20.2693 24.3359 19.6274V26.5404H28.7307C30.3767 26.5404 31.7264 25.2072 31.7264 23.5448V8.56641H27.3316Z" fill="url(#paint4_linear_6001_25525)"/>
<defs>
<linearGradient id="paint0_linear_6001_25525" x1="32.6152" y1="16.284" x2="40.0121" y2="16.284" gradientUnits="userSpaceOnUse">
<stop stop-color="#007940"/>
<stop offset="0.2285" stop-color="#00873F"/>
<stop offset="0.7433" stop-color="#40A737"/>
<stop offset="1" stop-color="#5CB531"/>
</linearGradient>
<linearGradient id="paint1_linear_6001_25525" x1="32.6152" y1="16.284" x2="40.0121" y2="16.284" gradientUnits="userSpaceOnUse">
<stop stop-color="#007940"/>
<stop offset="0.2285" stop-color="#00873F"/>
<stop offset="0.7433" stop-color="#40A737"/>
<stop offset="1" stop-color="#5CB531"/>
</linearGradient>
<linearGradient id="paint2_linear_6001_25525" x1="32.6152" y1="16.284" x2="40.0121" y2="16.284" gradientUnits="userSpaceOnUse">
<stop stop-color="#007940"/>
<stop offset="0.2285" stop-color="#00873F"/>
<stop offset="0.7433" stop-color="#40A737"/>
<stop offset="1" stop-color="#5CB531"/>
</linearGradient>
<linearGradient id="paint3_linear_6001_25525" x1="16.0598" y1="17.538" x2="23.571" y2="17.538" gradientUnits="userSpaceOnUse">
<stop stop-color="#1F286F"/>
<stop offset="0.4751" stop-color="#004E94"/>
<stop offset="0.8261" stop-color="#0066B1"/>
<stop offset="1" stop-color="#006FBC"/>
</linearGradient>
<linearGradient id="paint4_linear_6001_25525" x1="24.2934" y1="17.538" x2="31.5884" y2="17.538" gradientUnits="userSpaceOnUse">
<stop stop-color="#6C2C2F"/>
<stop offset="0.1735" stop-color="#882730"/>
<stop offset="0.5731" stop-color="#BE1833"/>
<stop offset="0.8585" stop-color="#DC0436"/>
<stop offset="1" stop-color="#E60039"/>
</linearGradient>
</defs>
</svg>
