<svg width="36" height="36" viewBox="0 0 36 36" fill="none" xmlns="http://www.w3.org/2000/svg">
<path opacity="0.12" d="M23.4493 11.4471C22.8553 10.853 22.5583 10.556 22.447 10.2135C22.3491 9.91226 22.3491 9.58774 22.447 9.28647C22.5583 8.94398 22.8553 8.64697 23.4494 8.05294L27.7069 3.79539C26.5771 3.28444 25.3229 3 24.0023 3C19.0317 3 15.0023 7.02944 15.0023 12C15.0023 12.7366 15.0908 13.4525 15.2577 14.1376C15.4364 14.8714 15.5258 15.2382 15.5099 15.47C15.4933 15.7126 15.4571 15.8417 15.3452 16.0577C15.2384 16.2639 15.0336 16.4687 14.624 16.8783L5.25229 26.25C4.00965 27.4926 4.00965 29.5074 5.25229 30.75C6.49493 31.9926 8.50965 31.9926 9.75229 30.75L19.124 21.3783C19.5336 20.9687 19.7384 20.7639 19.9446 20.6571C20.1606 20.5452 20.2897 20.509 20.5323 20.4924C20.7641 20.4765 21.1309 20.5659 21.8647 20.7446C22.5498 20.9115 23.2657 21 24.0023 21C28.9729 21 33.0023 16.9706 33.0023 12C33.0023 10.6794 32.7179 9.42521 32.2069 8.29539L27.9493 12.5529C27.3553 13.147 27.0583 13.444 26.7158 13.5553C26.4146 13.6532 26.09 13.6532 25.7888 13.5553C25.4463 13.444 25.1493 13.147 24.5552 12.5529L23.4493 11.4471Z" fill="#2160FD"/>
<path d="M23.4493 11.4471C22.8553 10.853 22.5583 10.556 22.447 10.2135C22.3491 9.91226 22.3491 9.58774 22.447 9.28647C22.5583 8.94398 22.8553 8.64697 23.4494 8.05294L27.7069 3.79539C26.5771 3.28444 25.3229 3 24.0023 3C19.0317 3 15.0023 7.02944 15.0023 12C15.0023 12.7366 15.0908 13.4525 15.2577 14.1376C15.4364 14.8714 15.5258 15.2382 15.5099 15.47C15.4933 15.7126 15.4571 15.8417 15.3452 16.0577C15.2384 16.2639 15.0336 16.4687 14.624 16.8783L5.25229 26.25C4.00965 27.4926 4.00965 29.5074 5.25229 30.75C6.49493 31.9926 8.50965 31.9926 9.75229 30.75L19.124 21.3783C19.5336 20.9687 19.7384 20.7639 19.9446 20.6571C20.1606 20.5452 20.2897 20.509 20.5323 20.4924C20.7641 20.4765 21.1309 20.5659 21.8647 20.7446C22.5498 20.9115 23.2657 21 24.0023 21C28.9729 21 33.0023 16.9706 33.0023 12C33.0023 10.6794 32.7179 9.42521 32.2069 8.29539L27.9493 12.5529C27.3553 13.147 27.0583 13.444 26.7158 13.5553C26.4146 13.6532 26.09 13.6532 25.7888 13.5553C25.4463 13.444 25.1493 13.147 24.5552 12.5529L23.4493 11.4471Z" stroke="#2160FD" stroke-width="3.33333" stroke-linecap="round" stroke-linejoin="round"/>
</svg>
